M48
; DRILL file {KiCad 5.1.10} date Sun Nov  7 07:50:48 2021
; FORMAT={-:-/ absolute / inch / decimal}
; #@! TF.CreationDate,2021-11-07T07:50:48-05:00
; #@! TF.GenerationSoftware,Kicad,Pcbnew,5.1.10
; #@! TF.FileFunction,NonPlated,1,2,NPTH
FMAT,2
INCH
T1C0.1260
%
G90
G05
T1
X4.5177Y-2.4902
X4.5177Y-2.8051
X4.5177Y-3.0413
X4.5177Y-3.3563
X4.5177Y-3.5925
X4.5177Y-3.9075
X4.5177Y-4.1437
X4.5177Y-4.4587
X4.5177Y-4.6949
X4.5177Y-5.0098
X5.935Y-2.4902
X5.935Y-2.8051
X5.935Y-3.0413
X5.935Y-3.3563
X5.935Y-3.5925
X5.935Y-3.9075
X5.935Y-4.1437
X5.935Y-4.4587
X5.935Y-4.6949
X5.935Y-5.0098
T0
M30
