%TF.GenerationSoftware,KiCad,Pcbnew,5.1.10*%
%TF.CreationDate,2021-11-07T07:50:52-05:00*%
%TF.ProjectId,CurrentSenseModule-RevB-10p,43757272-656e-4745-9365-6e73654d6f64,rev?*%
%TF.SameCoordinates,Original*%
%TF.FileFunction,Paste,Top*%
%TF.FilePolarity,Positive*%
%FSLAX46Y46*%
G04 Gerber Fmt 4.6, Leading zero omitted, Abs format (unit mm)*
G04 Created by KiCad (PCBNEW 5.1.10) date 2021-11-07 07:50:52*
%MOMM*%
%LPD*%
G01*
G04 APERTURE LIST*
%ADD10R,1.400000X0.300000*%
G04 APERTURE END LIST*
D10*
%TO.C,U1*%
X117550000Y-67750000D03*
X117550000Y-67250000D03*
X117550000Y-66750000D03*
X117550000Y-66250000D03*
X117550000Y-65750000D03*
X121950000Y-65750000D03*
X121950000Y-66250000D03*
X121950000Y-66750000D03*
X121950000Y-67250000D03*
X121950000Y-67750000D03*
%TD*%
%TO.C,R3*%
G36*
G01*
X124799998Y-64650000D02*
X125700002Y-64650000D01*
G75*
G02*
X125950000Y-64899998I0J-249998D01*
G01*
X125950000Y-65425002D01*
G75*
G02*
X125700002Y-65675000I-249998J0D01*
G01*
X124799998Y-65675000D01*
G75*
G02*
X124550000Y-65425002I0J249998D01*
G01*
X124550000Y-64899998D01*
G75*
G02*
X124799998Y-64650000I249998J0D01*
G01*
G37*
G36*
G01*
X124799998Y-62825000D02*
X125700002Y-62825000D01*
G75*
G02*
X125950000Y-63074998I0J-249998D01*
G01*
X125950000Y-63600002D01*
G75*
G02*
X125700002Y-63850000I-249998J0D01*
G01*
X124799998Y-63850000D01*
G75*
G02*
X124550000Y-63600002I0J249998D01*
G01*
X124550000Y-63074998D01*
G75*
G02*
X124799998Y-62825000I249998J0D01*
G01*
G37*
%TD*%
%TO.C,R2*%
G36*
G01*
X125700002Y-68100000D02*
X124799998Y-68100000D01*
G75*
G02*
X124550000Y-67850002I0J249998D01*
G01*
X124550000Y-67324998D01*
G75*
G02*
X124799998Y-67075000I249998J0D01*
G01*
X125700002Y-67075000D01*
G75*
G02*
X125950000Y-67324998I0J-249998D01*
G01*
X125950000Y-67850002D01*
G75*
G02*
X125700002Y-68100000I-249998J0D01*
G01*
G37*
G36*
G01*
X125700002Y-69925000D02*
X124799998Y-69925000D01*
G75*
G02*
X124550000Y-69675002I0J249998D01*
G01*
X124550000Y-69149998D01*
G75*
G02*
X124799998Y-68900000I249998J0D01*
G01*
X125700002Y-68900000D01*
G75*
G02*
X125950000Y-69149998I0J-249998D01*
G01*
X125950000Y-69675002D01*
G75*
G02*
X125700002Y-69925000I-249998J0D01*
G01*
G37*
%TD*%
%TO.C,R1*%
G36*
G01*
X110124998Y-68187500D02*
X111375002Y-68187500D01*
G75*
G02*
X111625000Y-68437498I0J-249998D01*
G01*
X111625000Y-69062502D01*
G75*
G02*
X111375002Y-69312500I-249998J0D01*
G01*
X110124998Y-69312500D01*
G75*
G02*
X109875000Y-69062502I0J249998D01*
G01*
X109875000Y-68437498D01*
G75*
G02*
X110124998Y-68187500I249998J0D01*
G01*
G37*
G36*
G01*
X110124998Y-65262500D02*
X111375002Y-65262500D01*
G75*
G02*
X111625000Y-65512498I0J-249998D01*
G01*
X111625000Y-66137502D01*
G75*
G02*
X111375002Y-66387500I-249998J0D01*
G01*
X110124998Y-66387500D01*
G75*
G02*
X109875000Y-66137502I0J249998D01*
G01*
X109875000Y-65512498D01*
G75*
G02*
X110124998Y-65262500I249998J0D01*
G01*
G37*
%TD*%
%TO.C,C1*%
G36*
G01*
X120000000Y-63725000D02*
X120000000Y-62775000D01*
G75*
G02*
X120250000Y-62525000I250000J0D01*
G01*
X120750000Y-62525000D01*
G75*
G02*
X121000000Y-62775000I0J-250000D01*
G01*
X121000000Y-63725000D01*
G75*
G02*
X120750000Y-63975000I-250000J0D01*
G01*
X120250000Y-63975000D01*
G75*
G02*
X120000000Y-63725000I0J250000D01*
G01*
G37*
G36*
G01*
X118100000Y-63725000D02*
X118100000Y-62775000D01*
G75*
G02*
X118350000Y-62525000I250000J0D01*
G01*
X118850000Y-62525000D01*
G75*
G02*
X119100000Y-62775000I0J-250000D01*
G01*
X119100000Y-63725000D01*
G75*
G02*
X118850000Y-63975000I-250000J0D01*
G01*
X118350000Y-63975000D01*
G75*
G02*
X118100000Y-63725000I0J250000D01*
G01*
G37*
%TD*%
%TO.C,U1*%
X117550000Y-81750000D03*
X117550000Y-81250000D03*
X117550000Y-80750000D03*
X117550000Y-80250000D03*
X117550000Y-79750000D03*
X121950000Y-79750000D03*
X121950000Y-80250000D03*
X121950000Y-80750000D03*
X121950000Y-81250000D03*
X121950000Y-81750000D03*
%TD*%
%TO.C,R3*%
G36*
G01*
X124799998Y-78650000D02*
X125700002Y-78650000D01*
G75*
G02*
X125950000Y-78899998I0J-249998D01*
G01*
X125950000Y-79425002D01*
G75*
G02*
X125700002Y-79675000I-249998J0D01*
G01*
X124799998Y-79675000D01*
G75*
G02*
X124550000Y-79425002I0J249998D01*
G01*
X124550000Y-78899998D01*
G75*
G02*
X124799998Y-78650000I249998J0D01*
G01*
G37*
G36*
G01*
X124799998Y-76825000D02*
X125700002Y-76825000D01*
G75*
G02*
X125950000Y-77074998I0J-249998D01*
G01*
X125950000Y-77600002D01*
G75*
G02*
X125700002Y-77850000I-249998J0D01*
G01*
X124799998Y-77850000D01*
G75*
G02*
X124550000Y-77600002I0J249998D01*
G01*
X124550000Y-77074998D01*
G75*
G02*
X124799998Y-76825000I249998J0D01*
G01*
G37*
%TD*%
%TO.C,R2*%
G36*
G01*
X125700002Y-82100000D02*
X124799998Y-82100000D01*
G75*
G02*
X124550000Y-81850002I0J249998D01*
G01*
X124550000Y-81324998D01*
G75*
G02*
X124799998Y-81075000I249998J0D01*
G01*
X125700002Y-81075000D01*
G75*
G02*
X125950000Y-81324998I0J-249998D01*
G01*
X125950000Y-81850002D01*
G75*
G02*
X125700002Y-82100000I-249998J0D01*
G01*
G37*
G36*
G01*
X125700002Y-83925000D02*
X124799998Y-83925000D01*
G75*
G02*
X124550000Y-83675002I0J249998D01*
G01*
X124550000Y-83149998D01*
G75*
G02*
X124799998Y-82900000I249998J0D01*
G01*
X125700002Y-82900000D01*
G75*
G02*
X125950000Y-83149998I0J-249998D01*
G01*
X125950000Y-83675002D01*
G75*
G02*
X125700002Y-83925000I-249998J0D01*
G01*
G37*
%TD*%
%TO.C,R1*%
G36*
G01*
X110124998Y-82187500D02*
X111375002Y-82187500D01*
G75*
G02*
X111625000Y-82437498I0J-249998D01*
G01*
X111625000Y-83062502D01*
G75*
G02*
X111375002Y-83312500I-249998J0D01*
G01*
X110124998Y-83312500D01*
G75*
G02*
X109875000Y-83062502I0J249998D01*
G01*
X109875000Y-82437498D01*
G75*
G02*
X110124998Y-82187500I249998J0D01*
G01*
G37*
G36*
G01*
X110124998Y-79262500D02*
X111375002Y-79262500D01*
G75*
G02*
X111625000Y-79512498I0J-249998D01*
G01*
X111625000Y-80137502D01*
G75*
G02*
X111375002Y-80387500I-249998J0D01*
G01*
X110124998Y-80387500D01*
G75*
G02*
X109875000Y-80137502I0J249998D01*
G01*
X109875000Y-79512498D01*
G75*
G02*
X110124998Y-79262500I249998J0D01*
G01*
G37*
%TD*%
%TO.C,C1*%
G36*
G01*
X120000000Y-77725000D02*
X120000000Y-76775000D01*
G75*
G02*
X120250000Y-76525000I250000J0D01*
G01*
X120750000Y-76525000D01*
G75*
G02*
X121000000Y-76775000I0J-250000D01*
G01*
X121000000Y-77725000D01*
G75*
G02*
X120750000Y-77975000I-250000J0D01*
G01*
X120250000Y-77975000D01*
G75*
G02*
X120000000Y-77725000I0J250000D01*
G01*
G37*
G36*
G01*
X118100000Y-77725000D02*
X118100000Y-76775000D01*
G75*
G02*
X118350000Y-76525000I250000J0D01*
G01*
X118850000Y-76525000D01*
G75*
G02*
X119100000Y-76775000I0J-250000D01*
G01*
X119100000Y-77725000D01*
G75*
G02*
X118850000Y-77975000I-250000J0D01*
G01*
X118350000Y-77975000D01*
G75*
G02*
X118100000Y-77725000I0J250000D01*
G01*
G37*
%TD*%
%TO.C,U1*%
X153550000Y-67750000D03*
X153550000Y-67250000D03*
X153550000Y-66750000D03*
X153550000Y-66250000D03*
X153550000Y-65750000D03*
X157950000Y-65750000D03*
X157950000Y-66250000D03*
X157950000Y-66750000D03*
X157950000Y-67250000D03*
X157950000Y-67750000D03*
%TD*%
%TO.C,R3*%
G36*
G01*
X160799998Y-64650000D02*
X161700002Y-64650000D01*
G75*
G02*
X161950000Y-64899998I0J-249998D01*
G01*
X161950000Y-65425002D01*
G75*
G02*
X161700002Y-65675000I-249998J0D01*
G01*
X160799998Y-65675000D01*
G75*
G02*
X160550000Y-65425002I0J249998D01*
G01*
X160550000Y-64899998D01*
G75*
G02*
X160799998Y-64650000I249998J0D01*
G01*
G37*
G36*
G01*
X160799998Y-62825000D02*
X161700002Y-62825000D01*
G75*
G02*
X161950000Y-63074998I0J-249998D01*
G01*
X161950000Y-63600002D01*
G75*
G02*
X161700002Y-63850000I-249998J0D01*
G01*
X160799998Y-63850000D01*
G75*
G02*
X160550000Y-63600002I0J249998D01*
G01*
X160550000Y-63074998D01*
G75*
G02*
X160799998Y-62825000I249998J0D01*
G01*
G37*
%TD*%
%TO.C,R2*%
G36*
G01*
X161700002Y-68100000D02*
X160799998Y-68100000D01*
G75*
G02*
X160550000Y-67850002I0J249998D01*
G01*
X160550000Y-67324998D01*
G75*
G02*
X160799998Y-67075000I249998J0D01*
G01*
X161700002Y-67075000D01*
G75*
G02*
X161950000Y-67324998I0J-249998D01*
G01*
X161950000Y-67850002D01*
G75*
G02*
X161700002Y-68100000I-249998J0D01*
G01*
G37*
G36*
G01*
X161700002Y-69925000D02*
X160799998Y-69925000D01*
G75*
G02*
X160550000Y-69675002I0J249998D01*
G01*
X160550000Y-69149998D01*
G75*
G02*
X160799998Y-68900000I249998J0D01*
G01*
X161700002Y-68900000D01*
G75*
G02*
X161950000Y-69149998I0J-249998D01*
G01*
X161950000Y-69675002D01*
G75*
G02*
X161700002Y-69925000I-249998J0D01*
G01*
G37*
%TD*%
%TO.C,R1*%
G36*
G01*
X146124998Y-68187500D02*
X147375002Y-68187500D01*
G75*
G02*
X147625000Y-68437498I0J-249998D01*
G01*
X147625000Y-69062502D01*
G75*
G02*
X147375002Y-69312500I-249998J0D01*
G01*
X146124998Y-69312500D01*
G75*
G02*
X145875000Y-69062502I0J249998D01*
G01*
X145875000Y-68437498D01*
G75*
G02*
X146124998Y-68187500I249998J0D01*
G01*
G37*
G36*
G01*
X146124998Y-65262500D02*
X147375002Y-65262500D01*
G75*
G02*
X147625000Y-65512498I0J-249998D01*
G01*
X147625000Y-66137502D01*
G75*
G02*
X147375002Y-66387500I-249998J0D01*
G01*
X146124998Y-66387500D01*
G75*
G02*
X145875000Y-66137502I0J249998D01*
G01*
X145875000Y-65512498D01*
G75*
G02*
X146124998Y-65262500I249998J0D01*
G01*
G37*
%TD*%
%TO.C,C1*%
G36*
G01*
X156000000Y-63725000D02*
X156000000Y-62775000D01*
G75*
G02*
X156250000Y-62525000I250000J0D01*
G01*
X156750000Y-62525000D01*
G75*
G02*
X157000000Y-62775000I0J-250000D01*
G01*
X157000000Y-63725000D01*
G75*
G02*
X156750000Y-63975000I-250000J0D01*
G01*
X156250000Y-63975000D01*
G75*
G02*
X156000000Y-63725000I0J250000D01*
G01*
G37*
G36*
G01*
X154100000Y-63725000D02*
X154100000Y-62775000D01*
G75*
G02*
X154350000Y-62525000I250000J0D01*
G01*
X154850000Y-62525000D01*
G75*
G02*
X155100000Y-62775000I0J-250000D01*
G01*
X155100000Y-63725000D01*
G75*
G02*
X154850000Y-63975000I-250000J0D01*
G01*
X154350000Y-63975000D01*
G75*
G02*
X154100000Y-63725000I0J250000D01*
G01*
G37*
%TD*%
%TO.C,U1*%
X153550000Y-81750000D03*
X153550000Y-81250000D03*
X153550000Y-80750000D03*
X153550000Y-80250000D03*
X153550000Y-79750000D03*
X157950000Y-79750000D03*
X157950000Y-80250000D03*
X157950000Y-80750000D03*
X157950000Y-81250000D03*
X157950000Y-81750000D03*
%TD*%
%TO.C,R3*%
G36*
G01*
X160799998Y-78650000D02*
X161700002Y-78650000D01*
G75*
G02*
X161950000Y-78899998I0J-249998D01*
G01*
X161950000Y-79425002D01*
G75*
G02*
X161700002Y-79675000I-249998J0D01*
G01*
X160799998Y-79675000D01*
G75*
G02*
X160550000Y-79425002I0J249998D01*
G01*
X160550000Y-78899998D01*
G75*
G02*
X160799998Y-78650000I249998J0D01*
G01*
G37*
G36*
G01*
X160799998Y-76825000D02*
X161700002Y-76825000D01*
G75*
G02*
X161950000Y-77074998I0J-249998D01*
G01*
X161950000Y-77600002D01*
G75*
G02*
X161700002Y-77850000I-249998J0D01*
G01*
X160799998Y-77850000D01*
G75*
G02*
X160550000Y-77600002I0J249998D01*
G01*
X160550000Y-77074998D01*
G75*
G02*
X160799998Y-76825000I249998J0D01*
G01*
G37*
%TD*%
%TO.C,R2*%
G36*
G01*
X161700002Y-82100000D02*
X160799998Y-82100000D01*
G75*
G02*
X160550000Y-81850002I0J249998D01*
G01*
X160550000Y-81324998D01*
G75*
G02*
X160799998Y-81075000I249998J0D01*
G01*
X161700002Y-81075000D01*
G75*
G02*
X161950000Y-81324998I0J-249998D01*
G01*
X161950000Y-81850002D01*
G75*
G02*
X161700002Y-82100000I-249998J0D01*
G01*
G37*
G36*
G01*
X161700002Y-83925000D02*
X160799998Y-83925000D01*
G75*
G02*
X160550000Y-83675002I0J249998D01*
G01*
X160550000Y-83149998D01*
G75*
G02*
X160799998Y-82900000I249998J0D01*
G01*
X161700002Y-82900000D01*
G75*
G02*
X161950000Y-83149998I0J-249998D01*
G01*
X161950000Y-83675002D01*
G75*
G02*
X161700002Y-83925000I-249998J0D01*
G01*
G37*
%TD*%
%TO.C,R1*%
G36*
G01*
X146124998Y-82187500D02*
X147375002Y-82187500D01*
G75*
G02*
X147625000Y-82437498I0J-249998D01*
G01*
X147625000Y-83062502D01*
G75*
G02*
X147375002Y-83312500I-249998J0D01*
G01*
X146124998Y-83312500D01*
G75*
G02*
X145875000Y-83062502I0J249998D01*
G01*
X145875000Y-82437498D01*
G75*
G02*
X146124998Y-82187500I249998J0D01*
G01*
G37*
G36*
G01*
X146124998Y-79262500D02*
X147375002Y-79262500D01*
G75*
G02*
X147625000Y-79512498I0J-249998D01*
G01*
X147625000Y-80137502D01*
G75*
G02*
X147375002Y-80387500I-249998J0D01*
G01*
X146124998Y-80387500D01*
G75*
G02*
X145875000Y-80137502I0J249998D01*
G01*
X145875000Y-79512498D01*
G75*
G02*
X146124998Y-79262500I249998J0D01*
G01*
G37*
%TD*%
%TO.C,C1*%
G36*
G01*
X156000000Y-77725000D02*
X156000000Y-76775000D01*
G75*
G02*
X156250000Y-76525000I250000J0D01*
G01*
X156750000Y-76525000D01*
G75*
G02*
X157000000Y-76775000I0J-250000D01*
G01*
X157000000Y-77725000D01*
G75*
G02*
X156750000Y-77975000I-250000J0D01*
G01*
X156250000Y-77975000D01*
G75*
G02*
X156000000Y-77725000I0J250000D01*
G01*
G37*
G36*
G01*
X154100000Y-77725000D02*
X154100000Y-76775000D01*
G75*
G02*
X154350000Y-76525000I250000J0D01*
G01*
X154850000Y-76525000D01*
G75*
G02*
X155100000Y-76775000I0J-250000D01*
G01*
X155100000Y-77725000D01*
G75*
G02*
X154850000Y-77975000I-250000J0D01*
G01*
X154350000Y-77975000D01*
G75*
G02*
X154100000Y-77725000I0J250000D01*
G01*
G37*
%TD*%
%TO.C,U1*%
X117550000Y-95750000D03*
X117550000Y-95250000D03*
X117550000Y-94750000D03*
X117550000Y-94250000D03*
X117550000Y-93750000D03*
X121950000Y-93750000D03*
X121950000Y-94250000D03*
X121950000Y-94750000D03*
X121950000Y-95250000D03*
X121950000Y-95750000D03*
%TD*%
%TO.C,R3*%
G36*
G01*
X124799998Y-92650000D02*
X125700002Y-92650000D01*
G75*
G02*
X125950000Y-92899998I0J-249998D01*
G01*
X125950000Y-93425002D01*
G75*
G02*
X125700002Y-93675000I-249998J0D01*
G01*
X124799998Y-93675000D01*
G75*
G02*
X124550000Y-93425002I0J249998D01*
G01*
X124550000Y-92899998D01*
G75*
G02*
X124799998Y-92650000I249998J0D01*
G01*
G37*
G36*
G01*
X124799998Y-90825000D02*
X125700002Y-90825000D01*
G75*
G02*
X125950000Y-91074998I0J-249998D01*
G01*
X125950000Y-91600002D01*
G75*
G02*
X125700002Y-91850000I-249998J0D01*
G01*
X124799998Y-91850000D01*
G75*
G02*
X124550000Y-91600002I0J249998D01*
G01*
X124550000Y-91074998D01*
G75*
G02*
X124799998Y-90825000I249998J0D01*
G01*
G37*
%TD*%
%TO.C,R2*%
G36*
G01*
X125700002Y-96100000D02*
X124799998Y-96100000D01*
G75*
G02*
X124550000Y-95850002I0J249998D01*
G01*
X124550000Y-95324998D01*
G75*
G02*
X124799998Y-95075000I249998J0D01*
G01*
X125700002Y-95075000D01*
G75*
G02*
X125950000Y-95324998I0J-249998D01*
G01*
X125950000Y-95850002D01*
G75*
G02*
X125700002Y-96100000I-249998J0D01*
G01*
G37*
G36*
G01*
X125700002Y-97925000D02*
X124799998Y-97925000D01*
G75*
G02*
X124550000Y-97675002I0J249998D01*
G01*
X124550000Y-97149998D01*
G75*
G02*
X124799998Y-96900000I249998J0D01*
G01*
X125700002Y-96900000D01*
G75*
G02*
X125950000Y-97149998I0J-249998D01*
G01*
X125950000Y-97675002D01*
G75*
G02*
X125700002Y-97925000I-249998J0D01*
G01*
G37*
%TD*%
%TO.C,R1*%
G36*
G01*
X110124998Y-96187500D02*
X111375002Y-96187500D01*
G75*
G02*
X111625000Y-96437498I0J-249998D01*
G01*
X111625000Y-97062502D01*
G75*
G02*
X111375002Y-97312500I-249998J0D01*
G01*
X110124998Y-97312500D01*
G75*
G02*
X109875000Y-97062502I0J249998D01*
G01*
X109875000Y-96437498D01*
G75*
G02*
X110124998Y-96187500I249998J0D01*
G01*
G37*
G36*
G01*
X110124998Y-93262500D02*
X111375002Y-93262500D01*
G75*
G02*
X111625000Y-93512498I0J-249998D01*
G01*
X111625000Y-94137502D01*
G75*
G02*
X111375002Y-94387500I-249998J0D01*
G01*
X110124998Y-94387500D01*
G75*
G02*
X109875000Y-94137502I0J249998D01*
G01*
X109875000Y-93512498D01*
G75*
G02*
X110124998Y-93262500I249998J0D01*
G01*
G37*
%TD*%
%TO.C,C1*%
G36*
G01*
X120000000Y-91725000D02*
X120000000Y-90775000D01*
G75*
G02*
X120250000Y-90525000I250000J0D01*
G01*
X120750000Y-90525000D01*
G75*
G02*
X121000000Y-90775000I0J-250000D01*
G01*
X121000000Y-91725000D01*
G75*
G02*
X120750000Y-91975000I-250000J0D01*
G01*
X120250000Y-91975000D01*
G75*
G02*
X120000000Y-91725000I0J250000D01*
G01*
G37*
G36*
G01*
X118100000Y-91725000D02*
X118100000Y-90775000D01*
G75*
G02*
X118350000Y-90525000I250000J0D01*
G01*
X118850000Y-90525000D01*
G75*
G02*
X119100000Y-90775000I0J-250000D01*
G01*
X119100000Y-91725000D01*
G75*
G02*
X118850000Y-91975000I-250000J0D01*
G01*
X118350000Y-91975000D01*
G75*
G02*
X118100000Y-91725000I0J250000D01*
G01*
G37*
%TD*%
%TO.C,U1*%
X153550000Y-95750000D03*
X153550000Y-95250000D03*
X153550000Y-94750000D03*
X153550000Y-94250000D03*
X153550000Y-93750000D03*
X157950000Y-93750000D03*
X157950000Y-94250000D03*
X157950000Y-94750000D03*
X157950000Y-95250000D03*
X157950000Y-95750000D03*
%TD*%
%TO.C,R3*%
G36*
G01*
X160799998Y-92650000D02*
X161700002Y-92650000D01*
G75*
G02*
X161950000Y-92899998I0J-249998D01*
G01*
X161950000Y-93425002D01*
G75*
G02*
X161700002Y-93675000I-249998J0D01*
G01*
X160799998Y-93675000D01*
G75*
G02*
X160550000Y-93425002I0J249998D01*
G01*
X160550000Y-92899998D01*
G75*
G02*
X160799998Y-92650000I249998J0D01*
G01*
G37*
G36*
G01*
X160799998Y-90825000D02*
X161700002Y-90825000D01*
G75*
G02*
X161950000Y-91074998I0J-249998D01*
G01*
X161950000Y-91600002D01*
G75*
G02*
X161700002Y-91850000I-249998J0D01*
G01*
X160799998Y-91850000D01*
G75*
G02*
X160550000Y-91600002I0J249998D01*
G01*
X160550000Y-91074998D01*
G75*
G02*
X160799998Y-90825000I249998J0D01*
G01*
G37*
%TD*%
%TO.C,R2*%
G36*
G01*
X161700002Y-96100000D02*
X160799998Y-96100000D01*
G75*
G02*
X160550000Y-95850002I0J249998D01*
G01*
X160550000Y-95324998D01*
G75*
G02*
X160799998Y-95075000I249998J0D01*
G01*
X161700002Y-95075000D01*
G75*
G02*
X161950000Y-95324998I0J-249998D01*
G01*
X161950000Y-95850002D01*
G75*
G02*
X161700002Y-96100000I-249998J0D01*
G01*
G37*
G36*
G01*
X161700002Y-97925000D02*
X160799998Y-97925000D01*
G75*
G02*
X160550000Y-97675002I0J249998D01*
G01*
X160550000Y-97149998D01*
G75*
G02*
X160799998Y-96900000I249998J0D01*
G01*
X161700002Y-96900000D01*
G75*
G02*
X161950000Y-97149998I0J-249998D01*
G01*
X161950000Y-97675002D01*
G75*
G02*
X161700002Y-97925000I-249998J0D01*
G01*
G37*
%TD*%
%TO.C,R1*%
G36*
G01*
X146124998Y-96187500D02*
X147375002Y-96187500D01*
G75*
G02*
X147625000Y-96437498I0J-249998D01*
G01*
X147625000Y-97062502D01*
G75*
G02*
X147375002Y-97312500I-249998J0D01*
G01*
X146124998Y-97312500D01*
G75*
G02*
X145875000Y-97062502I0J249998D01*
G01*
X145875000Y-96437498D01*
G75*
G02*
X146124998Y-96187500I249998J0D01*
G01*
G37*
G36*
G01*
X146124998Y-93262500D02*
X147375002Y-93262500D01*
G75*
G02*
X147625000Y-93512498I0J-249998D01*
G01*
X147625000Y-94137502D01*
G75*
G02*
X147375002Y-94387500I-249998J0D01*
G01*
X146124998Y-94387500D01*
G75*
G02*
X145875000Y-94137502I0J249998D01*
G01*
X145875000Y-93512498D01*
G75*
G02*
X146124998Y-93262500I249998J0D01*
G01*
G37*
%TD*%
%TO.C,C1*%
G36*
G01*
X156000000Y-91725000D02*
X156000000Y-90775000D01*
G75*
G02*
X156250000Y-90525000I250000J0D01*
G01*
X156750000Y-90525000D01*
G75*
G02*
X157000000Y-90775000I0J-250000D01*
G01*
X157000000Y-91725000D01*
G75*
G02*
X156750000Y-91975000I-250000J0D01*
G01*
X156250000Y-91975000D01*
G75*
G02*
X156000000Y-91725000I0J250000D01*
G01*
G37*
G36*
G01*
X154100000Y-91725000D02*
X154100000Y-90775000D01*
G75*
G02*
X154350000Y-90525000I250000J0D01*
G01*
X154850000Y-90525000D01*
G75*
G02*
X155100000Y-90775000I0J-250000D01*
G01*
X155100000Y-91725000D01*
G75*
G02*
X154850000Y-91975000I-250000J0D01*
G01*
X154350000Y-91975000D01*
G75*
G02*
X154100000Y-91725000I0J250000D01*
G01*
G37*
%TD*%
%TO.C,U1*%
X117550000Y-109750000D03*
X117550000Y-109250000D03*
X117550000Y-108750000D03*
X117550000Y-108250000D03*
X117550000Y-107750000D03*
X121950000Y-107750000D03*
X121950000Y-108250000D03*
X121950000Y-108750000D03*
X121950000Y-109250000D03*
X121950000Y-109750000D03*
%TD*%
%TO.C,R3*%
G36*
G01*
X124799998Y-106650000D02*
X125700002Y-106650000D01*
G75*
G02*
X125950000Y-106899998I0J-249998D01*
G01*
X125950000Y-107425002D01*
G75*
G02*
X125700002Y-107675000I-249998J0D01*
G01*
X124799998Y-107675000D01*
G75*
G02*
X124550000Y-107425002I0J249998D01*
G01*
X124550000Y-106899998D01*
G75*
G02*
X124799998Y-106650000I249998J0D01*
G01*
G37*
G36*
G01*
X124799998Y-104825000D02*
X125700002Y-104825000D01*
G75*
G02*
X125950000Y-105074998I0J-249998D01*
G01*
X125950000Y-105600002D01*
G75*
G02*
X125700002Y-105850000I-249998J0D01*
G01*
X124799998Y-105850000D01*
G75*
G02*
X124550000Y-105600002I0J249998D01*
G01*
X124550000Y-105074998D01*
G75*
G02*
X124799998Y-104825000I249998J0D01*
G01*
G37*
%TD*%
%TO.C,R2*%
G36*
G01*
X125700002Y-110100000D02*
X124799998Y-110100000D01*
G75*
G02*
X124550000Y-109850002I0J249998D01*
G01*
X124550000Y-109324998D01*
G75*
G02*
X124799998Y-109075000I249998J0D01*
G01*
X125700002Y-109075000D01*
G75*
G02*
X125950000Y-109324998I0J-249998D01*
G01*
X125950000Y-109850002D01*
G75*
G02*
X125700002Y-110100000I-249998J0D01*
G01*
G37*
G36*
G01*
X125700002Y-111925000D02*
X124799998Y-111925000D01*
G75*
G02*
X124550000Y-111675002I0J249998D01*
G01*
X124550000Y-111149998D01*
G75*
G02*
X124799998Y-110900000I249998J0D01*
G01*
X125700002Y-110900000D01*
G75*
G02*
X125950000Y-111149998I0J-249998D01*
G01*
X125950000Y-111675002D01*
G75*
G02*
X125700002Y-111925000I-249998J0D01*
G01*
G37*
%TD*%
%TO.C,R1*%
G36*
G01*
X110124998Y-110187500D02*
X111375002Y-110187500D01*
G75*
G02*
X111625000Y-110437498I0J-249998D01*
G01*
X111625000Y-111062502D01*
G75*
G02*
X111375002Y-111312500I-249998J0D01*
G01*
X110124998Y-111312500D01*
G75*
G02*
X109875000Y-111062502I0J249998D01*
G01*
X109875000Y-110437498D01*
G75*
G02*
X110124998Y-110187500I249998J0D01*
G01*
G37*
G36*
G01*
X110124998Y-107262500D02*
X111375002Y-107262500D01*
G75*
G02*
X111625000Y-107512498I0J-249998D01*
G01*
X111625000Y-108137502D01*
G75*
G02*
X111375002Y-108387500I-249998J0D01*
G01*
X110124998Y-108387500D01*
G75*
G02*
X109875000Y-108137502I0J249998D01*
G01*
X109875000Y-107512498D01*
G75*
G02*
X110124998Y-107262500I249998J0D01*
G01*
G37*
%TD*%
%TO.C,C1*%
G36*
G01*
X120000000Y-105725000D02*
X120000000Y-104775000D01*
G75*
G02*
X120250000Y-104525000I250000J0D01*
G01*
X120750000Y-104525000D01*
G75*
G02*
X121000000Y-104775000I0J-250000D01*
G01*
X121000000Y-105725000D01*
G75*
G02*
X120750000Y-105975000I-250000J0D01*
G01*
X120250000Y-105975000D01*
G75*
G02*
X120000000Y-105725000I0J250000D01*
G01*
G37*
G36*
G01*
X118100000Y-105725000D02*
X118100000Y-104775000D01*
G75*
G02*
X118350000Y-104525000I250000J0D01*
G01*
X118850000Y-104525000D01*
G75*
G02*
X119100000Y-104775000I0J-250000D01*
G01*
X119100000Y-105725000D01*
G75*
G02*
X118850000Y-105975000I-250000J0D01*
G01*
X118350000Y-105975000D01*
G75*
G02*
X118100000Y-105725000I0J250000D01*
G01*
G37*
%TD*%
%TO.C,U1*%
X153550000Y-109750000D03*
X153550000Y-109250000D03*
X153550000Y-108750000D03*
X153550000Y-108250000D03*
X153550000Y-107750000D03*
X157950000Y-107750000D03*
X157950000Y-108250000D03*
X157950000Y-108750000D03*
X157950000Y-109250000D03*
X157950000Y-109750000D03*
%TD*%
%TO.C,R3*%
G36*
G01*
X160799998Y-106650000D02*
X161700002Y-106650000D01*
G75*
G02*
X161950000Y-106899998I0J-249998D01*
G01*
X161950000Y-107425002D01*
G75*
G02*
X161700002Y-107675000I-249998J0D01*
G01*
X160799998Y-107675000D01*
G75*
G02*
X160550000Y-107425002I0J249998D01*
G01*
X160550000Y-106899998D01*
G75*
G02*
X160799998Y-106650000I249998J0D01*
G01*
G37*
G36*
G01*
X160799998Y-104825000D02*
X161700002Y-104825000D01*
G75*
G02*
X161950000Y-105074998I0J-249998D01*
G01*
X161950000Y-105600002D01*
G75*
G02*
X161700002Y-105850000I-249998J0D01*
G01*
X160799998Y-105850000D01*
G75*
G02*
X160550000Y-105600002I0J249998D01*
G01*
X160550000Y-105074998D01*
G75*
G02*
X160799998Y-104825000I249998J0D01*
G01*
G37*
%TD*%
%TO.C,R2*%
G36*
G01*
X161700002Y-110100000D02*
X160799998Y-110100000D01*
G75*
G02*
X160550000Y-109850002I0J249998D01*
G01*
X160550000Y-109324998D01*
G75*
G02*
X160799998Y-109075000I249998J0D01*
G01*
X161700002Y-109075000D01*
G75*
G02*
X161950000Y-109324998I0J-249998D01*
G01*
X161950000Y-109850002D01*
G75*
G02*
X161700002Y-110100000I-249998J0D01*
G01*
G37*
G36*
G01*
X161700002Y-111925000D02*
X160799998Y-111925000D01*
G75*
G02*
X160550000Y-111675002I0J249998D01*
G01*
X160550000Y-111149998D01*
G75*
G02*
X160799998Y-110900000I249998J0D01*
G01*
X161700002Y-110900000D01*
G75*
G02*
X161950000Y-111149998I0J-249998D01*
G01*
X161950000Y-111675002D01*
G75*
G02*
X161700002Y-111925000I-249998J0D01*
G01*
G37*
%TD*%
%TO.C,R1*%
G36*
G01*
X146124998Y-110187500D02*
X147375002Y-110187500D01*
G75*
G02*
X147625000Y-110437498I0J-249998D01*
G01*
X147625000Y-111062502D01*
G75*
G02*
X147375002Y-111312500I-249998J0D01*
G01*
X146124998Y-111312500D01*
G75*
G02*
X145875000Y-111062502I0J249998D01*
G01*
X145875000Y-110437498D01*
G75*
G02*
X146124998Y-110187500I249998J0D01*
G01*
G37*
G36*
G01*
X146124998Y-107262500D02*
X147375002Y-107262500D01*
G75*
G02*
X147625000Y-107512498I0J-249998D01*
G01*
X147625000Y-108137502D01*
G75*
G02*
X147375002Y-108387500I-249998J0D01*
G01*
X146124998Y-108387500D01*
G75*
G02*
X145875000Y-108137502I0J249998D01*
G01*
X145875000Y-107512498D01*
G75*
G02*
X146124998Y-107262500I249998J0D01*
G01*
G37*
%TD*%
%TO.C,C1*%
G36*
G01*
X156000000Y-105725000D02*
X156000000Y-104775000D01*
G75*
G02*
X156250000Y-104525000I250000J0D01*
G01*
X156750000Y-104525000D01*
G75*
G02*
X157000000Y-104775000I0J-250000D01*
G01*
X157000000Y-105725000D01*
G75*
G02*
X156750000Y-105975000I-250000J0D01*
G01*
X156250000Y-105975000D01*
G75*
G02*
X156000000Y-105725000I0J250000D01*
G01*
G37*
G36*
G01*
X154100000Y-105725000D02*
X154100000Y-104775000D01*
G75*
G02*
X154350000Y-104525000I250000J0D01*
G01*
X154850000Y-104525000D01*
G75*
G02*
X155100000Y-104775000I0J-250000D01*
G01*
X155100000Y-105725000D01*
G75*
G02*
X154850000Y-105975000I-250000J0D01*
G01*
X154350000Y-105975000D01*
G75*
G02*
X154100000Y-105725000I0J250000D01*
G01*
G37*
%TD*%
%TO.C,U1*%
X117550000Y-123750000D03*
X117550000Y-123250000D03*
X117550000Y-122750000D03*
X117550000Y-122250000D03*
X117550000Y-121750000D03*
X121950000Y-121750000D03*
X121950000Y-122250000D03*
X121950000Y-122750000D03*
X121950000Y-123250000D03*
X121950000Y-123750000D03*
%TD*%
%TO.C,R3*%
G36*
G01*
X124799998Y-120650000D02*
X125700002Y-120650000D01*
G75*
G02*
X125950000Y-120899998I0J-249998D01*
G01*
X125950000Y-121425002D01*
G75*
G02*
X125700002Y-121675000I-249998J0D01*
G01*
X124799998Y-121675000D01*
G75*
G02*
X124550000Y-121425002I0J249998D01*
G01*
X124550000Y-120899998D01*
G75*
G02*
X124799998Y-120650000I249998J0D01*
G01*
G37*
G36*
G01*
X124799998Y-118825000D02*
X125700002Y-118825000D01*
G75*
G02*
X125950000Y-119074998I0J-249998D01*
G01*
X125950000Y-119600002D01*
G75*
G02*
X125700002Y-119850000I-249998J0D01*
G01*
X124799998Y-119850000D01*
G75*
G02*
X124550000Y-119600002I0J249998D01*
G01*
X124550000Y-119074998D01*
G75*
G02*
X124799998Y-118825000I249998J0D01*
G01*
G37*
%TD*%
%TO.C,R2*%
G36*
G01*
X125700002Y-124100000D02*
X124799998Y-124100000D01*
G75*
G02*
X124550000Y-123850002I0J249998D01*
G01*
X124550000Y-123324998D01*
G75*
G02*
X124799998Y-123075000I249998J0D01*
G01*
X125700002Y-123075000D01*
G75*
G02*
X125950000Y-123324998I0J-249998D01*
G01*
X125950000Y-123850002D01*
G75*
G02*
X125700002Y-124100000I-249998J0D01*
G01*
G37*
G36*
G01*
X125700002Y-125925000D02*
X124799998Y-125925000D01*
G75*
G02*
X124550000Y-125675002I0J249998D01*
G01*
X124550000Y-125149998D01*
G75*
G02*
X124799998Y-124900000I249998J0D01*
G01*
X125700002Y-124900000D01*
G75*
G02*
X125950000Y-125149998I0J-249998D01*
G01*
X125950000Y-125675002D01*
G75*
G02*
X125700002Y-125925000I-249998J0D01*
G01*
G37*
%TD*%
%TO.C,R1*%
G36*
G01*
X110124998Y-124187500D02*
X111375002Y-124187500D01*
G75*
G02*
X111625000Y-124437498I0J-249998D01*
G01*
X111625000Y-125062502D01*
G75*
G02*
X111375002Y-125312500I-249998J0D01*
G01*
X110124998Y-125312500D01*
G75*
G02*
X109875000Y-125062502I0J249998D01*
G01*
X109875000Y-124437498D01*
G75*
G02*
X110124998Y-124187500I249998J0D01*
G01*
G37*
G36*
G01*
X110124998Y-121262500D02*
X111375002Y-121262500D01*
G75*
G02*
X111625000Y-121512498I0J-249998D01*
G01*
X111625000Y-122137502D01*
G75*
G02*
X111375002Y-122387500I-249998J0D01*
G01*
X110124998Y-122387500D01*
G75*
G02*
X109875000Y-122137502I0J249998D01*
G01*
X109875000Y-121512498D01*
G75*
G02*
X110124998Y-121262500I249998J0D01*
G01*
G37*
%TD*%
%TO.C,C1*%
G36*
G01*
X120000000Y-119725000D02*
X120000000Y-118775000D01*
G75*
G02*
X120250000Y-118525000I250000J0D01*
G01*
X120750000Y-118525000D01*
G75*
G02*
X121000000Y-118775000I0J-250000D01*
G01*
X121000000Y-119725000D01*
G75*
G02*
X120750000Y-119975000I-250000J0D01*
G01*
X120250000Y-119975000D01*
G75*
G02*
X120000000Y-119725000I0J250000D01*
G01*
G37*
G36*
G01*
X118100000Y-119725000D02*
X118100000Y-118775000D01*
G75*
G02*
X118350000Y-118525000I250000J0D01*
G01*
X118850000Y-118525000D01*
G75*
G02*
X119100000Y-118775000I0J-250000D01*
G01*
X119100000Y-119725000D01*
G75*
G02*
X118850000Y-119975000I-250000J0D01*
G01*
X118350000Y-119975000D01*
G75*
G02*
X118100000Y-119725000I0J250000D01*
G01*
G37*
%TD*%
%TO.C,U1*%
X153550000Y-123750000D03*
X153550000Y-123250000D03*
X153550000Y-122750000D03*
X153550000Y-122250000D03*
X153550000Y-121750000D03*
X157950000Y-121750000D03*
X157950000Y-122250000D03*
X157950000Y-122750000D03*
X157950000Y-123250000D03*
X157950000Y-123750000D03*
%TD*%
%TO.C,R3*%
G36*
G01*
X160799998Y-120650000D02*
X161700002Y-120650000D01*
G75*
G02*
X161950000Y-120899998I0J-249998D01*
G01*
X161950000Y-121425002D01*
G75*
G02*
X161700002Y-121675000I-249998J0D01*
G01*
X160799998Y-121675000D01*
G75*
G02*
X160550000Y-121425002I0J249998D01*
G01*
X160550000Y-120899998D01*
G75*
G02*
X160799998Y-120650000I249998J0D01*
G01*
G37*
G36*
G01*
X160799998Y-118825000D02*
X161700002Y-118825000D01*
G75*
G02*
X161950000Y-119074998I0J-249998D01*
G01*
X161950000Y-119600002D01*
G75*
G02*
X161700002Y-119850000I-249998J0D01*
G01*
X160799998Y-119850000D01*
G75*
G02*
X160550000Y-119600002I0J249998D01*
G01*
X160550000Y-119074998D01*
G75*
G02*
X160799998Y-118825000I249998J0D01*
G01*
G37*
%TD*%
%TO.C,R2*%
G36*
G01*
X161700002Y-124100000D02*
X160799998Y-124100000D01*
G75*
G02*
X160550000Y-123850002I0J249998D01*
G01*
X160550000Y-123324998D01*
G75*
G02*
X160799998Y-123075000I249998J0D01*
G01*
X161700002Y-123075000D01*
G75*
G02*
X161950000Y-123324998I0J-249998D01*
G01*
X161950000Y-123850002D01*
G75*
G02*
X161700002Y-124100000I-249998J0D01*
G01*
G37*
G36*
G01*
X161700002Y-125925000D02*
X160799998Y-125925000D01*
G75*
G02*
X160550000Y-125675002I0J249998D01*
G01*
X160550000Y-125149998D01*
G75*
G02*
X160799998Y-124900000I249998J0D01*
G01*
X161700002Y-124900000D01*
G75*
G02*
X161950000Y-125149998I0J-249998D01*
G01*
X161950000Y-125675002D01*
G75*
G02*
X161700002Y-125925000I-249998J0D01*
G01*
G37*
%TD*%
%TO.C,R1*%
G36*
G01*
X146124998Y-124187500D02*
X147375002Y-124187500D01*
G75*
G02*
X147625000Y-124437498I0J-249998D01*
G01*
X147625000Y-125062502D01*
G75*
G02*
X147375002Y-125312500I-249998J0D01*
G01*
X146124998Y-125312500D01*
G75*
G02*
X145875000Y-125062502I0J249998D01*
G01*
X145875000Y-124437498D01*
G75*
G02*
X146124998Y-124187500I249998J0D01*
G01*
G37*
G36*
G01*
X146124998Y-121262500D02*
X147375002Y-121262500D01*
G75*
G02*
X147625000Y-121512498I0J-249998D01*
G01*
X147625000Y-122137502D01*
G75*
G02*
X147375002Y-122387500I-249998J0D01*
G01*
X146124998Y-122387500D01*
G75*
G02*
X145875000Y-122137502I0J249998D01*
G01*
X145875000Y-121512498D01*
G75*
G02*
X146124998Y-121262500I249998J0D01*
G01*
G37*
%TD*%
%TO.C,C1*%
G36*
G01*
X156000000Y-119725000D02*
X156000000Y-118775000D01*
G75*
G02*
X156250000Y-118525000I250000J0D01*
G01*
X156750000Y-118525000D01*
G75*
G02*
X157000000Y-118775000I0J-250000D01*
G01*
X157000000Y-119725000D01*
G75*
G02*
X156750000Y-119975000I-250000J0D01*
G01*
X156250000Y-119975000D01*
G75*
G02*
X156000000Y-119725000I0J250000D01*
G01*
G37*
G36*
G01*
X154100000Y-119725000D02*
X154100000Y-118775000D01*
G75*
G02*
X154350000Y-118525000I250000J0D01*
G01*
X154850000Y-118525000D01*
G75*
G02*
X155100000Y-118775000I0J-250000D01*
G01*
X155100000Y-119725000D01*
G75*
G02*
X154850000Y-119975000I-250000J0D01*
G01*
X154350000Y-119975000D01*
G75*
G02*
X154100000Y-119725000I0J250000D01*
G01*
G37*
%TD*%
M02*
