%TF.GenerationSoftware,KiCad,Pcbnew,5.1.10*%
%TF.CreationDate,2021-11-07T07:50:52-05:00*%
%TF.ProjectId,CurrentSenseModule-RevB-10p,43757272-656e-4745-9365-6e73654d6f64,rev?*%
%TF.SameCoordinates,Original*%
%TF.FileFunction,Legend,Top*%
%TF.FilePolarity,Positive*%
%FSLAX46Y46*%
G04 Gerber Fmt 4.6, Leading zero omitted, Abs format (unit mm)*
G04 Created by KiCad (PCBNEW 5.1.10) date 2021-11-07 07:50:52*
%MOMM*%
%LPD*%
G01*
G04 APERTURE LIST*
%ADD10C,0.150000*%
%ADD11C,0.110000*%
%ADD12C,0.200000*%
%ADD13C,0.120000*%
%ADD14C,0.100000*%
G04 APERTURE END LIST*
D10*
X106811904Y-69916666D02*
X107383333Y-69916666D01*
X107497619Y-69954761D01*
X107573809Y-70030952D01*
X107611904Y-70145238D01*
X107611904Y-70221428D01*
X107611904Y-69154761D02*
X107611904Y-69535714D01*
X106811904Y-69535714D01*
X107535714Y-68430952D02*
X107573809Y-68469047D01*
X107611904Y-68583333D01*
X107611904Y-68659523D01*
X107573809Y-68773809D01*
X107497619Y-68850000D01*
X107421428Y-68888095D01*
X107269047Y-68926190D01*
X107154761Y-68926190D01*
X107002380Y-68888095D01*
X106926190Y-68850000D01*
X106850000Y-68773809D01*
X106811904Y-68659523D01*
X106811904Y-68583333D01*
X106850000Y-68469047D01*
X106888095Y-68430952D01*
X106811904Y-67859523D02*
X107383333Y-67859523D01*
X107497619Y-67897619D01*
X107573809Y-67973809D01*
X107611904Y-68088095D01*
X107611904Y-68164285D01*
X107611904Y-67097619D02*
X107611904Y-67478571D01*
X106811904Y-67478571D01*
X107535714Y-66373809D02*
X107573809Y-66411904D01*
X107611904Y-66526190D01*
X107611904Y-66602380D01*
X107573809Y-66716666D01*
X107497619Y-66792857D01*
X107421428Y-66830952D01*
X107269047Y-66869047D01*
X107154761Y-66869047D01*
X107002380Y-66830952D01*
X106926190Y-66792857D01*
X106850000Y-66716666D01*
X106811904Y-66602380D01*
X106811904Y-66526190D01*
X106850000Y-66411904D01*
X106888095Y-66373809D01*
X106811904Y-65802380D02*
X107383333Y-65802380D01*
X107497619Y-65840476D01*
X107573809Y-65916666D01*
X107611904Y-66030952D01*
X107611904Y-66107142D01*
X107611904Y-65040476D02*
X107611904Y-65421428D01*
X106811904Y-65421428D01*
X107535714Y-64316666D02*
X107573809Y-64354761D01*
X107611904Y-64469047D01*
X107611904Y-64545238D01*
X107573809Y-64659523D01*
X107497619Y-64735714D01*
X107421428Y-64773809D01*
X107269047Y-64811904D01*
X107154761Y-64811904D01*
X107002380Y-64773809D01*
X106926190Y-64735714D01*
X106850000Y-64659523D01*
X106811904Y-64545238D01*
X106811904Y-64469047D01*
X106850000Y-64354761D01*
X106888095Y-64316666D01*
D11*
X105700000Y-61361904D02*
X105433333Y-60980952D01*
X105242857Y-61361904D02*
X105242857Y-60561904D01*
X105547619Y-60561904D01*
X105623809Y-60600000D01*
X105661904Y-60638095D01*
X105700000Y-60714285D01*
X105700000Y-60828571D01*
X105661904Y-60904761D01*
X105623809Y-60942857D01*
X105547619Y-60980952D01*
X105242857Y-60980952D01*
X106347619Y-61323809D02*
X106271428Y-61361904D01*
X106119047Y-61361904D01*
X106042857Y-61323809D01*
X106004761Y-61247619D01*
X106004761Y-60942857D01*
X106042857Y-60866666D01*
X106119047Y-60828571D01*
X106271428Y-60828571D01*
X106347619Y-60866666D01*
X106385714Y-60942857D01*
X106385714Y-61019047D01*
X106004761Y-61095238D01*
X106652380Y-60828571D02*
X106842857Y-61361904D01*
X107033333Y-60828571D01*
X107604761Y-60942857D02*
X107719047Y-60980952D01*
X107757142Y-61019047D01*
X107795238Y-61095238D01*
X107795238Y-61209523D01*
X107757142Y-61285714D01*
X107719047Y-61323809D01*
X107642857Y-61361904D01*
X107338095Y-61361904D01*
X107338095Y-60561904D01*
X107604761Y-60561904D01*
X107680952Y-60600000D01*
X107719047Y-60638095D01*
X107757142Y-60714285D01*
X107757142Y-60790476D01*
X107719047Y-60866666D01*
X107680952Y-60904761D01*
X107604761Y-60942857D01*
X107338095Y-60942857D01*
D10*
X114964285Y-60502380D02*
X115059523Y-60502380D01*
X115154761Y-60550000D01*
X115202380Y-60597619D01*
X115250000Y-60692857D01*
X115297619Y-60883333D01*
X115297619Y-61121428D01*
X115250000Y-61311904D01*
X115202380Y-61407142D01*
X115154761Y-61454761D01*
X115059523Y-61502380D01*
X114964285Y-61502380D01*
X114869047Y-61454761D01*
X114821428Y-61407142D01*
X114773809Y-61311904D01*
X114726190Y-61121428D01*
X114726190Y-60883333D01*
X114773809Y-60692857D01*
X114821428Y-60597619D01*
X114869047Y-60550000D01*
X114964285Y-60502380D01*
X115726190Y-61121428D02*
X116488095Y-61121428D01*
X117488095Y-61502380D02*
X116916666Y-61502380D01*
X117202380Y-61502380D02*
X117202380Y-60502380D01*
X117107142Y-60645238D01*
X117011904Y-60740476D01*
X116916666Y-60788095D01*
X118107142Y-60502380D02*
X118202380Y-60502380D01*
X118297619Y-60550000D01*
X118345238Y-60597619D01*
X118392857Y-60692857D01*
X118440476Y-60883333D01*
X118440476Y-61121428D01*
X118392857Y-61311904D01*
X118345238Y-61407142D01*
X118297619Y-61454761D01*
X118202380Y-61502380D01*
X118107142Y-61502380D01*
X118011904Y-61454761D01*
X117964285Y-61407142D01*
X117916666Y-61311904D01*
X117869047Y-61121428D01*
X117869047Y-60883333D01*
X117916666Y-60692857D01*
X117964285Y-60597619D01*
X118011904Y-60550000D01*
X118107142Y-60502380D01*
X118821428Y-61216666D02*
X119297619Y-61216666D01*
X118726190Y-61502380D02*
X119059523Y-60502380D01*
X119392857Y-61502380D01*
X120678571Y-60502380D02*
X120773809Y-60502380D01*
X120869047Y-60550000D01*
X120916666Y-60597619D01*
X120964285Y-60692857D01*
X121011904Y-60883333D01*
X121011904Y-61121428D01*
X120964285Y-61311904D01*
X120916666Y-61407142D01*
X120869047Y-61454761D01*
X120773809Y-61502380D01*
X120678571Y-61502380D01*
X120583333Y-61454761D01*
X120535714Y-61407142D01*
X120488095Y-61311904D01*
X120440476Y-61121428D01*
X120440476Y-60883333D01*
X120488095Y-60692857D01*
X120535714Y-60597619D01*
X120583333Y-60550000D01*
X120678571Y-60502380D01*
X121440476Y-61121428D02*
X122202380Y-61121428D01*
X122630952Y-60597619D02*
X122678571Y-60550000D01*
X122773809Y-60502380D01*
X123011904Y-60502380D01*
X123107142Y-60550000D01*
X123154761Y-60597619D01*
X123202380Y-60692857D01*
X123202380Y-60788095D01*
X123154761Y-60930952D01*
X122583333Y-61502380D01*
X123202380Y-61502380D01*
X124059523Y-60502380D02*
X123869047Y-60502380D01*
X123773809Y-60550000D01*
X123726190Y-60597619D01*
X123630952Y-60740476D01*
X123583333Y-60930952D01*
X123583333Y-61311904D01*
X123630952Y-61407142D01*
X123678571Y-61454761D01*
X123773809Y-61502380D01*
X123964285Y-61502380D01*
X124059523Y-61454761D01*
X124107142Y-61407142D01*
X124154761Y-61311904D01*
X124154761Y-61073809D01*
X124107142Y-60978571D01*
X124059523Y-60930952D01*
X123964285Y-60883333D01*
X123773809Y-60883333D01*
X123678571Y-60930952D01*
X123630952Y-60978571D01*
X123583333Y-61073809D01*
X124440476Y-60502380D02*
X124773809Y-61502380D01*
X125107142Y-60502380D01*
X126202380Y-61502380D02*
X126202380Y-60502380D01*
X126440476Y-60502380D01*
X126583333Y-60550000D01*
X126678571Y-60645238D01*
X126726190Y-60740476D01*
X126773809Y-60930952D01*
X126773809Y-61073809D01*
X126726190Y-61264285D01*
X126678571Y-61359523D01*
X126583333Y-61454761D01*
X126440476Y-61502380D01*
X126202380Y-61502380D01*
X127773809Y-61407142D02*
X127726190Y-61454761D01*
X127583333Y-61502380D01*
X127488095Y-61502380D01*
X127345238Y-61454761D01*
X127250000Y-61359523D01*
X127202380Y-61264285D01*
X127154761Y-61073809D01*
X127154761Y-60930952D01*
X127202380Y-60740476D01*
X127250000Y-60645238D01*
X127345238Y-60550000D01*
X127488095Y-60502380D01*
X127583333Y-60502380D01*
X127726190Y-60550000D01*
X127773809Y-60597619D01*
X106428571Y-73952380D02*
X106428571Y-72952380D01*
X106904761Y-73952380D02*
X106904761Y-72952380D01*
X107476190Y-73952380D01*
X107476190Y-72952380D01*
X107904761Y-73666666D02*
X108380952Y-73666666D01*
X107809523Y-73952380D02*
X108142857Y-72952380D01*
X108476190Y-73952380D01*
X108761904Y-73047619D02*
X108809523Y-73000000D01*
X108904761Y-72952380D01*
X109142857Y-72952380D01*
X109238095Y-73000000D01*
X109285714Y-73047619D01*
X109333333Y-73142857D01*
X109333333Y-73238095D01*
X109285714Y-73380952D01*
X108714285Y-73952380D01*
X109333333Y-73952380D01*
X109714285Y-73047619D02*
X109761904Y-73000000D01*
X109857142Y-72952380D01*
X110095238Y-72952380D01*
X110190476Y-73000000D01*
X110238095Y-73047619D01*
X110285714Y-73142857D01*
X110285714Y-73238095D01*
X110238095Y-73380952D01*
X109666666Y-73952380D01*
X110285714Y-73952380D01*
X110904761Y-72952380D02*
X111000000Y-72952380D01*
X111095238Y-73000000D01*
X111142857Y-73047619D01*
X111190476Y-73142857D01*
X111238095Y-73333333D01*
X111238095Y-73571428D01*
X111190476Y-73761904D01*
X111142857Y-73857142D01*
X111095238Y-73904761D01*
X111000000Y-73952380D01*
X110904761Y-73952380D01*
X110809523Y-73904761D01*
X110761904Y-73857142D01*
X110714285Y-73761904D01*
X110666666Y-73571428D01*
X110666666Y-73333333D01*
X110714285Y-73142857D01*
X110761904Y-73047619D01*
X110809523Y-73000000D01*
X110904761Y-72952380D01*
X113000000Y-73857142D02*
X112952380Y-73904761D01*
X112809523Y-73952380D01*
X112714285Y-73952380D01*
X112571428Y-73904761D01*
X112476190Y-73809523D01*
X112428571Y-73714285D01*
X112380952Y-73523809D01*
X112380952Y-73380952D01*
X112428571Y-73190476D01*
X112476190Y-73095238D01*
X112571428Y-73000000D01*
X112714285Y-72952380D01*
X112809523Y-72952380D01*
X112952380Y-73000000D01*
X113000000Y-73047619D01*
X113857142Y-73285714D02*
X113857142Y-73952380D01*
X113428571Y-73285714D02*
X113428571Y-73809523D01*
X113476190Y-73904761D01*
X113571428Y-73952380D01*
X113714285Y-73952380D01*
X113809523Y-73904761D01*
X113857142Y-73857142D01*
X114333333Y-73952380D02*
X114333333Y-73285714D01*
X114333333Y-73476190D02*
X114380952Y-73380952D01*
X114428571Y-73333333D01*
X114523809Y-73285714D01*
X114619047Y-73285714D01*
X114952380Y-73952380D02*
X114952380Y-73285714D01*
X114952380Y-73476190D02*
X115000000Y-73380952D01*
X115047619Y-73333333D01*
X115142857Y-73285714D01*
X115238095Y-73285714D01*
X115952380Y-73904761D02*
X115857142Y-73952380D01*
X115666666Y-73952380D01*
X115571428Y-73904761D01*
X115523809Y-73809523D01*
X115523809Y-73428571D01*
X115571428Y-73333333D01*
X115666666Y-73285714D01*
X115857142Y-73285714D01*
X115952380Y-73333333D01*
X116000000Y-73428571D01*
X116000000Y-73523809D01*
X115523809Y-73619047D01*
X116428571Y-73285714D02*
X116428571Y-73952380D01*
X116428571Y-73380952D02*
X116476190Y-73333333D01*
X116571428Y-73285714D01*
X116714285Y-73285714D01*
X116809523Y-73333333D01*
X116857142Y-73428571D01*
X116857142Y-73952380D01*
X117190476Y-73285714D02*
X117571428Y-73285714D01*
X117333333Y-72952380D02*
X117333333Y-73809523D01*
X117380952Y-73904761D01*
X117476190Y-73952380D01*
X117571428Y-73952380D01*
X118619047Y-73904761D02*
X118761904Y-73952380D01*
X119000000Y-73952380D01*
X119095238Y-73904761D01*
X119142857Y-73857142D01*
X119190476Y-73761904D01*
X119190476Y-73666666D01*
X119142857Y-73571428D01*
X119095238Y-73523809D01*
X119000000Y-73476190D01*
X118809523Y-73428571D01*
X118714285Y-73380952D01*
X118666666Y-73333333D01*
X118619047Y-73238095D01*
X118619047Y-73142857D01*
X118666666Y-73047619D01*
X118714285Y-73000000D01*
X118809523Y-72952380D01*
X119047619Y-72952380D01*
X119190476Y-73000000D01*
X120000000Y-73904761D02*
X119904761Y-73952380D01*
X119714285Y-73952380D01*
X119619047Y-73904761D01*
X119571428Y-73809523D01*
X119571428Y-73428571D01*
X119619047Y-73333333D01*
X119714285Y-73285714D01*
X119904761Y-73285714D01*
X120000000Y-73333333D01*
X120047619Y-73428571D01*
X120047619Y-73523809D01*
X119571428Y-73619047D01*
X120476190Y-73285714D02*
X120476190Y-73952380D01*
X120476190Y-73380952D02*
X120523809Y-73333333D01*
X120619047Y-73285714D01*
X120761904Y-73285714D01*
X120857142Y-73333333D01*
X120904761Y-73428571D01*
X120904761Y-73952380D01*
X121333333Y-73904761D02*
X121428571Y-73952380D01*
X121619047Y-73952380D01*
X121714285Y-73904761D01*
X121761904Y-73809523D01*
X121761904Y-73761904D01*
X121714285Y-73666666D01*
X121619047Y-73619047D01*
X121476190Y-73619047D01*
X121380952Y-73571428D01*
X121333333Y-73476190D01*
X121333333Y-73428571D01*
X121380952Y-73333333D01*
X121476190Y-73285714D01*
X121619047Y-73285714D01*
X121714285Y-73333333D01*
X122571428Y-73904761D02*
X122476190Y-73952380D01*
X122285714Y-73952380D01*
X122190476Y-73904761D01*
X122142857Y-73809523D01*
X122142857Y-73428571D01*
X122190476Y-73333333D01*
X122285714Y-73285714D01*
X122476190Y-73285714D01*
X122571428Y-73333333D01*
X122619047Y-73428571D01*
X122619047Y-73523809D01*
X122142857Y-73619047D01*
X127988095Y-72000000D02*
X127892857Y-71952380D01*
X127750000Y-71952380D01*
X127607142Y-72000000D01*
X127511904Y-72095238D01*
X127464285Y-72190476D01*
X127416666Y-72380952D01*
X127416666Y-72523809D01*
X127464285Y-72714285D01*
X127511904Y-72809523D01*
X127607142Y-72904761D01*
X127750000Y-72952380D01*
X127845238Y-72952380D01*
X127988095Y-72904761D01*
X128035714Y-72857142D01*
X128035714Y-72523809D01*
X127845238Y-72523809D01*
X128464285Y-72952380D02*
X128464285Y-71952380D01*
X129035714Y-72952380D01*
X129035714Y-71952380D01*
X129511904Y-72952380D02*
X129511904Y-71952380D01*
X129750000Y-71952380D01*
X129892857Y-72000000D01*
X129988095Y-72095238D01*
X130035714Y-72190476D01*
X130083333Y-72380952D01*
X130083333Y-72523809D01*
X130035714Y-72714285D01*
X129988095Y-72809523D01*
X129892857Y-72904761D01*
X129750000Y-72952380D01*
X129511904Y-72952380D01*
X126976190Y-69916666D02*
X127452380Y-69916666D01*
X126880952Y-70202380D02*
X127214285Y-69202380D01*
X127547619Y-70202380D01*
X128023809Y-70202380D02*
X127928571Y-70154761D01*
X127880952Y-70059523D01*
X127880952Y-69202380D01*
X128785714Y-70154761D02*
X128690476Y-70202380D01*
X128500000Y-70202380D01*
X128404761Y-70154761D01*
X128357142Y-70059523D01*
X128357142Y-69678571D01*
X128404761Y-69583333D01*
X128500000Y-69535714D01*
X128690476Y-69535714D01*
X128785714Y-69583333D01*
X128833333Y-69678571D01*
X128833333Y-69773809D01*
X128357142Y-69869047D01*
X129261904Y-70202380D02*
X129261904Y-69535714D01*
X129261904Y-69726190D02*
X129309523Y-69630952D01*
X129357142Y-69583333D01*
X129452380Y-69535714D01*
X129547619Y-69535714D01*
X129738095Y-69535714D02*
X130119047Y-69535714D01*
X129880952Y-69202380D02*
X129880952Y-70059523D01*
X129928571Y-70154761D01*
X130023809Y-70202380D01*
X130119047Y-70202380D01*
X127559523Y-67654761D02*
X127702380Y-67702380D01*
X127940476Y-67702380D01*
X128035714Y-67654761D01*
X128083333Y-67607142D01*
X128130952Y-67511904D01*
X128130952Y-67416666D01*
X128083333Y-67321428D01*
X128035714Y-67273809D01*
X127940476Y-67226190D01*
X127750000Y-67178571D01*
X127654761Y-67130952D01*
X127607142Y-67083333D01*
X127559523Y-66988095D01*
X127559523Y-66892857D01*
X127607142Y-66797619D01*
X127654761Y-66750000D01*
X127750000Y-66702380D01*
X127988095Y-66702380D01*
X128130952Y-66750000D01*
X129130952Y-67607142D02*
X129083333Y-67654761D01*
X128940476Y-67702380D01*
X128845238Y-67702380D01*
X128702380Y-67654761D01*
X128607142Y-67559523D01*
X128559523Y-67464285D01*
X128511904Y-67273809D01*
X128511904Y-67130952D01*
X128559523Y-66940476D01*
X128607142Y-66845238D01*
X128702380Y-66750000D01*
X128845238Y-66702380D01*
X128940476Y-66702380D01*
X129083333Y-66750000D01*
X129130952Y-66797619D01*
X130035714Y-67702380D02*
X129559523Y-67702380D01*
X129559523Y-66702380D01*
X127535714Y-65154761D02*
X127678571Y-65202380D01*
X127916666Y-65202380D01*
X128011904Y-65154761D01*
X128059523Y-65107142D01*
X128107142Y-65011904D01*
X128107142Y-64916666D01*
X128059523Y-64821428D01*
X128011904Y-64773809D01*
X127916666Y-64726190D01*
X127726190Y-64678571D01*
X127630952Y-64630952D01*
X127583333Y-64583333D01*
X127535714Y-64488095D01*
X127535714Y-64392857D01*
X127583333Y-64297619D01*
X127630952Y-64250000D01*
X127726190Y-64202380D01*
X127964285Y-64202380D01*
X128107142Y-64250000D01*
X128535714Y-65202380D02*
X128535714Y-64202380D01*
X128773809Y-64202380D01*
X128916666Y-64250000D01*
X129011904Y-64345238D01*
X129059523Y-64440476D01*
X129107142Y-64630952D01*
X129107142Y-64773809D01*
X129059523Y-64964285D01*
X129011904Y-65059523D01*
X128916666Y-65154761D01*
X128773809Y-65202380D01*
X128535714Y-65202380D01*
X129488095Y-64916666D02*
X129964285Y-64916666D01*
X129392857Y-65202380D02*
X129726190Y-64202380D01*
X130059523Y-65202380D01*
X128297619Y-61702380D02*
X128630952Y-62702380D01*
X128964285Y-61702380D01*
X129297619Y-62321428D02*
X130059523Y-62321428D01*
X129678571Y-62702380D02*
X129678571Y-61940476D01*
D12*
X101792857Y-73335714D02*
X102707142Y-73335714D01*
X101542857Y-61085714D02*
X102457142Y-61085714D01*
X102000000Y-61542857D02*
X102000000Y-60628571D01*
D11*
X105700000Y-75361904D02*
X105433333Y-74980952D01*
X105242857Y-75361904D02*
X105242857Y-74561904D01*
X105547619Y-74561904D01*
X105623809Y-74600000D01*
X105661904Y-74638095D01*
X105700000Y-74714285D01*
X105700000Y-74828571D01*
X105661904Y-74904761D01*
X105623809Y-74942857D01*
X105547619Y-74980952D01*
X105242857Y-74980952D01*
X106347619Y-75323809D02*
X106271428Y-75361904D01*
X106119047Y-75361904D01*
X106042857Y-75323809D01*
X106004761Y-75247619D01*
X106004761Y-74942857D01*
X106042857Y-74866666D01*
X106119047Y-74828571D01*
X106271428Y-74828571D01*
X106347619Y-74866666D01*
X106385714Y-74942857D01*
X106385714Y-75019047D01*
X106004761Y-75095238D01*
X106652380Y-74828571D02*
X106842857Y-75361904D01*
X107033333Y-74828571D01*
X107604761Y-74942857D02*
X107719047Y-74980952D01*
X107757142Y-75019047D01*
X107795238Y-75095238D01*
X107795238Y-75209523D01*
X107757142Y-75285714D01*
X107719047Y-75323809D01*
X107642857Y-75361904D01*
X107338095Y-75361904D01*
X107338095Y-74561904D01*
X107604761Y-74561904D01*
X107680952Y-74600000D01*
X107719047Y-74638095D01*
X107757142Y-74714285D01*
X107757142Y-74790476D01*
X107719047Y-74866666D01*
X107680952Y-74904761D01*
X107604761Y-74942857D01*
X107338095Y-74942857D01*
D10*
X114964285Y-74502380D02*
X115059523Y-74502380D01*
X115154761Y-74550000D01*
X115202380Y-74597619D01*
X115250000Y-74692857D01*
X115297619Y-74883333D01*
X115297619Y-75121428D01*
X115250000Y-75311904D01*
X115202380Y-75407142D01*
X115154761Y-75454761D01*
X115059523Y-75502380D01*
X114964285Y-75502380D01*
X114869047Y-75454761D01*
X114821428Y-75407142D01*
X114773809Y-75311904D01*
X114726190Y-75121428D01*
X114726190Y-74883333D01*
X114773809Y-74692857D01*
X114821428Y-74597619D01*
X114869047Y-74550000D01*
X114964285Y-74502380D01*
X115726190Y-75121428D02*
X116488095Y-75121428D01*
X117488095Y-75502380D02*
X116916666Y-75502380D01*
X117202380Y-75502380D02*
X117202380Y-74502380D01*
X117107142Y-74645238D01*
X117011904Y-74740476D01*
X116916666Y-74788095D01*
X118107142Y-74502380D02*
X118202380Y-74502380D01*
X118297619Y-74550000D01*
X118345238Y-74597619D01*
X118392857Y-74692857D01*
X118440476Y-74883333D01*
X118440476Y-75121428D01*
X118392857Y-75311904D01*
X118345238Y-75407142D01*
X118297619Y-75454761D01*
X118202380Y-75502380D01*
X118107142Y-75502380D01*
X118011904Y-75454761D01*
X117964285Y-75407142D01*
X117916666Y-75311904D01*
X117869047Y-75121428D01*
X117869047Y-74883333D01*
X117916666Y-74692857D01*
X117964285Y-74597619D01*
X118011904Y-74550000D01*
X118107142Y-74502380D01*
X118821428Y-75216666D02*
X119297619Y-75216666D01*
X118726190Y-75502380D02*
X119059523Y-74502380D01*
X119392857Y-75502380D01*
X120678571Y-74502380D02*
X120773809Y-74502380D01*
X120869047Y-74550000D01*
X120916666Y-74597619D01*
X120964285Y-74692857D01*
X121011904Y-74883333D01*
X121011904Y-75121428D01*
X120964285Y-75311904D01*
X120916666Y-75407142D01*
X120869047Y-75454761D01*
X120773809Y-75502380D01*
X120678571Y-75502380D01*
X120583333Y-75454761D01*
X120535714Y-75407142D01*
X120488095Y-75311904D01*
X120440476Y-75121428D01*
X120440476Y-74883333D01*
X120488095Y-74692857D01*
X120535714Y-74597619D01*
X120583333Y-74550000D01*
X120678571Y-74502380D01*
X121440476Y-75121428D02*
X122202380Y-75121428D01*
X122630952Y-74597619D02*
X122678571Y-74550000D01*
X122773809Y-74502380D01*
X123011904Y-74502380D01*
X123107142Y-74550000D01*
X123154761Y-74597619D01*
X123202380Y-74692857D01*
X123202380Y-74788095D01*
X123154761Y-74930952D01*
X122583333Y-75502380D01*
X123202380Y-75502380D01*
X124059523Y-74502380D02*
X123869047Y-74502380D01*
X123773809Y-74550000D01*
X123726190Y-74597619D01*
X123630952Y-74740476D01*
X123583333Y-74930952D01*
X123583333Y-75311904D01*
X123630952Y-75407142D01*
X123678571Y-75454761D01*
X123773809Y-75502380D01*
X123964285Y-75502380D01*
X124059523Y-75454761D01*
X124107142Y-75407142D01*
X124154761Y-75311904D01*
X124154761Y-75073809D01*
X124107142Y-74978571D01*
X124059523Y-74930952D01*
X123964285Y-74883333D01*
X123773809Y-74883333D01*
X123678571Y-74930952D01*
X123630952Y-74978571D01*
X123583333Y-75073809D01*
X124440476Y-74502380D02*
X124773809Y-75502380D01*
X125107142Y-74502380D01*
X126202380Y-75502380D02*
X126202380Y-74502380D01*
X126440476Y-74502380D01*
X126583333Y-74550000D01*
X126678571Y-74645238D01*
X126726190Y-74740476D01*
X126773809Y-74930952D01*
X126773809Y-75073809D01*
X126726190Y-75264285D01*
X126678571Y-75359523D01*
X126583333Y-75454761D01*
X126440476Y-75502380D01*
X126202380Y-75502380D01*
X127773809Y-75407142D02*
X127726190Y-75454761D01*
X127583333Y-75502380D01*
X127488095Y-75502380D01*
X127345238Y-75454761D01*
X127250000Y-75359523D01*
X127202380Y-75264285D01*
X127154761Y-75073809D01*
X127154761Y-74930952D01*
X127202380Y-74740476D01*
X127250000Y-74645238D01*
X127345238Y-74550000D01*
X127488095Y-74502380D01*
X127583333Y-74502380D01*
X127726190Y-74550000D01*
X127773809Y-74597619D01*
X106428571Y-87952380D02*
X106428571Y-86952380D01*
X106904761Y-87952380D02*
X106904761Y-86952380D01*
X107476190Y-87952380D01*
X107476190Y-86952380D01*
X107904761Y-87666666D02*
X108380952Y-87666666D01*
X107809523Y-87952380D02*
X108142857Y-86952380D01*
X108476190Y-87952380D01*
X108761904Y-87047619D02*
X108809523Y-87000000D01*
X108904761Y-86952380D01*
X109142857Y-86952380D01*
X109238095Y-87000000D01*
X109285714Y-87047619D01*
X109333333Y-87142857D01*
X109333333Y-87238095D01*
X109285714Y-87380952D01*
X108714285Y-87952380D01*
X109333333Y-87952380D01*
X109714285Y-87047619D02*
X109761904Y-87000000D01*
X109857142Y-86952380D01*
X110095238Y-86952380D01*
X110190476Y-87000000D01*
X110238095Y-87047619D01*
X110285714Y-87142857D01*
X110285714Y-87238095D01*
X110238095Y-87380952D01*
X109666666Y-87952380D01*
X110285714Y-87952380D01*
X110904761Y-86952380D02*
X111000000Y-86952380D01*
X111095238Y-87000000D01*
X111142857Y-87047619D01*
X111190476Y-87142857D01*
X111238095Y-87333333D01*
X111238095Y-87571428D01*
X111190476Y-87761904D01*
X111142857Y-87857142D01*
X111095238Y-87904761D01*
X111000000Y-87952380D01*
X110904761Y-87952380D01*
X110809523Y-87904761D01*
X110761904Y-87857142D01*
X110714285Y-87761904D01*
X110666666Y-87571428D01*
X110666666Y-87333333D01*
X110714285Y-87142857D01*
X110761904Y-87047619D01*
X110809523Y-87000000D01*
X110904761Y-86952380D01*
X113000000Y-87857142D02*
X112952380Y-87904761D01*
X112809523Y-87952380D01*
X112714285Y-87952380D01*
X112571428Y-87904761D01*
X112476190Y-87809523D01*
X112428571Y-87714285D01*
X112380952Y-87523809D01*
X112380952Y-87380952D01*
X112428571Y-87190476D01*
X112476190Y-87095238D01*
X112571428Y-87000000D01*
X112714285Y-86952380D01*
X112809523Y-86952380D01*
X112952380Y-87000000D01*
X113000000Y-87047619D01*
X113857142Y-87285714D02*
X113857142Y-87952380D01*
X113428571Y-87285714D02*
X113428571Y-87809523D01*
X113476190Y-87904761D01*
X113571428Y-87952380D01*
X113714285Y-87952380D01*
X113809523Y-87904761D01*
X113857142Y-87857142D01*
X114333333Y-87952380D02*
X114333333Y-87285714D01*
X114333333Y-87476190D02*
X114380952Y-87380952D01*
X114428571Y-87333333D01*
X114523809Y-87285714D01*
X114619047Y-87285714D01*
X114952380Y-87952380D02*
X114952380Y-87285714D01*
X114952380Y-87476190D02*
X115000000Y-87380952D01*
X115047619Y-87333333D01*
X115142857Y-87285714D01*
X115238095Y-87285714D01*
X115952380Y-87904761D02*
X115857142Y-87952380D01*
X115666666Y-87952380D01*
X115571428Y-87904761D01*
X115523809Y-87809523D01*
X115523809Y-87428571D01*
X115571428Y-87333333D01*
X115666666Y-87285714D01*
X115857142Y-87285714D01*
X115952380Y-87333333D01*
X116000000Y-87428571D01*
X116000000Y-87523809D01*
X115523809Y-87619047D01*
X116428571Y-87285714D02*
X116428571Y-87952380D01*
X116428571Y-87380952D02*
X116476190Y-87333333D01*
X116571428Y-87285714D01*
X116714285Y-87285714D01*
X116809523Y-87333333D01*
X116857142Y-87428571D01*
X116857142Y-87952380D01*
X117190476Y-87285714D02*
X117571428Y-87285714D01*
X117333333Y-86952380D02*
X117333333Y-87809523D01*
X117380952Y-87904761D01*
X117476190Y-87952380D01*
X117571428Y-87952380D01*
X118619047Y-87904761D02*
X118761904Y-87952380D01*
X119000000Y-87952380D01*
X119095238Y-87904761D01*
X119142857Y-87857142D01*
X119190476Y-87761904D01*
X119190476Y-87666666D01*
X119142857Y-87571428D01*
X119095238Y-87523809D01*
X119000000Y-87476190D01*
X118809523Y-87428571D01*
X118714285Y-87380952D01*
X118666666Y-87333333D01*
X118619047Y-87238095D01*
X118619047Y-87142857D01*
X118666666Y-87047619D01*
X118714285Y-87000000D01*
X118809523Y-86952380D01*
X119047619Y-86952380D01*
X119190476Y-87000000D01*
X120000000Y-87904761D02*
X119904761Y-87952380D01*
X119714285Y-87952380D01*
X119619047Y-87904761D01*
X119571428Y-87809523D01*
X119571428Y-87428571D01*
X119619047Y-87333333D01*
X119714285Y-87285714D01*
X119904761Y-87285714D01*
X120000000Y-87333333D01*
X120047619Y-87428571D01*
X120047619Y-87523809D01*
X119571428Y-87619047D01*
X120476190Y-87285714D02*
X120476190Y-87952380D01*
X120476190Y-87380952D02*
X120523809Y-87333333D01*
X120619047Y-87285714D01*
X120761904Y-87285714D01*
X120857142Y-87333333D01*
X120904761Y-87428571D01*
X120904761Y-87952380D01*
X121333333Y-87904761D02*
X121428571Y-87952380D01*
X121619047Y-87952380D01*
X121714285Y-87904761D01*
X121761904Y-87809523D01*
X121761904Y-87761904D01*
X121714285Y-87666666D01*
X121619047Y-87619047D01*
X121476190Y-87619047D01*
X121380952Y-87571428D01*
X121333333Y-87476190D01*
X121333333Y-87428571D01*
X121380952Y-87333333D01*
X121476190Y-87285714D01*
X121619047Y-87285714D01*
X121714285Y-87333333D01*
X122571428Y-87904761D02*
X122476190Y-87952380D01*
X122285714Y-87952380D01*
X122190476Y-87904761D01*
X122142857Y-87809523D01*
X122142857Y-87428571D01*
X122190476Y-87333333D01*
X122285714Y-87285714D01*
X122476190Y-87285714D01*
X122571428Y-87333333D01*
X122619047Y-87428571D01*
X122619047Y-87523809D01*
X122142857Y-87619047D01*
X127988095Y-86000000D02*
X127892857Y-85952380D01*
X127750000Y-85952380D01*
X127607142Y-86000000D01*
X127511904Y-86095238D01*
X127464285Y-86190476D01*
X127416666Y-86380952D01*
X127416666Y-86523809D01*
X127464285Y-86714285D01*
X127511904Y-86809523D01*
X127607142Y-86904761D01*
X127750000Y-86952380D01*
X127845238Y-86952380D01*
X127988095Y-86904761D01*
X128035714Y-86857142D01*
X128035714Y-86523809D01*
X127845238Y-86523809D01*
X128464285Y-86952380D02*
X128464285Y-85952380D01*
X129035714Y-86952380D01*
X129035714Y-85952380D01*
X129511904Y-86952380D02*
X129511904Y-85952380D01*
X129750000Y-85952380D01*
X129892857Y-86000000D01*
X129988095Y-86095238D01*
X130035714Y-86190476D01*
X130083333Y-86380952D01*
X130083333Y-86523809D01*
X130035714Y-86714285D01*
X129988095Y-86809523D01*
X129892857Y-86904761D01*
X129750000Y-86952380D01*
X129511904Y-86952380D01*
X126976190Y-83916666D02*
X127452380Y-83916666D01*
X126880952Y-84202380D02*
X127214285Y-83202380D01*
X127547619Y-84202380D01*
X128023809Y-84202380D02*
X127928571Y-84154761D01*
X127880952Y-84059523D01*
X127880952Y-83202380D01*
X128785714Y-84154761D02*
X128690476Y-84202380D01*
X128500000Y-84202380D01*
X128404761Y-84154761D01*
X128357142Y-84059523D01*
X128357142Y-83678571D01*
X128404761Y-83583333D01*
X128500000Y-83535714D01*
X128690476Y-83535714D01*
X128785714Y-83583333D01*
X128833333Y-83678571D01*
X128833333Y-83773809D01*
X128357142Y-83869047D01*
X129261904Y-84202380D02*
X129261904Y-83535714D01*
X129261904Y-83726190D02*
X129309523Y-83630952D01*
X129357142Y-83583333D01*
X129452380Y-83535714D01*
X129547619Y-83535714D01*
X129738095Y-83535714D02*
X130119047Y-83535714D01*
X129880952Y-83202380D02*
X129880952Y-84059523D01*
X129928571Y-84154761D01*
X130023809Y-84202380D01*
X130119047Y-84202380D01*
X127559523Y-81654761D02*
X127702380Y-81702380D01*
X127940476Y-81702380D01*
X128035714Y-81654761D01*
X128083333Y-81607142D01*
X128130952Y-81511904D01*
X128130952Y-81416666D01*
X128083333Y-81321428D01*
X128035714Y-81273809D01*
X127940476Y-81226190D01*
X127750000Y-81178571D01*
X127654761Y-81130952D01*
X127607142Y-81083333D01*
X127559523Y-80988095D01*
X127559523Y-80892857D01*
X127607142Y-80797619D01*
X127654761Y-80750000D01*
X127750000Y-80702380D01*
X127988095Y-80702380D01*
X128130952Y-80750000D01*
X129130952Y-81607142D02*
X129083333Y-81654761D01*
X128940476Y-81702380D01*
X128845238Y-81702380D01*
X128702380Y-81654761D01*
X128607142Y-81559523D01*
X128559523Y-81464285D01*
X128511904Y-81273809D01*
X128511904Y-81130952D01*
X128559523Y-80940476D01*
X128607142Y-80845238D01*
X128702380Y-80750000D01*
X128845238Y-80702380D01*
X128940476Y-80702380D01*
X129083333Y-80750000D01*
X129130952Y-80797619D01*
X130035714Y-81702380D02*
X129559523Y-81702380D01*
X129559523Y-80702380D01*
X127535714Y-79154761D02*
X127678571Y-79202380D01*
X127916666Y-79202380D01*
X128011904Y-79154761D01*
X128059523Y-79107142D01*
X128107142Y-79011904D01*
X128107142Y-78916666D01*
X128059523Y-78821428D01*
X128011904Y-78773809D01*
X127916666Y-78726190D01*
X127726190Y-78678571D01*
X127630952Y-78630952D01*
X127583333Y-78583333D01*
X127535714Y-78488095D01*
X127535714Y-78392857D01*
X127583333Y-78297619D01*
X127630952Y-78250000D01*
X127726190Y-78202380D01*
X127964285Y-78202380D01*
X128107142Y-78250000D01*
X128535714Y-79202380D02*
X128535714Y-78202380D01*
X128773809Y-78202380D01*
X128916666Y-78250000D01*
X129011904Y-78345238D01*
X129059523Y-78440476D01*
X129107142Y-78630952D01*
X129107142Y-78773809D01*
X129059523Y-78964285D01*
X129011904Y-79059523D01*
X128916666Y-79154761D01*
X128773809Y-79202380D01*
X128535714Y-79202380D01*
X129488095Y-78916666D02*
X129964285Y-78916666D01*
X129392857Y-79202380D02*
X129726190Y-78202380D01*
X130059523Y-79202380D01*
X128297619Y-75702380D02*
X128630952Y-76702380D01*
X128964285Y-75702380D01*
X129297619Y-76321428D02*
X130059523Y-76321428D01*
X129678571Y-76702380D02*
X129678571Y-75940476D01*
D12*
X101792857Y-87335714D02*
X102707142Y-87335714D01*
X101542857Y-75085714D02*
X102457142Y-75085714D01*
X102000000Y-75542857D02*
X102000000Y-74628571D01*
D11*
X141700000Y-61361904D02*
X141433333Y-60980952D01*
X141242857Y-61361904D02*
X141242857Y-60561904D01*
X141547619Y-60561904D01*
X141623809Y-60600000D01*
X141661904Y-60638095D01*
X141700000Y-60714285D01*
X141700000Y-60828571D01*
X141661904Y-60904761D01*
X141623809Y-60942857D01*
X141547619Y-60980952D01*
X141242857Y-60980952D01*
X142347619Y-61323809D02*
X142271428Y-61361904D01*
X142119047Y-61361904D01*
X142042857Y-61323809D01*
X142004761Y-61247619D01*
X142004761Y-60942857D01*
X142042857Y-60866666D01*
X142119047Y-60828571D01*
X142271428Y-60828571D01*
X142347619Y-60866666D01*
X142385714Y-60942857D01*
X142385714Y-61019047D01*
X142004761Y-61095238D01*
X142652380Y-60828571D02*
X142842857Y-61361904D01*
X143033333Y-60828571D01*
X143604761Y-60942857D02*
X143719047Y-60980952D01*
X143757142Y-61019047D01*
X143795238Y-61095238D01*
X143795238Y-61209523D01*
X143757142Y-61285714D01*
X143719047Y-61323809D01*
X143642857Y-61361904D01*
X143338095Y-61361904D01*
X143338095Y-60561904D01*
X143604761Y-60561904D01*
X143680952Y-60600000D01*
X143719047Y-60638095D01*
X143757142Y-60714285D01*
X143757142Y-60790476D01*
X143719047Y-60866666D01*
X143680952Y-60904761D01*
X143604761Y-60942857D01*
X143338095Y-60942857D01*
D10*
X150964285Y-60502380D02*
X151059523Y-60502380D01*
X151154761Y-60550000D01*
X151202380Y-60597619D01*
X151250000Y-60692857D01*
X151297619Y-60883333D01*
X151297619Y-61121428D01*
X151250000Y-61311904D01*
X151202380Y-61407142D01*
X151154761Y-61454761D01*
X151059523Y-61502380D01*
X150964285Y-61502380D01*
X150869047Y-61454761D01*
X150821428Y-61407142D01*
X150773809Y-61311904D01*
X150726190Y-61121428D01*
X150726190Y-60883333D01*
X150773809Y-60692857D01*
X150821428Y-60597619D01*
X150869047Y-60550000D01*
X150964285Y-60502380D01*
X151726190Y-61121428D02*
X152488095Y-61121428D01*
X153488095Y-61502380D02*
X152916666Y-61502380D01*
X153202380Y-61502380D02*
X153202380Y-60502380D01*
X153107142Y-60645238D01*
X153011904Y-60740476D01*
X152916666Y-60788095D01*
X154107142Y-60502380D02*
X154202380Y-60502380D01*
X154297619Y-60550000D01*
X154345238Y-60597619D01*
X154392857Y-60692857D01*
X154440476Y-60883333D01*
X154440476Y-61121428D01*
X154392857Y-61311904D01*
X154345238Y-61407142D01*
X154297619Y-61454761D01*
X154202380Y-61502380D01*
X154107142Y-61502380D01*
X154011904Y-61454761D01*
X153964285Y-61407142D01*
X153916666Y-61311904D01*
X153869047Y-61121428D01*
X153869047Y-60883333D01*
X153916666Y-60692857D01*
X153964285Y-60597619D01*
X154011904Y-60550000D01*
X154107142Y-60502380D01*
X154821428Y-61216666D02*
X155297619Y-61216666D01*
X154726190Y-61502380D02*
X155059523Y-60502380D01*
X155392857Y-61502380D01*
X156678571Y-60502380D02*
X156773809Y-60502380D01*
X156869047Y-60550000D01*
X156916666Y-60597619D01*
X156964285Y-60692857D01*
X157011904Y-60883333D01*
X157011904Y-61121428D01*
X156964285Y-61311904D01*
X156916666Y-61407142D01*
X156869047Y-61454761D01*
X156773809Y-61502380D01*
X156678571Y-61502380D01*
X156583333Y-61454761D01*
X156535714Y-61407142D01*
X156488095Y-61311904D01*
X156440476Y-61121428D01*
X156440476Y-60883333D01*
X156488095Y-60692857D01*
X156535714Y-60597619D01*
X156583333Y-60550000D01*
X156678571Y-60502380D01*
X157440476Y-61121428D02*
X158202380Y-61121428D01*
X158630952Y-60597619D02*
X158678571Y-60550000D01*
X158773809Y-60502380D01*
X159011904Y-60502380D01*
X159107142Y-60550000D01*
X159154761Y-60597619D01*
X159202380Y-60692857D01*
X159202380Y-60788095D01*
X159154761Y-60930952D01*
X158583333Y-61502380D01*
X159202380Y-61502380D01*
X160059523Y-60502380D02*
X159869047Y-60502380D01*
X159773809Y-60550000D01*
X159726190Y-60597619D01*
X159630952Y-60740476D01*
X159583333Y-60930952D01*
X159583333Y-61311904D01*
X159630952Y-61407142D01*
X159678571Y-61454761D01*
X159773809Y-61502380D01*
X159964285Y-61502380D01*
X160059523Y-61454761D01*
X160107142Y-61407142D01*
X160154761Y-61311904D01*
X160154761Y-61073809D01*
X160107142Y-60978571D01*
X160059523Y-60930952D01*
X159964285Y-60883333D01*
X159773809Y-60883333D01*
X159678571Y-60930952D01*
X159630952Y-60978571D01*
X159583333Y-61073809D01*
X160440476Y-60502380D02*
X160773809Y-61502380D01*
X161107142Y-60502380D01*
X162202380Y-61502380D02*
X162202380Y-60502380D01*
X162440476Y-60502380D01*
X162583333Y-60550000D01*
X162678571Y-60645238D01*
X162726190Y-60740476D01*
X162773809Y-60930952D01*
X162773809Y-61073809D01*
X162726190Y-61264285D01*
X162678571Y-61359523D01*
X162583333Y-61454761D01*
X162440476Y-61502380D01*
X162202380Y-61502380D01*
X163773809Y-61407142D02*
X163726190Y-61454761D01*
X163583333Y-61502380D01*
X163488095Y-61502380D01*
X163345238Y-61454761D01*
X163250000Y-61359523D01*
X163202380Y-61264285D01*
X163154761Y-61073809D01*
X163154761Y-60930952D01*
X163202380Y-60740476D01*
X163250000Y-60645238D01*
X163345238Y-60550000D01*
X163488095Y-60502380D01*
X163583333Y-60502380D01*
X163726190Y-60550000D01*
X163773809Y-60597619D01*
X142428571Y-73952380D02*
X142428571Y-72952380D01*
X142904761Y-73952380D02*
X142904761Y-72952380D01*
X143476190Y-73952380D01*
X143476190Y-72952380D01*
X143904761Y-73666666D02*
X144380952Y-73666666D01*
X143809523Y-73952380D02*
X144142857Y-72952380D01*
X144476190Y-73952380D01*
X144761904Y-73047619D02*
X144809523Y-73000000D01*
X144904761Y-72952380D01*
X145142857Y-72952380D01*
X145238095Y-73000000D01*
X145285714Y-73047619D01*
X145333333Y-73142857D01*
X145333333Y-73238095D01*
X145285714Y-73380952D01*
X144714285Y-73952380D01*
X145333333Y-73952380D01*
X145714285Y-73047619D02*
X145761904Y-73000000D01*
X145857142Y-72952380D01*
X146095238Y-72952380D01*
X146190476Y-73000000D01*
X146238095Y-73047619D01*
X146285714Y-73142857D01*
X146285714Y-73238095D01*
X146238095Y-73380952D01*
X145666666Y-73952380D01*
X146285714Y-73952380D01*
X146904761Y-72952380D02*
X147000000Y-72952380D01*
X147095238Y-73000000D01*
X147142857Y-73047619D01*
X147190476Y-73142857D01*
X147238095Y-73333333D01*
X147238095Y-73571428D01*
X147190476Y-73761904D01*
X147142857Y-73857142D01*
X147095238Y-73904761D01*
X147000000Y-73952380D01*
X146904761Y-73952380D01*
X146809523Y-73904761D01*
X146761904Y-73857142D01*
X146714285Y-73761904D01*
X146666666Y-73571428D01*
X146666666Y-73333333D01*
X146714285Y-73142857D01*
X146761904Y-73047619D01*
X146809523Y-73000000D01*
X146904761Y-72952380D01*
X149000000Y-73857142D02*
X148952380Y-73904761D01*
X148809523Y-73952380D01*
X148714285Y-73952380D01*
X148571428Y-73904761D01*
X148476190Y-73809523D01*
X148428571Y-73714285D01*
X148380952Y-73523809D01*
X148380952Y-73380952D01*
X148428571Y-73190476D01*
X148476190Y-73095238D01*
X148571428Y-73000000D01*
X148714285Y-72952380D01*
X148809523Y-72952380D01*
X148952380Y-73000000D01*
X149000000Y-73047619D01*
X149857142Y-73285714D02*
X149857142Y-73952380D01*
X149428571Y-73285714D02*
X149428571Y-73809523D01*
X149476190Y-73904761D01*
X149571428Y-73952380D01*
X149714285Y-73952380D01*
X149809523Y-73904761D01*
X149857142Y-73857142D01*
X150333333Y-73952380D02*
X150333333Y-73285714D01*
X150333333Y-73476190D02*
X150380952Y-73380952D01*
X150428571Y-73333333D01*
X150523809Y-73285714D01*
X150619047Y-73285714D01*
X150952380Y-73952380D02*
X150952380Y-73285714D01*
X150952380Y-73476190D02*
X151000000Y-73380952D01*
X151047619Y-73333333D01*
X151142857Y-73285714D01*
X151238095Y-73285714D01*
X151952380Y-73904761D02*
X151857142Y-73952380D01*
X151666666Y-73952380D01*
X151571428Y-73904761D01*
X151523809Y-73809523D01*
X151523809Y-73428571D01*
X151571428Y-73333333D01*
X151666666Y-73285714D01*
X151857142Y-73285714D01*
X151952380Y-73333333D01*
X152000000Y-73428571D01*
X152000000Y-73523809D01*
X151523809Y-73619047D01*
X152428571Y-73285714D02*
X152428571Y-73952380D01*
X152428571Y-73380952D02*
X152476190Y-73333333D01*
X152571428Y-73285714D01*
X152714285Y-73285714D01*
X152809523Y-73333333D01*
X152857142Y-73428571D01*
X152857142Y-73952380D01*
X153190476Y-73285714D02*
X153571428Y-73285714D01*
X153333333Y-72952380D02*
X153333333Y-73809523D01*
X153380952Y-73904761D01*
X153476190Y-73952380D01*
X153571428Y-73952380D01*
X154619047Y-73904761D02*
X154761904Y-73952380D01*
X155000000Y-73952380D01*
X155095238Y-73904761D01*
X155142857Y-73857142D01*
X155190476Y-73761904D01*
X155190476Y-73666666D01*
X155142857Y-73571428D01*
X155095238Y-73523809D01*
X155000000Y-73476190D01*
X154809523Y-73428571D01*
X154714285Y-73380952D01*
X154666666Y-73333333D01*
X154619047Y-73238095D01*
X154619047Y-73142857D01*
X154666666Y-73047619D01*
X154714285Y-73000000D01*
X154809523Y-72952380D01*
X155047619Y-72952380D01*
X155190476Y-73000000D01*
X156000000Y-73904761D02*
X155904761Y-73952380D01*
X155714285Y-73952380D01*
X155619047Y-73904761D01*
X155571428Y-73809523D01*
X155571428Y-73428571D01*
X155619047Y-73333333D01*
X155714285Y-73285714D01*
X155904761Y-73285714D01*
X156000000Y-73333333D01*
X156047619Y-73428571D01*
X156047619Y-73523809D01*
X155571428Y-73619047D01*
X156476190Y-73285714D02*
X156476190Y-73952380D01*
X156476190Y-73380952D02*
X156523809Y-73333333D01*
X156619047Y-73285714D01*
X156761904Y-73285714D01*
X156857142Y-73333333D01*
X156904761Y-73428571D01*
X156904761Y-73952380D01*
X157333333Y-73904761D02*
X157428571Y-73952380D01*
X157619047Y-73952380D01*
X157714285Y-73904761D01*
X157761904Y-73809523D01*
X157761904Y-73761904D01*
X157714285Y-73666666D01*
X157619047Y-73619047D01*
X157476190Y-73619047D01*
X157380952Y-73571428D01*
X157333333Y-73476190D01*
X157333333Y-73428571D01*
X157380952Y-73333333D01*
X157476190Y-73285714D01*
X157619047Y-73285714D01*
X157714285Y-73333333D01*
X158571428Y-73904761D02*
X158476190Y-73952380D01*
X158285714Y-73952380D01*
X158190476Y-73904761D01*
X158142857Y-73809523D01*
X158142857Y-73428571D01*
X158190476Y-73333333D01*
X158285714Y-73285714D01*
X158476190Y-73285714D01*
X158571428Y-73333333D01*
X158619047Y-73428571D01*
X158619047Y-73523809D01*
X158142857Y-73619047D01*
X163988095Y-72000000D02*
X163892857Y-71952380D01*
X163750000Y-71952380D01*
X163607142Y-72000000D01*
X163511904Y-72095238D01*
X163464285Y-72190476D01*
X163416666Y-72380952D01*
X163416666Y-72523809D01*
X163464285Y-72714285D01*
X163511904Y-72809523D01*
X163607142Y-72904761D01*
X163750000Y-72952380D01*
X163845238Y-72952380D01*
X163988095Y-72904761D01*
X164035714Y-72857142D01*
X164035714Y-72523809D01*
X163845238Y-72523809D01*
X164464285Y-72952380D02*
X164464285Y-71952380D01*
X165035714Y-72952380D01*
X165035714Y-71952380D01*
X165511904Y-72952380D02*
X165511904Y-71952380D01*
X165750000Y-71952380D01*
X165892857Y-72000000D01*
X165988095Y-72095238D01*
X166035714Y-72190476D01*
X166083333Y-72380952D01*
X166083333Y-72523809D01*
X166035714Y-72714285D01*
X165988095Y-72809523D01*
X165892857Y-72904761D01*
X165750000Y-72952380D01*
X165511904Y-72952380D01*
X162976190Y-69916666D02*
X163452380Y-69916666D01*
X162880952Y-70202380D02*
X163214285Y-69202380D01*
X163547619Y-70202380D01*
X164023809Y-70202380D02*
X163928571Y-70154761D01*
X163880952Y-70059523D01*
X163880952Y-69202380D01*
X164785714Y-70154761D02*
X164690476Y-70202380D01*
X164500000Y-70202380D01*
X164404761Y-70154761D01*
X164357142Y-70059523D01*
X164357142Y-69678571D01*
X164404761Y-69583333D01*
X164500000Y-69535714D01*
X164690476Y-69535714D01*
X164785714Y-69583333D01*
X164833333Y-69678571D01*
X164833333Y-69773809D01*
X164357142Y-69869047D01*
X165261904Y-70202380D02*
X165261904Y-69535714D01*
X165261904Y-69726190D02*
X165309523Y-69630952D01*
X165357142Y-69583333D01*
X165452380Y-69535714D01*
X165547619Y-69535714D01*
X165738095Y-69535714D02*
X166119047Y-69535714D01*
X165880952Y-69202380D02*
X165880952Y-70059523D01*
X165928571Y-70154761D01*
X166023809Y-70202380D01*
X166119047Y-70202380D01*
X163559523Y-67654761D02*
X163702380Y-67702380D01*
X163940476Y-67702380D01*
X164035714Y-67654761D01*
X164083333Y-67607142D01*
X164130952Y-67511904D01*
X164130952Y-67416666D01*
X164083333Y-67321428D01*
X164035714Y-67273809D01*
X163940476Y-67226190D01*
X163750000Y-67178571D01*
X163654761Y-67130952D01*
X163607142Y-67083333D01*
X163559523Y-66988095D01*
X163559523Y-66892857D01*
X163607142Y-66797619D01*
X163654761Y-66750000D01*
X163750000Y-66702380D01*
X163988095Y-66702380D01*
X164130952Y-66750000D01*
X165130952Y-67607142D02*
X165083333Y-67654761D01*
X164940476Y-67702380D01*
X164845238Y-67702380D01*
X164702380Y-67654761D01*
X164607142Y-67559523D01*
X164559523Y-67464285D01*
X164511904Y-67273809D01*
X164511904Y-67130952D01*
X164559523Y-66940476D01*
X164607142Y-66845238D01*
X164702380Y-66750000D01*
X164845238Y-66702380D01*
X164940476Y-66702380D01*
X165083333Y-66750000D01*
X165130952Y-66797619D01*
X166035714Y-67702380D02*
X165559523Y-67702380D01*
X165559523Y-66702380D01*
X163535714Y-65154761D02*
X163678571Y-65202380D01*
X163916666Y-65202380D01*
X164011904Y-65154761D01*
X164059523Y-65107142D01*
X164107142Y-65011904D01*
X164107142Y-64916666D01*
X164059523Y-64821428D01*
X164011904Y-64773809D01*
X163916666Y-64726190D01*
X163726190Y-64678571D01*
X163630952Y-64630952D01*
X163583333Y-64583333D01*
X163535714Y-64488095D01*
X163535714Y-64392857D01*
X163583333Y-64297619D01*
X163630952Y-64250000D01*
X163726190Y-64202380D01*
X163964285Y-64202380D01*
X164107142Y-64250000D01*
X164535714Y-65202380D02*
X164535714Y-64202380D01*
X164773809Y-64202380D01*
X164916666Y-64250000D01*
X165011904Y-64345238D01*
X165059523Y-64440476D01*
X165107142Y-64630952D01*
X165107142Y-64773809D01*
X165059523Y-64964285D01*
X165011904Y-65059523D01*
X164916666Y-65154761D01*
X164773809Y-65202380D01*
X164535714Y-65202380D01*
X165488095Y-64916666D02*
X165964285Y-64916666D01*
X165392857Y-65202380D02*
X165726190Y-64202380D01*
X166059523Y-65202380D01*
X164297619Y-61702380D02*
X164630952Y-62702380D01*
X164964285Y-61702380D01*
X165297619Y-62321428D02*
X166059523Y-62321428D01*
X165678571Y-62702380D02*
X165678571Y-61940476D01*
D12*
X137792857Y-73335714D02*
X138707142Y-73335714D01*
X137542857Y-61085714D02*
X138457142Y-61085714D01*
X138000000Y-61542857D02*
X138000000Y-60628571D01*
D11*
X141700000Y-75361904D02*
X141433333Y-74980952D01*
X141242857Y-75361904D02*
X141242857Y-74561904D01*
X141547619Y-74561904D01*
X141623809Y-74600000D01*
X141661904Y-74638095D01*
X141700000Y-74714285D01*
X141700000Y-74828571D01*
X141661904Y-74904761D01*
X141623809Y-74942857D01*
X141547619Y-74980952D01*
X141242857Y-74980952D01*
X142347619Y-75323809D02*
X142271428Y-75361904D01*
X142119047Y-75361904D01*
X142042857Y-75323809D01*
X142004761Y-75247619D01*
X142004761Y-74942857D01*
X142042857Y-74866666D01*
X142119047Y-74828571D01*
X142271428Y-74828571D01*
X142347619Y-74866666D01*
X142385714Y-74942857D01*
X142385714Y-75019047D01*
X142004761Y-75095238D01*
X142652380Y-74828571D02*
X142842857Y-75361904D01*
X143033333Y-74828571D01*
X143604761Y-74942857D02*
X143719047Y-74980952D01*
X143757142Y-75019047D01*
X143795238Y-75095238D01*
X143795238Y-75209523D01*
X143757142Y-75285714D01*
X143719047Y-75323809D01*
X143642857Y-75361904D01*
X143338095Y-75361904D01*
X143338095Y-74561904D01*
X143604761Y-74561904D01*
X143680952Y-74600000D01*
X143719047Y-74638095D01*
X143757142Y-74714285D01*
X143757142Y-74790476D01*
X143719047Y-74866666D01*
X143680952Y-74904761D01*
X143604761Y-74942857D01*
X143338095Y-74942857D01*
D10*
X150964285Y-74502380D02*
X151059523Y-74502380D01*
X151154761Y-74550000D01*
X151202380Y-74597619D01*
X151250000Y-74692857D01*
X151297619Y-74883333D01*
X151297619Y-75121428D01*
X151250000Y-75311904D01*
X151202380Y-75407142D01*
X151154761Y-75454761D01*
X151059523Y-75502380D01*
X150964285Y-75502380D01*
X150869047Y-75454761D01*
X150821428Y-75407142D01*
X150773809Y-75311904D01*
X150726190Y-75121428D01*
X150726190Y-74883333D01*
X150773809Y-74692857D01*
X150821428Y-74597619D01*
X150869047Y-74550000D01*
X150964285Y-74502380D01*
X151726190Y-75121428D02*
X152488095Y-75121428D01*
X153488095Y-75502380D02*
X152916666Y-75502380D01*
X153202380Y-75502380D02*
X153202380Y-74502380D01*
X153107142Y-74645238D01*
X153011904Y-74740476D01*
X152916666Y-74788095D01*
X154107142Y-74502380D02*
X154202380Y-74502380D01*
X154297619Y-74550000D01*
X154345238Y-74597619D01*
X154392857Y-74692857D01*
X154440476Y-74883333D01*
X154440476Y-75121428D01*
X154392857Y-75311904D01*
X154345238Y-75407142D01*
X154297619Y-75454761D01*
X154202380Y-75502380D01*
X154107142Y-75502380D01*
X154011904Y-75454761D01*
X153964285Y-75407142D01*
X153916666Y-75311904D01*
X153869047Y-75121428D01*
X153869047Y-74883333D01*
X153916666Y-74692857D01*
X153964285Y-74597619D01*
X154011904Y-74550000D01*
X154107142Y-74502380D01*
X154821428Y-75216666D02*
X155297619Y-75216666D01*
X154726190Y-75502380D02*
X155059523Y-74502380D01*
X155392857Y-75502380D01*
X156678571Y-74502380D02*
X156773809Y-74502380D01*
X156869047Y-74550000D01*
X156916666Y-74597619D01*
X156964285Y-74692857D01*
X157011904Y-74883333D01*
X157011904Y-75121428D01*
X156964285Y-75311904D01*
X156916666Y-75407142D01*
X156869047Y-75454761D01*
X156773809Y-75502380D01*
X156678571Y-75502380D01*
X156583333Y-75454761D01*
X156535714Y-75407142D01*
X156488095Y-75311904D01*
X156440476Y-75121428D01*
X156440476Y-74883333D01*
X156488095Y-74692857D01*
X156535714Y-74597619D01*
X156583333Y-74550000D01*
X156678571Y-74502380D01*
X157440476Y-75121428D02*
X158202380Y-75121428D01*
X158630952Y-74597619D02*
X158678571Y-74550000D01*
X158773809Y-74502380D01*
X159011904Y-74502380D01*
X159107142Y-74550000D01*
X159154761Y-74597619D01*
X159202380Y-74692857D01*
X159202380Y-74788095D01*
X159154761Y-74930952D01*
X158583333Y-75502380D01*
X159202380Y-75502380D01*
X160059523Y-74502380D02*
X159869047Y-74502380D01*
X159773809Y-74550000D01*
X159726190Y-74597619D01*
X159630952Y-74740476D01*
X159583333Y-74930952D01*
X159583333Y-75311904D01*
X159630952Y-75407142D01*
X159678571Y-75454761D01*
X159773809Y-75502380D01*
X159964285Y-75502380D01*
X160059523Y-75454761D01*
X160107142Y-75407142D01*
X160154761Y-75311904D01*
X160154761Y-75073809D01*
X160107142Y-74978571D01*
X160059523Y-74930952D01*
X159964285Y-74883333D01*
X159773809Y-74883333D01*
X159678571Y-74930952D01*
X159630952Y-74978571D01*
X159583333Y-75073809D01*
X160440476Y-74502380D02*
X160773809Y-75502380D01*
X161107142Y-74502380D01*
X162202380Y-75502380D02*
X162202380Y-74502380D01*
X162440476Y-74502380D01*
X162583333Y-74550000D01*
X162678571Y-74645238D01*
X162726190Y-74740476D01*
X162773809Y-74930952D01*
X162773809Y-75073809D01*
X162726190Y-75264285D01*
X162678571Y-75359523D01*
X162583333Y-75454761D01*
X162440476Y-75502380D01*
X162202380Y-75502380D01*
X163773809Y-75407142D02*
X163726190Y-75454761D01*
X163583333Y-75502380D01*
X163488095Y-75502380D01*
X163345238Y-75454761D01*
X163250000Y-75359523D01*
X163202380Y-75264285D01*
X163154761Y-75073809D01*
X163154761Y-74930952D01*
X163202380Y-74740476D01*
X163250000Y-74645238D01*
X163345238Y-74550000D01*
X163488095Y-74502380D01*
X163583333Y-74502380D01*
X163726190Y-74550000D01*
X163773809Y-74597619D01*
X142428571Y-87952380D02*
X142428571Y-86952380D01*
X142904761Y-87952380D02*
X142904761Y-86952380D01*
X143476190Y-87952380D01*
X143476190Y-86952380D01*
X143904761Y-87666666D02*
X144380952Y-87666666D01*
X143809523Y-87952380D02*
X144142857Y-86952380D01*
X144476190Y-87952380D01*
X144761904Y-87047619D02*
X144809523Y-87000000D01*
X144904761Y-86952380D01*
X145142857Y-86952380D01*
X145238095Y-87000000D01*
X145285714Y-87047619D01*
X145333333Y-87142857D01*
X145333333Y-87238095D01*
X145285714Y-87380952D01*
X144714285Y-87952380D01*
X145333333Y-87952380D01*
X145714285Y-87047619D02*
X145761904Y-87000000D01*
X145857142Y-86952380D01*
X146095238Y-86952380D01*
X146190476Y-87000000D01*
X146238095Y-87047619D01*
X146285714Y-87142857D01*
X146285714Y-87238095D01*
X146238095Y-87380952D01*
X145666666Y-87952380D01*
X146285714Y-87952380D01*
X146904761Y-86952380D02*
X147000000Y-86952380D01*
X147095238Y-87000000D01*
X147142857Y-87047619D01*
X147190476Y-87142857D01*
X147238095Y-87333333D01*
X147238095Y-87571428D01*
X147190476Y-87761904D01*
X147142857Y-87857142D01*
X147095238Y-87904761D01*
X147000000Y-87952380D01*
X146904761Y-87952380D01*
X146809523Y-87904761D01*
X146761904Y-87857142D01*
X146714285Y-87761904D01*
X146666666Y-87571428D01*
X146666666Y-87333333D01*
X146714285Y-87142857D01*
X146761904Y-87047619D01*
X146809523Y-87000000D01*
X146904761Y-86952380D01*
X149000000Y-87857142D02*
X148952380Y-87904761D01*
X148809523Y-87952380D01*
X148714285Y-87952380D01*
X148571428Y-87904761D01*
X148476190Y-87809523D01*
X148428571Y-87714285D01*
X148380952Y-87523809D01*
X148380952Y-87380952D01*
X148428571Y-87190476D01*
X148476190Y-87095238D01*
X148571428Y-87000000D01*
X148714285Y-86952380D01*
X148809523Y-86952380D01*
X148952380Y-87000000D01*
X149000000Y-87047619D01*
X149857142Y-87285714D02*
X149857142Y-87952380D01*
X149428571Y-87285714D02*
X149428571Y-87809523D01*
X149476190Y-87904761D01*
X149571428Y-87952380D01*
X149714285Y-87952380D01*
X149809523Y-87904761D01*
X149857142Y-87857142D01*
X150333333Y-87952380D02*
X150333333Y-87285714D01*
X150333333Y-87476190D02*
X150380952Y-87380952D01*
X150428571Y-87333333D01*
X150523809Y-87285714D01*
X150619047Y-87285714D01*
X150952380Y-87952380D02*
X150952380Y-87285714D01*
X150952380Y-87476190D02*
X151000000Y-87380952D01*
X151047619Y-87333333D01*
X151142857Y-87285714D01*
X151238095Y-87285714D01*
X151952380Y-87904761D02*
X151857142Y-87952380D01*
X151666666Y-87952380D01*
X151571428Y-87904761D01*
X151523809Y-87809523D01*
X151523809Y-87428571D01*
X151571428Y-87333333D01*
X151666666Y-87285714D01*
X151857142Y-87285714D01*
X151952380Y-87333333D01*
X152000000Y-87428571D01*
X152000000Y-87523809D01*
X151523809Y-87619047D01*
X152428571Y-87285714D02*
X152428571Y-87952380D01*
X152428571Y-87380952D02*
X152476190Y-87333333D01*
X152571428Y-87285714D01*
X152714285Y-87285714D01*
X152809523Y-87333333D01*
X152857142Y-87428571D01*
X152857142Y-87952380D01*
X153190476Y-87285714D02*
X153571428Y-87285714D01*
X153333333Y-86952380D02*
X153333333Y-87809523D01*
X153380952Y-87904761D01*
X153476190Y-87952380D01*
X153571428Y-87952380D01*
X154619047Y-87904761D02*
X154761904Y-87952380D01*
X155000000Y-87952380D01*
X155095238Y-87904761D01*
X155142857Y-87857142D01*
X155190476Y-87761904D01*
X155190476Y-87666666D01*
X155142857Y-87571428D01*
X155095238Y-87523809D01*
X155000000Y-87476190D01*
X154809523Y-87428571D01*
X154714285Y-87380952D01*
X154666666Y-87333333D01*
X154619047Y-87238095D01*
X154619047Y-87142857D01*
X154666666Y-87047619D01*
X154714285Y-87000000D01*
X154809523Y-86952380D01*
X155047619Y-86952380D01*
X155190476Y-87000000D01*
X156000000Y-87904761D02*
X155904761Y-87952380D01*
X155714285Y-87952380D01*
X155619047Y-87904761D01*
X155571428Y-87809523D01*
X155571428Y-87428571D01*
X155619047Y-87333333D01*
X155714285Y-87285714D01*
X155904761Y-87285714D01*
X156000000Y-87333333D01*
X156047619Y-87428571D01*
X156047619Y-87523809D01*
X155571428Y-87619047D01*
X156476190Y-87285714D02*
X156476190Y-87952380D01*
X156476190Y-87380952D02*
X156523809Y-87333333D01*
X156619047Y-87285714D01*
X156761904Y-87285714D01*
X156857142Y-87333333D01*
X156904761Y-87428571D01*
X156904761Y-87952380D01*
X157333333Y-87904761D02*
X157428571Y-87952380D01*
X157619047Y-87952380D01*
X157714285Y-87904761D01*
X157761904Y-87809523D01*
X157761904Y-87761904D01*
X157714285Y-87666666D01*
X157619047Y-87619047D01*
X157476190Y-87619047D01*
X157380952Y-87571428D01*
X157333333Y-87476190D01*
X157333333Y-87428571D01*
X157380952Y-87333333D01*
X157476190Y-87285714D01*
X157619047Y-87285714D01*
X157714285Y-87333333D01*
X158571428Y-87904761D02*
X158476190Y-87952380D01*
X158285714Y-87952380D01*
X158190476Y-87904761D01*
X158142857Y-87809523D01*
X158142857Y-87428571D01*
X158190476Y-87333333D01*
X158285714Y-87285714D01*
X158476190Y-87285714D01*
X158571428Y-87333333D01*
X158619047Y-87428571D01*
X158619047Y-87523809D01*
X158142857Y-87619047D01*
X163988095Y-86000000D02*
X163892857Y-85952380D01*
X163750000Y-85952380D01*
X163607142Y-86000000D01*
X163511904Y-86095238D01*
X163464285Y-86190476D01*
X163416666Y-86380952D01*
X163416666Y-86523809D01*
X163464285Y-86714285D01*
X163511904Y-86809523D01*
X163607142Y-86904761D01*
X163750000Y-86952380D01*
X163845238Y-86952380D01*
X163988095Y-86904761D01*
X164035714Y-86857142D01*
X164035714Y-86523809D01*
X163845238Y-86523809D01*
X164464285Y-86952380D02*
X164464285Y-85952380D01*
X165035714Y-86952380D01*
X165035714Y-85952380D01*
X165511904Y-86952380D02*
X165511904Y-85952380D01*
X165750000Y-85952380D01*
X165892857Y-86000000D01*
X165988095Y-86095238D01*
X166035714Y-86190476D01*
X166083333Y-86380952D01*
X166083333Y-86523809D01*
X166035714Y-86714285D01*
X165988095Y-86809523D01*
X165892857Y-86904761D01*
X165750000Y-86952380D01*
X165511904Y-86952380D01*
X162976190Y-83916666D02*
X163452380Y-83916666D01*
X162880952Y-84202380D02*
X163214285Y-83202380D01*
X163547619Y-84202380D01*
X164023809Y-84202380D02*
X163928571Y-84154761D01*
X163880952Y-84059523D01*
X163880952Y-83202380D01*
X164785714Y-84154761D02*
X164690476Y-84202380D01*
X164500000Y-84202380D01*
X164404761Y-84154761D01*
X164357142Y-84059523D01*
X164357142Y-83678571D01*
X164404761Y-83583333D01*
X164500000Y-83535714D01*
X164690476Y-83535714D01*
X164785714Y-83583333D01*
X164833333Y-83678571D01*
X164833333Y-83773809D01*
X164357142Y-83869047D01*
X165261904Y-84202380D02*
X165261904Y-83535714D01*
X165261904Y-83726190D02*
X165309523Y-83630952D01*
X165357142Y-83583333D01*
X165452380Y-83535714D01*
X165547619Y-83535714D01*
X165738095Y-83535714D02*
X166119047Y-83535714D01*
X165880952Y-83202380D02*
X165880952Y-84059523D01*
X165928571Y-84154761D01*
X166023809Y-84202380D01*
X166119047Y-84202380D01*
X163559523Y-81654761D02*
X163702380Y-81702380D01*
X163940476Y-81702380D01*
X164035714Y-81654761D01*
X164083333Y-81607142D01*
X164130952Y-81511904D01*
X164130952Y-81416666D01*
X164083333Y-81321428D01*
X164035714Y-81273809D01*
X163940476Y-81226190D01*
X163750000Y-81178571D01*
X163654761Y-81130952D01*
X163607142Y-81083333D01*
X163559523Y-80988095D01*
X163559523Y-80892857D01*
X163607142Y-80797619D01*
X163654761Y-80750000D01*
X163750000Y-80702380D01*
X163988095Y-80702380D01*
X164130952Y-80750000D01*
X165130952Y-81607142D02*
X165083333Y-81654761D01*
X164940476Y-81702380D01*
X164845238Y-81702380D01*
X164702380Y-81654761D01*
X164607142Y-81559523D01*
X164559523Y-81464285D01*
X164511904Y-81273809D01*
X164511904Y-81130952D01*
X164559523Y-80940476D01*
X164607142Y-80845238D01*
X164702380Y-80750000D01*
X164845238Y-80702380D01*
X164940476Y-80702380D01*
X165083333Y-80750000D01*
X165130952Y-80797619D01*
X166035714Y-81702380D02*
X165559523Y-81702380D01*
X165559523Y-80702380D01*
X163535714Y-79154761D02*
X163678571Y-79202380D01*
X163916666Y-79202380D01*
X164011904Y-79154761D01*
X164059523Y-79107142D01*
X164107142Y-79011904D01*
X164107142Y-78916666D01*
X164059523Y-78821428D01*
X164011904Y-78773809D01*
X163916666Y-78726190D01*
X163726190Y-78678571D01*
X163630952Y-78630952D01*
X163583333Y-78583333D01*
X163535714Y-78488095D01*
X163535714Y-78392857D01*
X163583333Y-78297619D01*
X163630952Y-78250000D01*
X163726190Y-78202380D01*
X163964285Y-78202380D01*
X164107142Y-78250000D01*
X164535714Y-79202380D02*
X164535714Y-78202380D01*
X164773809Y-78202380D01*
X164916666Y-78250000D01*
X165011904Y-78345238D01*
X165059523Y-78440476D01*
X165107142Y-78630952D01*
X165107142Y-78773809D01*
X165059523Y-78964285D01*
X165011904Y-79059523D01*
X164916666Y-79154761D01*
X164773809Y-79202380D01*
X164535714Y-79202380D01*
X165488095Y-78916666D02*
X165964285Y-78916666D01*
X165392857Y-79202380D02*
X165726190Y-78202380D01*
X166059523Y-79202380D01*
X164297619Y-75702380D02*
X164630952Y-76702380D01*
X164964285Y-75702380D01*
X165297619Y-76321428D02*
X166059523Y-76321428D01*
X165678571Y-76702380D02*
X165678571Y-75940476D01*
D12*
X137792857Y-87335714D02*
X138707142Y-87335714D01*
X137542857Y-75085714D02*
X138457142Y-75085714D01*
X138000000Y-75542857D02*
X138000000Y-74628571D01*
D11*
X105700000Y-89361904D02*
X105433333Y-88980952D01*
X105242857Y-89361904D02*
X105242857Y-88561904D01*
X105547619Y-88561904D01*
X105623809Y-88600000D01*
X105661904Y-88638095D01*
X105700000Y-88714285D01*
X105700000Y-88828571D01*
X105661904Y-88904761D01*
X105623809Y-88942857D01*
X105547619Y-88980952D01*
X105242857Y-88980952D01*
X106347619Y-89323809D02*
X106271428Y-89361904D01*
X106119047Y-89361904D01*
X106042857Y-89323809D01*
X106004761Y-89247619D01*
X106004761Y-88942857D01*
X106042857Y-88866666D01*
X106119047Y-88828571D01*
X106271428Y-88828571D01*
X106347619Y-88866666D01*
X106385714Y-88942857D01*
X106385714Y-89019047D01*
X106004761Y-89095238D01*
X106652380Y-88828571D02*
X106842857Y-89361904D01*
X107033333Y-88828571D01*
X107604761Y-88942857D02*
X107719047Y-88980952D01*
X107757142Y-89019047D01*
X107795238Y-89095238D01*
X107795238Y-89209523D01*
X107757142Y-89285714D01*
X107719047Y-89323809D01*
X107642857Y-89361904D01*
X107338095Y-89361904D01*
X107338095Y-88561904D01*
X107604761Y-88561904D01*
X107680952Y-88600000D01*
X107719047Y-88638095D01*
X107757142Y-88714285D01*
X107757142Y-88790476D01*
X107719047Y-88866666D01*
X107680952Y-88904761D01*
X107604761Y-88942857D01*
X107338095Y-88942857D01*
D10*
X114964285Y-88502380D02*
X115059523Y-88502380D01*
X115154761Y-88550000D01*
X115202380Y-88597619D01*
X115250000Y-88692857D01*
X115297619Y-88883333D01*
X115297619Y-89121428D01*
X115250000Y-89311904D01*
X115202380Y-89407142D01*
X115154761Y-89454761D01*
X115059523Y-89502380D01*
X114964285Y-89502380D01*
X114869047Y-89454761D01*
X114821428Y-89407142D01*
X114773809Y-89311904D01*
X114726190Y-89121428D01*
X114726190Y-88883333D01*
X114773809Y-88692857D01*
X114821428Y-88597619D01*
X114869047Y-88550000D01*
X114964285Y-88502380D01*
X115726190Y-89121428D02*
X116488095Y-89121428D01*
X117488095Y-89502380D02*
X116916666Y-89502380D01*
X117202380Y-89502380D02*
X117202380Y-88502380D01*
X117107142Y-88645238D01*
X117011904Y-88740476D01*
X116916666Y-88788095D01*
X118107142Y-88502380D02*
X118202380Y-88502380D01*
X118297619Y-88550000D01*
X118345238Y-88597619D01*
X118392857Y-88692857D01*
X118440476Y-88883333D01*
X118440476Y-89121428D01*
X118392857Y-89311904D01*
X118345238Y-89407142D01*
X118297619Y-89454761D01*
X118202380Y-89502380D01*
X118107142Y-89502380D01*
X118011904Y-89454761D01*
X117964285Y-89407142D01*
X117916666Y-89311904D01*
X117869047Y-89121428D01*
X117869047Y-88883333D01*
X117916666Y-88692857D01*
X117964285Y-88597619D01*
X118011904Y-88550000D01*
X118107142Y-88502380D01*
X118821428Y-89216666D02*
X119297619Y-89216666D01*
X118726190Y-89502380D02*
X119059523Y-88502380D01*
X119392857Y-89502380D01*
X120678571Y-88502380D02*
X120773809Y-88502380D01*
X120869047Y-88550000D01*
X120916666Y-88597619D01*
X120964285Y-88692857D01*
X121011904Y-88883333D01*
X121011904Y-89121428D01*
X120964285Y-89311904D01*
X120916666Y-89407142D01*
X120869047Y-89454761D01*
X120773809Y-89502380D01*
X120678571Y-89502380D01*
X120583333Y-89454761D01*
X120535714Y-89407142D01*
X120488095Y-89311904D01*
X120440476Y-89121428D01*
X120440476Y-88883333D01*
X120488095Y-88692857D01*
X120535714Y-88597619D01*
X120583333Y-88550000D01*
X120678571Y-88502380D01*
X121440476Y-89121428D02*
X122202380Y-89121428D01*
X122630952Y-88597619D02*
X122678571Y-88550000D01*
X122773809Y-88502380D01*
X123011904Y-88502380D01*
X123107142Y-88550000D01*
X123154761Y-88597619D01*
X123202380Y-88692857D01*
X123202380Y-88788095D01*
X123154761Y-88930952D01*
X122583333Y-89502380D01*
X123202380Y-89502380D01*
X124059523Y-88502380D02*
X123869047Y-88502380D01*
X123773809Y-88550000D01*
X123726190Y-88597619D01*
X123630952Y-88740476D01*
X123583333Y-88930952D01*
X123583333Y-89311904D01*
X123630952Y-89407142D01*
X123678571Y-89454761D01*
X123773809Y-89502380D01*
X123964285Y-89502380D01*
X124059523Y-89454761D01*
X124107142Y-89407142D01*
X124154761Y-89311904D01*
X124154761Y-89073809D01*
X124107142Y-88978571D01*
X124059523Y-88930952D01*
X123964285Y-88883333D01*
X123773809Y-88883333D01*
X123678571Y-88930952D01*
X123630952Y-88978571D01*
X123583333Y-89073809D01*
X124440476Y-88502380D02*
X124773809Y-89502380D01*
X125107142Y-88502380D01*
X126202380Y-89502380D02*
X126202380Y-88502380D01*
X126440476Y-88502380D01*
X126583333Y-88550000D01*
X126678571Y-88645238D01*
X126726190Y-88740476D01*
X126773809Y-88930952D01*
X126773809Y-89073809D01*
X126726190Y-89264285D01*
X126678571Y-89359523D01*
X126583333Y-89454761D01*
X126440476Y-89502380D01*
X126202380Y-89502380D01*
X127773809Y-89407142D02*
X127726190Y-89454761D01*
X127583333Y-89502380D01*
X127488095Y-89502380D01*
X127345238Y-89454761D01*
X127250000Y-89359523D01*
X127202380Y-89264285D01*
X127154761Y-89073809D01*
X127154761Y-88930952D01*
X127202380Y-88740476D01*
X127250000Y-88645238D01*
X127345238Y-88550000D01*
X127488095Y-88502380D01*
X127583333Y-88502380D01*
X127726190Y-88550000D01*
X127773809Y-88597619D01*
X106428571Y-101952380D02*
X106428571Y-100952380D01*
X106904761Y-101952380D02*
X106904761Y-100952380D01*
X107476190Y-101952380D01*
X107476190Y-100952380D01*
X107904761Y-101666666D02*
X108380952Y-101666666D01*
X107809523Y-101952380D02*
X108142857Y-100952380D01*
X108476190Y-101952380D01*
X108761904Y-101047619D02*
X108809523Y-101000000D01*
X108904761Y-100952380D01*
X109142857Y-100952380D01*
X109238095Y-101000000D01*
X109285714Y-101047619D01*
X109333333Y-101142857D01*
X109333333Y-101238095D01*
X109285714Y-101380952D01*
X108714285Y-101952380D01*
X109333333Y-101952380D01*
X109714285Y-101047619D02*
X109761904Y-101000000D01*
X109857142Y-100952380D01*
X110095238Y-100952380D01*
X110190476Y-101000000D01*
X110238095Y-101047619D01*
X110285714Y-101142857D01*
X110285714Y-101238095D01*
X110238095Y-101380952D01*
X109666666Y-101952380D01*
X110285714Y-101952380D01*
X110904761Y-100952380D02*
X111000000Y-100952380D01*
X111095238Y-101000000D01*
X111142857Y-101047619D01*
X111190476Y-101142857D01*
X111238095Y-101333333D01*
X111238095Y-101571428D01*
X111190476Y-101761904D01*
X111142857Y-101857142D01*
X111095238Y-101904761D01*
X111000000Y-101952380D01*
X110904761Y-101952380D01*
X110809523Y-101904761D01*
X110761904Y-101857142D01*
X110714285Y-101761904D01*
X110666666Y-101571428D01*
X110666666Y-101333333D01*
X110714285Y-101142857D01*
X110761904Y-101047619D01*
X110809523Y-101000000D01*
X110904761Y-100952380D01*
X113000000Y-101857142D02*
X112952380Y-101904761D01*
X112809523Y-101952380D01*
X112714285Y-101952380D01*
X112571428Y-101904761D01*
X112476190Y-101809523D01*
X112428571Y-101714285D01*
X112380952Y-101523809D01*
X112380952Y-101380952D01*
X112428571Y-101190476D01*
X112476190Y-101095238D01*
X112571428Y-101000000D01*
X112714285Y-100952380D01*
X112809523Y-100952380D01*
X112952380Y-101000000D01*
X113000000Y-101047619D01*
X113857142Y-101285714D02*
X113857142Y-101952380D01*
X113428571Y-101285714D02*
X113428571Y-101809523D01*
X113476190Y-101904761D01*
X113571428Y-101952380D01*
X113714285Y-101952380D01*
X113809523Y-101904761D01*
X113857142Y-101857142D01*
X114333333Y-101952380D02*
X114333333Y-101285714D01*
X114333333Y-101476190D02*
X114380952Y-101380952D01*
X114428571Y-101333333D01*
X114523809Y-101285714D01*
X114619047Y-101285714D01*
X114952380Y-101952380D02*
X114952380Y-101285714D01*
X114952380Y-101476190D02*
X115000000Y-101380952D01*
X115047619Y-101333333D01*
X115142857Y-101285714D01*
X115238095Y-101285714D01*
X115952380Y-101904761D02*
X115857142Y-101952380D01*
X115666666Y-101952380D01*
X115571428Y-101904761D01*
X115523809Y-101809523D01*
X115523809Y-101428571D01*
X115571428Y-101333333D01*
X115666666Y-101285714D01*
X115857142Y-101285714D01*
X115952380Y-101333333D01*
X116000000Y-101428571D01*
X116000000Y-101523809D01*
X115523809Y-101619047D01*
X116428571Y-101285714D02*
X116428571Y-101952380D01*
X116428571Y-101380952D02*
X116476190Y-101333333D01*
X116571428Y-101285714D01*
X116714285Y-101285714D01*
X116809523Y-101333333D01*
X116857142Y-101428571D01*
X116857142Y-101952380D01*
X117190476Y-101285714D02*
X117571428Y-101285714D01*
X117333333Y-100952380D02*
X117333333Y-101809523D01*
X117380952Y-101904761D01*
X117476190Y-101952380D01*
X117571428Y-101952380D01*
X118619047Y-101904761D02*
X118761904Y-101952380D01*
X119000000Y-101952380D01*
X119095238Y-101904761D01*
X119142857Y-101857142D01*
X119190476Y-101761904D01*
X119190476Y-101666666D01*
X119142857Y-101571428D01*
X119095238Y-101523809D01*
X119000000Y-101476190D01*
X118809523Y-101428571D01*
X118714285Y-101380952D01*
X118666666Y-101333333D01*
X118619047Y-101238095D01*
X118619047Y-101142857D01*
X118666666Y-101047619D01*
X118714285Y-101000000D01*
X118809523Y-100952380D01*
X119047619Y-100952380D01*
X119190476Y-101000000D01*
X120000000Y-101904761D02*
X119904761Y-101952380D01*
X119714285Y-101952380D01*
X119619047Y-101904761D01*
X119571428Y-101809523D01*
X119571428Y-101428571D01*
X119619047Y-101333333D01*
X119714285Y-101285714D01*
X119904761Y-101285714D01*
X120000000Y-101333333D01*
X120047619Y-101428571D01*
X120047619Y-101523809D01*
X119571428Y-101619047D01*
X120476190Y-101285714D02*
X120476190Y-101952380D01*
X120476190Y-101380952D02*
X120523809Y-101333333D01*
X120619047Y-101285714D01*
X120761904Y-101285714D01*
X120857142Y-101333333D01*
X120904761Y-101428571D01*
X120904761Y-101952380D01*
X121333333Y-101904761D02*
X121428571Y-101952380D01*
X121619047Y-101952380D01*
X121714285Y-101904761D01*
X121761904Y-101809523D01*
X121761904Y-101761904D01*
X121714285Y-101666666D01*
X121619047Y-101619047D01*
X121476190Y-101619047D01*
X121380952Y-101571428D01*
X121333333Y-101476190D01*
X121333333Y-101428571D01*
X121380952Y-101333333D01*
X121476190Y-101285714D01*
X121619047Y-101285714D01*
X121714285Y-101333333D01*
X122571428Y-101904761D02*
X122476190Y-101952380D01*
X122285714Y-101952380D01*
X122190476Y-101904761D01*
X122142857Y-101809523D01*
X122142857Y-101428571D01*
X122190476Y-101333333D01*
X122285714Y-101285714D01*
X122476190Y-101285714D01*
X122571428Y-101333333D01*
X122619047Y-101428571D01*
X122619047Y-101523809D01*
X122142857Y-101619047D01*
X127988095Y-100000000D02*
X127892857Y-99952380D01*
X127750000Y-99952380D01*
X127607142Y-100000000D01*
X127511904Y-100095238D01*
X127464285Y-100190476D01*
X127416666Y-100380952D01*
X127416666Y-100523809D01*
X127464285Y-100714285D01*
X127511904Y-100809523D01*
X127607142Y-100904761D01*
X127750000Y-100952380D01*
X127845238Y-100952380D01*
X127988095Y-100904761D01*
X128035714Y-100857142D01*
X128035714Y-100523809D01*
X127845238Y-100523809D01*
X128464285Y-100952380D02*
X128464285Y-99952380D01*
X129035714Y-100952380D01*
X129035714Y-99952380D01*
X129511904Y-100952380D02*
X129511904Y-99952380D01*
X129750000Y-99952380D01*
X129892857Y-100000000D01*
X129988095Y-100095238D01*
X130035714Y-100190476D01*
X130083333Y-100380952D01*
X130083333Y-100523809D01*
X130035714Y-100714285D01*
X129988095Y-100809523D01*
X129892857Y-100904761D01*
X129750000Y-100952380D01*
X129511904Y-100952380D01*
X126976190Y-97916666D02*
X127452380Y-97916666D01*
X126880952Y-98202380D02*
X127214285Y-97202380D01*
X127547619Y-98202380D01*
X128023809Y-98202380D02*
X127928571Y-98154761D01*
X127880952Y-98059523D01*
X127880952Y-97202380D01*
X128785714Y-98154761D02*
X128690476Y-98202380D01*
X128500000Y-98202380D01*
X128404761Y-98154761D01*
X128357142Y-98059523D01*
X128357142Y-97678571D01*
X128404761Y-97583333D01*
X128500000Y-97535714D01*
X128690476Y-97535714D01*
X128785714Y-97583333D01*
X128833333Y-97678571D01*
X128833333Y-97773809D01*
X128357142Y-97869047D01*
X129261904Y-98202380D02*
X129261904Y-97535714D01*
X129261904Y-97726190D02*
X129309523Y-97630952D01*
X129357142Y-97583333D01*
X129452380Y-97535714D01*
X129547619Y-97535714D01*
X129738095Y-97535714D02*
X130119047Y-97535714D01*
X129880952Y-97202380D02*
X129880952Y-98059523D01*
X129928571Y-98154761D01*
X130023809Y-98202380D01*
X130119047Y-98202380D01*
X127559523Y-95654761D02*
X127702380Y-95702380D01*
X127940476Y-95702380D01*
X128035714Y-95654761D01*
X128083333Y-95607142D01*
X128130952Y-95511904D01*
X128130952Y-95416666D01*
X128083333Y-95321428D01*
X128035714Y-95273809D01*
X127940476Y-95226190D01*
X127750000Y-95178571D01*
X127654761Y-95130952D01*
X127607142Y-95083333D01*
X127559523Y-94988095D01*
X127559523Y-94892857D01*
X127607142Y-94797619D01*
X127654761Y-94750000D01*
X127750000Y-94702380D01*
X127988095Y-94702380D01*
X128130952Y-94750000D01*
X129130952Y-95607142D02*
X129083333Y-95654761D01*
X128940476Y-95702380D01*
X128845238Y-95702380D01*
X128702380Y-95654761D01*
X128607142Y-95559523D01*
X128559523Y-95464285D01*
X128511904Y-95273809D01*
X128511904Y-95130952D01*
X128559523Y-94940476D01*
X128607142Y-94845238D01*
X128702380Y-94750000D01*
X128845238Y-94702380D01*
X128940476Y-94702380D01*
X129083333Y-94750000D01*
X129130952Y-94797619D01*
X130035714Y-95702380D02*
X129559523Y-95702380D01*
X129559523Y-94702380D01*
X127535714Y-93154761D02*
X127678571Y-93202380D01*
X127916666Y-93202380D01*
X128011904Y-93154761D01*
X128059523Y-93107142D01*
X128107142Y-93011904D01*
X128107142Y-92916666D01*
X128059523Y-92821428D01*
X128011904Y-92773809D01*
X127916666Y-92726190D01*
X127726190Y-92678571D01*
X127630952Y-92630952D01*
X127583333Y-92583333D01*
X127535714Y-92488095D01*
X127535714Y-92392857D01*
X127583333Y-92297619D01*
X127630952Y-92250000D01*
X127726190Y-92202380D01*
X127964285Y-92202380D01*
X128107142Y-92250000D01*
X128535714Y-93202380D02*
X128535714Y-92202380D01*
X128773809Y-92202380D01*
X128916666Y-92250000D01*
X129011904Y-92345238D01*
X129059523Y-92440476D01*
X129107142Y-92630952D01*
X129107142Y-92773809D01*
X129059523Y-92964285D01*
X129011904Y-93059523D01*
X128916666Y-93154761D01*
X128773809Y-93202380D01*
X128535714Y-93202380D01*
X129488095Y-92916666D02*
X129964285Y-92916666D01*
X129392857Y-93202380D02*
X129726190Y-92202380D01*
X130059523Y-93202380D01*
X128297619Y-89702380D02*
X128630952Y-90702380D01*
X128964285Y-89702380D01*
X129297619Y-90321428D02*
X130059523Y-90321428D01*
X129678571Y-90702380D02*
X129678571Y-89940476D01*
D12*
X101792857Y-101335714D02*
X102707142Y-101335714D01*
X101542857Y-89085714D02*
X102457142Y-89085714D01*
X102000000Y-89542857D02*
X102000000Y-88628571D01*
D11*
X141700000Y-89361904D02*
X141433333Y-88980952D01*
X141242857Y-89361904D02*
X141242857Y-88561904D01*
X141547619Y-88561904D01*
X141623809Y-88600000D01*
X141661904Y-88638095D01*
X141700000Y-88714285D01*
X141700000Y-88828571D01*
X141661904Y-88904761D01*
X141623809Y-88942857D01*
X141547619Y-88980952D01*
X141242857Y-88980952D01*
X142347619Y-89323809D02*
X142271428Y-89361904D01*
X142119047Y-89361904D01*
X142042857Y-89323809D01*
X142004761Y-89247619D01*
X142004761Y-88942857D01*
X142042857Y-88866666D01*
X142119047Y-88828571D01*
X142271428Y-88828571D01*
X142347619Y-88866666D01*
X142385714Y-88942857D01*
X142385714Y-89019047D01*
X142004761Y-89095238D01*
X142652380Y-88828571D02*
X142842857Y-89361904D01*
X143033333Y-88828571D01*
X143604761Y-88942857D02*
X143719047Y-88980952D01*
X143757142Y-89019047D01*
X143795238Y-89095238D01*
X143795238Y-89209523D01*
X143757142Y-89285714D01*
X143719047Y-89323809D01*
X143642857Y-89361904D01*
X143338095Y-89361904D01*
X143338095Y-88561904D01*
X143604761Y-88561904D01*
X143680952Y-88600000D01*
X143719047Y-88638095D01*
X143757142Y-88714285D01*
X143757142Y-88790476D01*
X143719047Y-88866666D01*
X143680952Y-88904761D01*
X143604761Y-88942857D01*
X143338095Y-88942857D01*
D10*
X150964285Y-88502380D02*
X151059523Y-88502380D01*
X151154761Y-88550000D01*
X151202380Y-88597619D01*
X151250000Y-88692857D01*
X151297619Y-88883333D01*
X151297619Y-89121428D01*
X151250000Y-89311904D01*
X151202380Y-89407142D01*
X151154761Y-89454761D01*
X151059523Y-89502380D01*
X150964285Y-89502380D01*
X150869047Y-89454761D01*
X150821428Y-89407142D01*
X150773809Y-89311904D01*
X150726190Y-89121428D01*
X150726190Y-88883333D01*
X150773809Y-88692857D01*
X150821428Y-88597619D01*
X150869047Y-88550000D01*
X150964285Y-88502380D01*
X151726190Y-89121428D02*
X152488095Y-89121428D01*
X153488095Y-89502380D02*
X152916666Y-89502380D01*
X153202380Y-89502380D02*
X153202380Y-88502380D01*
X153107142Y-88645238D01*
X153011904Y-88740476D01*
X152916666Y-88788095D01*
X154107142Y-88502380D02*
X154202380Y-88502380D01*
X154297619Y-88550000D01*
X154345238Y-88597619D01*
X154392857Y-88692857D01*
X154440476Y-88883333D01*
X154440476Y-89121428D01*
X154392857Y-89311904D01*
X154345238Y-89407142D01*
X154297619Y-89454761D01*
X154202380Y-89502380D01*
X154107142Y-89502380D01*
X154011904Y-89454761D01*
X153964285Y-89407142D01*
X153916666Y-89311904D01*
X153869047Y-89121428D01*
X153869047Y-88883333D01*
X153916666Y-88692857D01*
X153964285Y-88597619D01*
X154011904Y-88550000D01*
X154107142Y-88502380D01*
X154821428Y-89216666D02*
X155297619Y-89216666D01*
X154726190Y-89502380D02*
X155059523Y-88502380D01*
X155392857Y-89502380D01*
X156678571Y-88502380D02*
X156773809Y-88502380D01*
X156869047Y-88550000D01*
X156916666Y-88597619D01*
X156964285Y-88692857D01*
X157011904Y-88883333D01*
X157011904Y-89121428D01*
X156964285Y-89311904D01*
X156916666Y-89407142D01*
X156869047Y-89454761D01*
X156773809Y-89502380D01*
X156678571Y-89502380D01*
X156583333Y-89454761D01*
X156535714Y-89407142D01*
X156488095Y-89311904D01*
X156440476Y-89121428D01*
X156440476Y-88883333D01*
X156488095Y-88692857D01*
X156535714Y-88597619D01*
X156583333Y-88550000D01*
X156678571Y-88502380D01*
X157440476Y-89121428D02*
X158202380Y-89121428D01*
X158630952Y-88597619D02*
X158678571Y-88550000D01*
X158773809Y-88502380D01*
X159011904Y-88502380D01*
X159107142Y-88550000D01*
X159154761Y-88597619D01*
X159202380Y-88692857D01*
X159202380Y-88788095D01*
X159154761Y-88930952D01*
X158583333Y-89502380D01*
X159202380Y-89502380D01*
X160059523Y-88502380D02*
X159869047Y-88502380D01*
X159773809Y-88550000D01*
X159726190Y-88597619D01*
X159630952Y-88740476D01*
X159583333Y-88930952D01*
X159583333Y-89311904D01*
X159630952Y-89407142D01*
X159678571Y-89454761D01*
X159773809Y-89502380D01*
X159964285Y-89502380D01*
X160059523Y-89454761D01*
X160107142Y-89407142D01*
X160154761Y-89311904D01*
X160154761Y-89073809D01*
X160107142Y-88978571D01*
X160059523Y-88930952D01*
X159964285Y-88883333D01*
X159773809Y-88883333D01*
X159678571Y-88930952D01*
X159630952Y-88978571D01*
X159583333Y-89073809D01*
X160440476Y-88502380D02*
X160773809Y-89502380D01*
X161107142Y-88502380D01*
X162202380Y-89502380D02*
X162202380Y-88502380D01*
X162440476Y-88502380D01*
X162583333Y-88550000D01*
X162678571Y-88645238D01*
X162726190Y-88740476D01*
X162773809Y-88930952D01*
X162773809Y-89073809D01*
X162726190Y-89264285D01*
X162678571Y-89359523D01*
X162583333Y-89454761D01*
X162440476Y-89502380D01*
X162202380Y-89502380D01*
X163773809Y-89407142D02*
X163726190Y-89454761D01*
X163583333Y-89502380D01*
X163488095Y-89502380D01*
X163345238Y-89454761D01*
X163250000Y-89359523D01*
X163202380Y-89264285D01*
X163154761Y-89073809D01*
X163154761Y-88930952D01*
X163202380Y-88740476D01*
X163250000Y-88645238D01*
X163345238Y-88550000D01*
X163488095Y-88502380D01*
X163583333Y-88502380D01*
X163726190Y-88550000D01*
X163773809Y-88597619D01*
X142428571Y-101952380D02*
X142428571Y-100952380D01*
X142904761Y-101952380D02*
X142904761Y-100952380D01*
X143476190Y-101952380D01*
X143476190Y-100952380D01*
X143904761Y-101666666D02*
X144380952Y-101666666D01*
X143809523Y-101952380D02*
X144142857Y-100952380D01*
X144476190Y-101952380D01*
X144761904Y-101047619D02*
X144809523Y-101000000D01*
X144904761Y-100952380D01*
X145142857Y-100952380D01*
X145238095Y-101000000D01*
X145285714Y-101047619D01*
X145333333Y-101142857D01*
X145333333Y-101238095D01*
X145285714Y-101380952D01*
X144714285Y-101952380D01*
X145333333Y-101952380D01*
X145714285Y-101047619D02*
X145761904Y-101000000D01*
X145857142Y-100952380D01*
X146095238Y-100952380D01*
X146190476Y-101000000D01*
X146238095Y-101047619D01*
X146285714Y-101142857D01*
X146285714Y-101238095D01*
X146238095Y-101380952D01*
X145666666Y-101952380D01*
X146285714Y-101952380D01*
X146904761Y-100952380D02*
X147000000Y-100952380D01*
X147095238Y-101000000D01*
X147142857Y-101047619D01*
X147190476Y-101142857D01*
X147238095Y-101333333D01*
X147238095Y-101571428D01*
X147190476Y-101761904D01*
X147142857Y-101857142D01*
X147095238Y-101904761D01*
X147000000Y-101952380D01*
X146904761Y-101952380D01*
X146809523Y-101904761D01*
X146761904Y-101857142D01*
X146714285Y-101761904D01*
X146666666Y-101571428D01*
X146666666Y-101333333D01*
X146714285Y-101142857D01*
X146761904Y-101047619D01*
X146809523Y-101000000D01*
X146904761Y-100952380D01*
X149000000Y-101857142D02*
X148952380Y-101904761D01*
X148809523Y-101952380D01*
X148714285Y-101952380D01*
X148571428Y-101904761D01*
X148476190Y-101809523D01*
X148428571Y-101714285D01*
X148380952Y-101523809D01*
X148380952Y-101380952D01*
X148428571Y-101190476D01*
X148476190Y-101095238D01*
X148571428Y-101000000D01*
X148714285Y-100952380D01*
X148809523Y-100952380D01*
X148952380Y-101000000D01*
X149000000Y-101047619D01*
X149857142Y-101285714D02*
X149857142Y-101952380D01*
X149428571Y-101285714D02*
X149428571Y-101809523D01*
X149476190Y-101904761D01*
X149571428Y-101952380D01*
X149714285Y-101952380D01*
X149809523Y-101904761D01*
X149857142Y-101857142D01*
X150333333Y-101952380D02*
X150333333Y-101285714D01*
X150333333Y-101476190D02*
X150380952Y-101380952D01*
X150428571Y-101333333D01*
X150523809Y-101285714D01*
X150619047Y-101285714D01*
X150952380Y-101952380D02*
X150952380Y-101285714D01*
X150952380Y-101476190D02*
X151000000Y-101380952D01*
X151047619Y-101333333D01*
X151142857Y-101285714D01*
X151238095Y-101285714D01*
X151952380Y-101904761D02*
X151857142Y-101952380D01*
X151666666Y-101952380D01*
X151571428Y-101904761D01*
X151523809Y-101809523D01*
X151523809Y-101428571D01*
X151571428Y-101333333D01*
X151666666Y-101285714D01*
X151857142Y-101285714D01*
X151952380Y-101333333D01*
X152000000Y-101428571D01*
X152000000Y-101523809D01*
X151523809Y-101619047D01*
X152428571Y-101285714D02*
X152428571Y-101952380D01*
X152428571Y-101380952D02*
X152476190Y-101333333D01*
X152571428Y-101285714D01*
X152714285Y-101285714D01*
X152809523Y-101333333D01*
X152857142Y-101428571D01*
X152857142Y-101952380D01*
X153190476Y-101285714D02*
X153571428Y-101285714D01*
X153333333Y-100952380D02*
X153333333Y-101809523D01*
X153380952Y-101904761D01*
X153476190Y-101952380D01*
X153571428Y-101952380D01*
X154619047Y-101904761D02*
X154761904Y-101952380D01*
X155000000Y-101952380D01*
X155095238Y-101904761D01*
X155142857Y-101857142D01*
X155190476Y-101761904D01*
X155190476Y-101666666D01*
X155142857Y-101571428D01*
X155095238Y-101523809D01*
X155000000Y-101476190D01*
X154809523Y-101428571D01*
X154714285Y-101380952D01*
X154666666Y-101333333D01*
X154619047Y-101238095D01*
X154619047Y-101142857D01*
X154666666Y-101047619D01*
X154714285Y-101000000D01*
X154809523Y-100952380D01*
X155047619Y-100952380D01*
X155190476Y-101000000D01*
X156000000Y-101904761D02*
X155904761Y-101952380D01*
X155714285Y-101952380D01*
X155619047Y-101904761D01*
X155571428Y-101809523D01*
X155571428Y-101428571D01*
X155619047Y-101333333D01*
X155714285Y-101285714D01*
X155904761Y-101285714D01*
X156000000Y-101333333D01*
X156047619Y-101428571D01*
X156047619Y-101523809D01*
X155571428Y-101619047D01*
X156476190Y-101285714D02*
X156476190Y-101952380D01*
X156476190Y-101380952D02*
X156523809Y-101333333D01*
X156619047Y-101285714D01*
X156761904Y-101285714D01*
X156857142Y-101333333D01*
X156904761Y-101428571D01*
X156904761Y-101952380D01*
X157333333Y-101904761D02*
X157428571Y-101952380D01*
X157619047Y-101952380D01*
X157714285Y-101904761D01*
X157761904Y-101809523D01*
X157761904Y-101761904D01*
X157714285Y-101666666D01*
X157619047Y-101619047D01*
X157476190Y-101619047D01*
X157380952Y-101571428D01*
X157333333Y-101476190D01*
X157333333Y-101428571D01*
X157380952Y-101333333D01*
X157476190Y-101285714D01*
X157619047Y-101285714D01*
X157714285Y-101333333D01*
X158571428Y-101904761D02*
X158476190Y-101952380D01*
X158285714Y-101952380D01*
X158190476Y-101904761D01*
X158142857Y-101809523D01*
X158142857Y-101428571D01*
X158190476Y-101333333D01*
X158285714Y-101285714D01*
X158476190Y-101285714D01*
X158571428Y-101333333D01*
X158619047Y-101428571D01*
X158619047Y-101523809D01*
X158142857Y-101619047D01*
X163988095Y-100000000D02*
X163892857Y-99952380D01*
X163750000Y-99952380D01*
X163607142Y-100000000D01*
X163511904Y-100095238D01*
X163464285Y-100190476D01*
X163416666Y-100380952D01*
X163416666Y-100523809D01*
X163464285Y-100714285D01*
X163511904Y-100809523D01*
X163607142Y-100904761D01*
X163750000Y-100952380D01*
X163845238Y-100952380D01*
X163988095Y-100904761D01*
X164035714Y-100857142D01*
X164035714Y-100523809D01*
X163845238Y-100523809D01*
X164464285Y-100952380D02*
X164464285Y-99952380D01*
X165035714Y-100952380D01*
X165035714Y-99952380D01*
X165511904Y-100952380D02*
X165511904Y-99952380D01*
X165750000Y-99952380D01*
X165892857Y-100000000D01*
X165988095Y-100095238D01*
X166035714Y-100190476D01*
X166083333Y-100380952D01*
X166083333Y-100523809D01*
X166035714Y-100714285D01*
X165988095Y-100809523D01*
X165892857Y-100904761D01*
X165750000Y-100952380D01*
X165511904Y-100952380D01*
X162976190Y-97916666D02*
X163452380Y-97916666D01*
X162880952Y-98202380D02*
X163214285Y-97202380D01*
X163547619Y-98202380D01*
X164023809Y-98202380D02*
X163928571Y-98154761D01*
X163880952Y-98059523D01*
X163880952Y-97202380D01*
X164785714Y-98154761D02*
X164690476Y-98202380D01*
X164500000Y-98202380D01*
X164404761Y-98154761D01*
X164357142Y-98059523D01*
X164357142Y-97678571D01*
X164404761Y-97583333D01*
X164500000Y-97535714D01*
X164690476Y-97535714D01*
X164785714Y-97583333D01*
X164833333Y-97678571D01*
X164833333Y-97773809D01*
X164357142Y-97869047D01*
X165261904Y-98202380D02*
X165261904Y-97535714D01*
X165261904Y-97726190D02*
X165309523Y-97630952D01*
X165357142Y-97583333D01*
X165452380Y-97535714D01*
X165547619Y-97535714D01*
X165738095Y-97535714D02*
X166119047Y-97535714D01*
X165880952Y-97202380D02*
X165880952Y-98059523D01*
X165928571Y-98154761D01*
X166023809Y-98202380D01*
X166119047Y-98202380D01*
X163559523Y-95654761D02*
X163702380Y-95702380D01*
X163940476Y-95702380D01*
X164035714Y-95654761D01*
X164083333Y-95607142D01*
X164130952Y-95511904D01*
X164130952Y-95416666D01*
X164083333Y-95321428D01*
X164035714Y-95273809D01*
X163940476Y-95226190D01*
X163750000Y-95178571D01*
X163654761Y-95130952D01*
X163607142Y-95083333D01*
X163559523Y-94988095D01*
X163559523Y-94892857D01*
X163607142Y-94797619D01*
X163654761Y-94750000D01*
X163750000Y-94702380D01*
X163988095Y-94702380D01*
X164130952Y-94750000D01*
X165130952Y-95607142D02*
X165083333Y-95654761D01*
X164940476Y-95702380D01*
X164845238Y-95702380D01*
X164702380Y-95654761D01*
X164607142Y-95559523D01*
X164559523Y-95464285D01*
X164511904Y-95273809D01*
X164511904Y-95130952D01*
X164559523Y-94940476D01*
X164607142Y-94845238D01*
X164702380Y-94750000D01*
X164845238Y-94702380D01*
X164940476Y-94702380D01*
X165083333Y-94750000D01*
X165130952Y-94797619D01*
X166035714Y-95702380D02*
X165559523Y-95702380D01*
X165559523Y-94702380D01*
X163535714Y-93154761D02*
X163678571Y-93202380D01*
X163916666Y-93202380D01*
X164011904Y-93154761D01*
X164059523Y-93107142D01*
X164107142Y-93011904D01*
X164107142Y-92916666D01*
X164059523Y-92821428D01*
X164011904Y-92773809D01*
X163916666Y-92726190D01*
X163726190Y-92678571D01*
X163630952Y-92630952D01*
X163583333Y-92583333D01*
X163535714Y-92488095D01*
X163535714Y-92392857D01*
X163583333Y-92297619D01*
X163630952Y-92250000D01*
X163726190Y-92202380D01*
X163964285Y-92202380D01*
X164107142Y-92250000D01*
X164535714Y-93202380D02*
X164535714Y-92202380D01*
X164773809Y-92202380D01*
X164916666Y-92250000D01*
X165011904Y-92345238D01*
X165059523Y-92440476D01*
X165107142Y-92630952D01*
X165107142Y-92773809D01*
X165059523Y-92964285D01*
X165011904Y-93059523D01*
X164916666Y-93154761D01*
X164773809Y-93202380D01*
X164535714Y-93202380D01*
X165488095Y-92916666D02*
X165964285Y-92916666D01*
X165392857Y-93202380D02*
X165726190Y-92202380D01*
X166059523Y-93202380D01*
X164297619Y-89702380D02*
X164630952Y-90702380D01*
X164964285Y-89702380D01*
X165297619Y-90321428D02*
X166059523Y-90321428D01*
X165678571Y-90702380D02*
X165678571Y-89940476D01*
D12*
X137792857Y-101335714D02*
X138707142Y-101335714D01*
X137542857Y-89085714D02*
X138457142Y-89085714D01*
X138000000Y-89542857D02*
X138000000Y-88628571D01*
D11*
X105700000Y-103361904D02*
X105433333Y-102980952D01*
X105242857Y-103361904D02*
X105242857Y-102561904D01*
X105547619Y-102561904D01*
X105623809Y-102600000D01*
X105661904Y-102638095D01*
X105700000Y-102714285D01*
X105700000Y-102828571D01*
X105661904Y-102904761D01*
X105623809Y-102942857D01*
X105547619Y-102980952D01*
X105242857Y-102980952D01*
X106347619Y-103323809D02*
X106271428Y-103361904D01*
X106119047Y-103361904D01*
X106042857Y-103323809D01*
X106004761Y-103247619D01*
X106004761Y-102942857D01*
X106042857Y-102866666D01*
X106119047Y-102828571D01*
X106271428Y-102828571D01*
X106347619Y-102866666D01*
X106385714Y-102942857D01*
X106385714Y-103019047D01*
X106004761Y-103095238D01*
X106652380Y-102828571D02*
X106842857Y-103361904D01*
X107033333Y-102828571D01*
X107604761Y-102942857D02*
X107719047Y-102980952D01*
X107757142Y-103019047D01*
X107795238Y-103095238D01*
X107795238Y-103209523D01*
X107757142Y-103285714D01*
X107719047Y-103323809D01*
X107642857Y-103361904D01*
X107338095Y-103361904D01*
X107338095Y-102561904D01*
X107604761Y-102561904D01*
X107680952Y-102600000D01*
X107719047Y-102638095D01*
X107757142Y-102714285D01*
X107757142Y-102790476D01*
X107719047Y-102866666D01*
X107680952Y-102904761D01*
X107604761Y-102942857D01*
X107338095Y-102942857D01*
D10*
X114964285Y-102502380D02*
X115059523Y-102502380D01*
X115154761Y-102550000D01*
X115202380Y-102597619D01*
X115250000Y-102692857D01*
X115297619Y-102883333D01*
X115297619Y-103121428D01*
X115250000Y-103311904D01*
X115202380Y-103407142D01*
X115154761Y-103454761D01*
X115059523Y-103502380D01*
X114964285Y-103502380D01*
X114869047Y-103454761D01*
X114821428Y-103407142D01*
X114773809Y-103311904D01*
X114726190Y-103121428D01*
X114726190Y-102883333D01*
X114773809Y-102692857D01*
X114821428Y-102597619D01*
X114869047Y-102550000D01*
X114964285Y-102502380D01*
X115726190Y-103121428D02*
X116488095Y-103121428D01*
X117488095Y-103502380D02*
X116916666Y-103502380D01*
X117202380Y-103502380D02*
X117202380Y-102502380D01*
X117107142Y-102645238D01*
X117011904Y-102740476D01*
X116916666Y-102788095D01*
X118107142Y-102502380D02*
X118202380Y-102502380D01*
X118297619Y-102550000D01*
X118345238Y-102597619D01*
X118392857Y-102692857D01*
X118440476Y-102883333D01*
X118440476Y-103121428D01*
X118392857Y-103311904D01*
X118345238Y-103407142D01*
X118297619Y-103454761D01*
X118202380Y-103502380D01*
X118107142Y-103502380D01*
X118011904Y-103454761D01*
X117964285Y-103407142D01*
X117916666Y-103311904D01*
X117869047Y-103121428D01*
X117869047Y-102883333D01*
X117916666Y-102692857D01*
X117964285Y-102597619D01*
X118011904Y-102550000D01*
X118107142Y-102502380D01*
X118821428Y-103216666D02*
X119297619Y-103216666D01*
X118726190Y-103502380D02*
X119059523Y-102502380D01*
X119392857Y-103502380D01*
X120678571Y-102502380D02*
X120773809Y-102502380D01*
X120869047Y-102550000D01*
X120916666Y-102597619D01*
X120964285Y-102692857D01*
X121011904Y-102883333D01*
X121011904Y-103121428D01*
X120964285Y-103311904D01*
X120916666Y-103407142D01*
X120869047Y-103454761D01*
X120773809Y-103502380D01*
X120678571Y-103502380D01*
X120583333Y-103454761D01*
X120535714Y-103407142D01*
X120488095Y-103311904D01*
X120440476Y-103121428D01*
X120440476Y-102883333D01*
X120488095Y-102692857D01*
X120535714Y-102597619D01*
X120583333Y-102550000D01*
X120678571Y-102502380D01*
X121440476Y-103121428D02*
X122202380Y-103121428D01*
X122630952Y-102597619D02*
X122678571Y-102550000D01*
X122773809Y-102502380D01*
X123011904Y-102502380D01*
X123107142Y-102550000D01*
X123154761Y-102597619D01*
X123202380Y-102692857D01*
X123202380Y-102788095D01*
X123154761Y-102930952D01*
X122583333Y-103502380D01*
X123202380Y-103502380D01*
X124059523Y-102502380D02*
X123869047Y-102502380D01*
X123773809Y-102550000D01*
X123726190Y-102597619D01*
X123630952Y-102740476D01*
X123583333Y-102930952D01*
X123583333Y-103311904D01*
X123630952Y-103407142D01*
X123678571Y-103454761D01*
X123773809Y-103502380D01*
X123964285Y-103502380D01*
X124059523Y-103454761D01*
X124107142Y-103407142D01*
X124154761Y-103311904D01*
X124154761Y-103073809D01*
X124107142Y-102978571D01*
X124059523Y-102930952D01*
X123964285Y-102883333D01*
X123773809Y-102883333D01*
X123678571Y-102930952D01*
X123630952Y-102978571D01*
X123583333Y-103073809D01*
X124440476Y-102502380D02*
X124773809Y-103502380D01*
X125107142Y-102502380D01*
X126202380Y-103502380D02*
X126202380Y-102502380D01*
X126440476Y-102502380D01*
X126583333Y-102550000D01*
X126678571Y-102645238D01*
X126726190Y-102740476D01*
X126773809Y-102930952D01*
X126773809Y-103073809D01*
X126726190Y-103264285D01*
X126678571Y-103359523D01*
X126583333Y-103454761D01*
X126440476Y-103502380D01*
X126202380Y-103502380D01*
X127773809Y-103407142D02*
X127726190Y-103454761D01*
X127583333Y-103502380D01*
X127488095Y-103502380D01*
X127345238Y-103454761D01*
X127250000Y-103359523D01*
X127202380Y-103264285D01*
X127154761Y-103073809D01*
X127154761Y-102930952D01*
X127202380Y-102740476D01*
X127250000Y-102645238D01*
X127345238Y-102550000D01*
X127488095Y-102502380D01*
X127583333Y-102502380D01*
X127726190Y-102550000D01*
X127773809Y-102597619D01*
X106428571Y-115952380D02*
X106428571Y-114952380D01*
X106904761Y-115952380D02*
X106904761Y-114952380D01*
X107476190Y-115952380D01*
X107476190Y-114952380D01*
X107904761Y-115666666D02*
X108380952Y-115666666D01*
X107809523Y-115952380D02*
X108142857Y-114952380D01*
X108476190Y-115952380D01*
X108761904Y-115047619D02*
X108809523Y-115000000D01*
X108904761Y-114952380D01*
X109142857Y-114952380D01*
X109238095Y-115000000D01*
X109285714Y-115047619D01*
X109333333Y-115142857D01*
X109333333Y-115238095D01*
X109285714Y-115380952D01*
X108714285Y-115952380D01*
X109333333Y-115952380D01*
X109714285Y-115047619D02*
X109761904Y-115000000D01*
X109857142Y-114952380D01*
X110095238Y-114952380D01*
X110190476Y-115000000D01*
X110238095Y-115047619D01*
X110285714Y-115142857D01*
X110285714Y-115238095D01*
X110238095Y-115380952D01*
X109666666Y-115952380D01*
X110285714Y-115952380D01*
X110904761Y-114952380D02*
X111000000Y-114952380D01*
X111095238Y-115000000D01*
X111142857Y-115047619D01*
X111190476Y-115142857D01*
X111238095Y-115333333D01*
X111238095Y-115571428D01*
X111190476Y-115761904D01*
X111142857Y-115857142D01*
X111095238Y-115904761D01*
X111000000Y-115952380D01*
X110904761Y-115952380D01*
X110809523Y-115904761D01*
X110761904Y-115857142D01*
X110714285Y-115761904D01*
X110666666Y-115571428D01*
X110666666Y-115333333D01*
X110714285Y-115142857D01*
X110761904Y-115047619D01*
X110809523Y-115000000D01*
X110904761Y-114952380D01*
X113000000Y-115857142D02*
X112952380Y-115904761D01*
X112809523Y-115952380D01*
X112714285Y-115952380D01*
X112571428Y-115904761D01*
X112476190Y-115809523D01*
X112428571Y-115714285D01*
X112380952Y-115523809D01*
X112380952Y-115380952D01*
X112428571Y-115190476D01*
X112476190Y-115095238D01*
X112571428Y-115000000D01*
X112714285Y-114952380D01*
X112809523Y-114952380D01*
X112952380Y-115000000D01*
X113000000Y-115047619D01*
X113857142Y-115285714D02*
X113857142Y-115952380D01*
X113428571Y-115285714D02*
X113428571Y-115809523D01*
X113476190Y-115904761D01*
X113571428Y-115952380D01*
X113714285Y-115952380D01*
X113809523Y-115904761D01*
X113857142Y-115857142D01*
X114333333Y-115952380D02*
X114333333Y-115285714D01*
X114333333Y-115476190D02*
X114380952Y-115380952D01*
X114428571Y-115333333D01*
X114523809Y-115285714D01*
X114619047Y-115285714D01*
X114952380Y-115952380D02*
X114952380Y-115285714D01*
X114952380Y-115476190D02*
X115000000Y-115380952D01*
X115047619Y-115333333D01*
X115142857Y-115285714D01*
X115238095Y-115285714D01*
X115952380Y-115904761D02*
X115857142Y-115952380D01*
X115666666Y-115952380D01*
X115571428Y-115904761D01*
X115523809Y-115809523D01*
X115523809Y-115428571D01*
X115571428Y-115333333D01*
X115666666Y-115285714D01*
X115857142Y-115285714D01*
X115952380Y-115333333D01*
X116000000Y-115428571D01*
X116000000Y-115523809D01*
X115523809Y-115619047D01*
X116428571Y-115285714D02*
X116428571Y-115952380D01*
X116428571Y-115380952D02*
X116476190Y-115333333D01*
X116571428Y-115285714D01*
X116714285Y-115285714D01*
X116809523Y-115333333D01*
X116857142Y-115428571D01*
X116857142Y-115952380D01*
X117190476Y-115285714D02*
X117571428Y-115285714D01*
X117333333Y-114952380D02*
X117333333Y-115809523D01*
X117380952Y-115904761D01*
X117476190Y-115952380D01*
X117571428Y-115952380D01*
X118619047Y-115904761D02*
X118761904Y-115952380D01*
X119000000Y-115952380D01*
X119095238Y-115904761D01*
X119142857Y-115857142D01*
X119190476Y-115761904D01*
X119190476Y-115666666D01*
X119142857Y-115571428D01*
X119095238Y-115523809D01*
X119000000Y-115476190D01*
X118809523Y-115428571D01*
X118714285Y-115380952D01*
X118666666Y-115333333D01*
X118619047Y-115238095D01*
X118619047Y-115142857D01*
X118666666Y-115047619D01*
X118714285Y-115000000D01*
X118809523Y-114952380D01*
X119047619Y-114952380D01*
X119190476Y-115000000D01*
X120000000Y-115904761D02*
X119904761Y-115952380D01*
X119714285Y-115952380D01*
X119619047Y-115904761D01*
X119571428Y-115809523D01*
X119571428Y-115428571D01*
X119619047Y-115333333D01*
X119714285Y-115285714D01*
X119904761Y-115285714D01*
X120000000Y-115333333D01*
X120047619Y-115428571D01*
X120047619Y-115523809D01*
X119571428Y-115619047D01*
X120476190Y-115285714D02*
X120476190Y-115952380D01*
X120476190Y-115380952D02*
X120523809Y-115333333D01*
X120619047Y-115285714D01*
X120761904Y-115285714D01*
X120857142Y-115333333D01*
X120904761Y-115428571D01*
X120904761Y-115952380D01*
X121333333Y-115904761D02*
X121428571Y-115952380D01*
X121619047Y-115952380D01*
X121714285Y-115904761D01*
X121761904Y-115809523D01*
X121761904Y-115761904D01*
X121714285Y-115666666D01*
X121619047Y-115619047D01*
X121476190Y-115619047D01*
X121380952Y-115571428D01*
X121333333Y-115476190D01*
X121333333Y-115428571D01*
X121380952Y-115333333D01*
X121476190Y-115285714D01*
X121619047Y-115285714D01*
X121714285Y-115333333D01*
X122571428Y-115904761D02*
X122476190Y-115952380D01*
X122285714Y-115952380D01*
X122190476Y-115904761D01*
X122142857Y-115809523D01*
X122142857Y-115428571D01*
X122190476Y-115333333D01*
X122285714Y-115285714D01*
X122476190Y-115285714D01*
X122571428Y-115333333D01*
X122619047Y-115428571D01*
X122619047Y-115523809D01*
X122142857Y-115619047D01*
X127988095Y-114000000D02*
X127892857Y-113952380D01*
X127750000Y-113952380D01*
X127607142Y-114000000D01*
X127511904Y-114095238D01*
X127464285Y-114190476D01*
X127416666Y-114380952D01*
X127416666Y-114523809D01*
X127464285Y-114714285D01*
X127511904Y-114809523D01*
X127607142Y-114904761D01*
X127750000Y-114952380D01*
X127845238Y-114952380D01*
X127988095Y-114904761D01*
X128035714Y-114857142D01*
X128035714Y-114523809D01*
X127845238Y-114523809D01*
X128464285Y-114952380D02*
X128464285Y-113952380D01*
X129035714Y-114952380D01*
X129035714Y-113952380D01*
X129511904Y-114952380D02*
X129511904Y-113952380D01*
X129750000Y-113952380D01*
X129892857Y-114000000D01*
X129988095Y-114095238D01*
X130035714Y-114190476D01*
X130083333Y-114380952D01*
X130083333Y-114523809D01*
X130035714Y-114714285D01*
X129988095Y-114809523D01*
X129892857Y-114904761D01*
X129750000Y-114952380D01*
X129511904Y-114952380D01*
X126976190Y-111916666D02*
X127452380Y-111916666D01*
X126880952Y-112202380D02*
X127214285Y-111202380D01*
X127547619Y-112202380D01*
X128023809Y-112202380D02*
X127928571Y-112154761D01*
X127880952Y-112059523D01*
X127880952Y-111202380D01*
X128785714Y-112154761D02*
X128690476Y-112202380D01*
X128500000Y-112202380D01*
X128404761Y-112154761D01*
X128357142Y-112059523D01*
X128357142Y-111678571D01*
X128404761Y-111583333D01*
X128500000Y-111535714D01*
X128690476Y-111535714D01*
X128785714Y-111583333D01*
X128833333Y-111678571D01*
X128833333Y-111773809D01*
X128357142Y-111869047D01*
X129261904Y-112202380D02*
X129261904Y-111535714D01*
X129261904Y-111726190D02*
X129309523Y-111630952D01*
X129357142Y-111583333D01*
X129452380Y-111535714D01*
X129547619Y-111535714D01*
X129738095Y-111535714D02*
X130119047Y-111535714D01*
X129880952Y-111202380D02*
X129880952Y-112059523D01*
X129928571Y-112154761D01*
X130023809Y-112202380D01*
X130119047Y-112202380D01*
X127559523Y-109654761D02*
X127702380Y-109702380D01*
X127940476Y-109702380D01*
X128035714Y-109654761D01*
X128083333Y-109607142D01*
X128130952Y-109511904D01*
X128130952Y-109416666D01*
X128083333Y-109321428D01*
X128035714Y-109273809D01*
X127940476Y-109226190D01*
X127750000Y-109178571D01*
X127654761Y-109130952D01*
X127607142Y-109083333D01*
X127559523Y-108988095D01*
X127559523Y-108892857D01*
X127607142Y-108797619D01*
X127654761Y-108750000D01*
X127750000Y-108702380D01*
X127988095Y-108702380D01*
X128130952Y-108750000D01*
X129130952Y-109607142D02*
X129083333Y-109654761D01*
X128940476Y-109702380D01*
X128845238Y-109702380D01*
X128702380Y-109654761D01*
X128607142Y-109559523D01*
X128559523Y-109464285D01*
X128511904Y-109273809D01*
X128511904Y-109130952D01*
X128559523Y-108940476D01*
X128607142Y-108845238D01*
X128702380Y-108750000D01*
X128845238Y-108702380D01*
X128940476Y-108702380D01*
X129083333Y-108750000D01*
X129130952Y-108797619D01*
X130035714Y-109702380D02*
X129559523Y-109702380D01*
X129559523Y-108702380D01*
X127535714Y-107154761D02*
X127678571Y-107202380D01*
X127916666Y-107202380D01*
X128011904Y-107154761D01*
X128059523Y-107107142D01*
X128107142Y-107011904D01*
X128107142Y-106916666D01*
X128059523Y-106821428D01*
X128011904Y-106773809D01*
X127916666Y-106726190D01*
X127726190Y-106678571D01*
X127630952Y-106630952D01*
X127583333Y-106583333D01*
X127535714Y-106488095D01*
X127535714Y-106392857D01*
X127583333Y-106297619D01*
X127630952Y-106250000D01*
X127726190Y-106202380D01*
X127964285Y-106202380D01*
X128107142Y-106250000D01*
X128535714Y-107202380D02*
X128535714Y-106202380D01*
X128773809Y-106202380D01*
X128916666Y-106250000D01*
X129011904Y-106345238D01*
X129059523Y-106440476D01*
X129107142Y-106630952D01*
X129107142Y-106773809D01*
X129059523Y-106964285D01*
X129011904Y-107059523D01*
X128916666Y-107154761D01*
X128773809Y-107202380D01*
X128535714Y-107202380D01*
X129488095Y-106916666D02*
X129964285Y-106916666D01*
X129392857Y-107202380D02*
X129726190Y-106202380D01*
X130059523Y-107202380D01*
X128297619Y-103702380D02*
X128630952Y-104702380D01*
X128964285Y-103702380D01*
X129297619Y-104321428D02*
X130059523Y-104321428D01*
X129678571Y-104702380D02*
X129678571Y-103940476D01*
D12*
X101792857Y-115335714D02*
X102707142Y-115335714D01*
X101542857Y-103085714D02*
X102457142Y-103085714D01*
X102000000Y-103542857D02*
X102000000Y-102628571D01*
D11*
X141700000Y-103361904D02*
X141433333Y-102980952D01*
X141242857Y-103361904D02*
X141242857Y-102561904D01*
X141547619Y-102561904D01*
X141623809Y-102600000D01*
X141661904Y-102638095D01*
X141700000Y-102714285D01*
X141700000Y-102828571D01*
X141661904Y-102904761D01*
X141623809Y-102942857D01*
X141547619Y-102980952D01*
X141242857Y-102980952D01*
X142347619Y-103323809D02*
X142271428Y-103361904D01*
X142119047Y-103361904D01*
X142042857Y-103323809D01*
X142004761Y-103247619D01*
X142004761Y-102942857D01*
X142042857Y-102866666D01*
X142119047Y-102828571D01*
X142271428Y-102828571D01*
X142347619Y-102866666D01*
X142385714Y-102942857D01*
X142385714Y-103019047D01*
X142004761Y-103095238D01*
X142652380Y-102828571D02*
X142842857Y-103361904D01*
X143033333Y-102828571D01*
X143604761Y-102942857D02*
X143719047Y-102980952D01*
X143757142Y-103019047D01*
X143795238Y-103095238D01*
X143795238Y-103209523D01*
X143757142Y-103285714D01*
X143719047Y-103323809D01*
X143642857Y-103361904D01*
X143338095Y-103361904D01*
X143338095Y-102561904D01*
X143604761Y-102561904D01*
X143680952Y-102600000D01*
X143719047Y-102638095D01*
X143757142Y-102714285D01*
X143757142Y-102790476D01*
X143719047Y-102866666D01*
X143680952Y-102904761D01*
X143604761Y-102942857D01*
X143338095Y-102942857D01*
D10*
X150964285Y-102502380D02*
X151059523Y-102502380D01*
X151154761Y-102550000D01*
X151202380Y-102597619D01*
X151250000Y-102692857D01*
X151297619Y-102883333D01*
X151297619Y-103121428D01*
X151250000Y-103311904D01*
X151202380Y-103407142D01*
X151154761Y-103454761D01*
X151059523Y-103502380D01*
X150964285Y-103502380D01*
X150869047Y-103454761D01*
X150821428Y-103407142D01*
X150773809Y-103311904D01*
X150726190Y-103121428D01*
X150726190Y-102883333D01*
X150773809Y-102692857D01*
X150821428Y-102597619D01*
X150869047Y-102550000D01*
X150964285Y-102502380D01*
X151726190Y-103121428D02*
X152488095Y-103121428D01*
X153488095Y-103502380D02*
X152916666Y-103502380D01*
X153202380Y-103502380D02*
X153202380Y-102502380D01*
X153107142Y-102645238D01*
X153011904Y-102740476D01*
X152916666Y-102788095D01*
X154107142Y-102502380D02*
X154202380Y-102502380D01*
X154297619Y-102550000D01*
X154345238Y-102597619D01*
X154392857Y-102692857D01*
X154440476Y-102883333D01*
X154440476Y-103121428D01*
X154392857Y-103311904D01*
X154345238Y-103407142D01*
X154297619Y-103454761D01*
X154202380Y-103502380D01*
X154107142Y-103502380D01*
X154011904Y-103454761D01*
X153964285Y-103407142D01*
X153916666Y-103311904D01*
X153869047Y-103121428D01*
X153869047Y-102883333D01*
X153916666Y-102692857D01*
X153964285Y-102597619D01*
X154011904Y-102550000D01*
X154107142Y-102502380D01*
X154821428Y-103216666D02*
X155297619Y-103216666D01*
X154726190Y-103502380D02*
X155059523Y-102502380D01*
X155392857Y-103502380D01*
X156678571Y-102502380D02*
X156773809Y-102502380D01*
X156869047Y-102550000D01*
X156916666Y-102597619D01*
X156964285Y-102692857D01*
X157011904Y-102883333D01*
X157011904Y-103121428D01*
X156964285Y-103311904D01*
X156916666Y-103407142D01*
X156869047Y-103454761D01*
X156773809Y-103502380D01*
X156678571Y-103502380D01*
X156583333Y-103454761D01*
X156535714Y-103407142D01*
X156488095Y-103311904D01*
X156440476Y-103121428D01*
X156440476Y-102883333D01*
X156488095Y-102692857D01*
X156535714Y-102597619D01*
X156583333Y-102550000D01*
X156678571Y-102502380D01*
X157440476Y-103121428D02*
X158202380Y-103121428D01*
X158630952Y-102597619D02*
X158678571Y-102550000D01*
X158773809Y-102502380D01*
X159011904Y-102502380D01*
X159107142Y-102550000D01*
X159154761Y-102597619D01*
X159202380Y-102692857D01*
X159202380Y-102788095D01*
X159154761Y-102930952D01*
X158583333Y-103502380D01*
X159202380Y-103502380D01*
X160059523Y-102502380D02*
X159869047Y-102502380D01*
X159773809Y-102550000D01*
X159726190Y-102597619D01*
X159630952Y-102740476D01*
X159583333Y-102930952D01*
X159583333Y-103311904D01*
X159630952Y-103407142D01*
X159678571Y-103454761D01*
X159773809Y-103502380D01*
X159964285Y-103502380D01*
X160059523Y-103454761D01*
X160107142Y-103407142D01*
X160154761Y-103311904D01*
X160154761Y-103073809D01*
X160107142Y-102978571D01*
X160059523Y-102930952D01*
X159964285Y-102883333D01*
X159773809Y-102883333D01*
X159678571Y-102930952D01*
X159630952Y-102978571D01*
X159583333Y-103073809D01*
X160440476Y-102502380D02*
X160773809Y-103502380D01*
X161107142Y-102502380D01*
X162202380Y-103502380D02*
X162202380Y-102502380D01*
X162440476Y-102502380D01*
X162583333Y-102550000D01*
X162678571Y-102645238D01*
X162726190Y-102740476D01*
X162773809Y-102930952D01*
X162773809Y-103073809D01*
X162726190Y-103264285D01*
X162678571Y-103359523D01*
X162583333Y-103454761D01*
X162440476Y-103502380D01*
X162202380Y-103502380D01*
X163773809Y-103407142D02*
X163726190Y-103454761D01*
X163583333Y-103502380D01*
X163488095Y-103502380D01*
X163345238Y-103454761D01*
X163250000Y-103359523D01*
X163202380Y-103264285D01*
X163154761Y-103073809D01*
X163154761Y-102930952D01*
X163202380Y-102740476D01*
X163250000Y-102645238D01*
X163345238Y-102550000D01*
X163488095Y-102502380D01*
X163583333Y-102502380D01*
X163726190Y-102550000D01*
X163773809Y-102597619D01*
X142428571Y-115952380D02*
X142428571Y-114952380D01*
X142904761Y-115952380D02*
X142904761Y-114952380D01*
X143476190Y-115952380D01*
X143476190Y-114952380D01*
X143904761Y-115666666D02*
X144380952Y-115666666D01*
X143809523Y-115952380D02*
X144142857Y-114952380D01*
X144476190Y-115952380D01*
X144761904Y-115047619D02*
X144809523Y-115000000D01*
X144904761Y-114952380D01*
X145142857Y-114952380D01*
X145238095Y-115000000D01*
X145285714Y-115047619D01*
X145333333Y-115142857D01*
X145333333Y-115238095D01*
X145285714Y-115380952D01*
X144714285Y-115952380D01*
X145333333Y-115952380D01*
X145714285Y-115047619D02*
X145761904Y-115000000D01*
X145857142Y-114952380D01*
X146095238Y-114952380D01*
X146190476Y-115000000D01*
X146238095Y-115047619D01*
X146285714Y-115142857D01*
X146285714Y-115238095D01*
X146238095Y-115380952D01*
X145666666Y-115952380D01*
X146285714Y-115952380D01*
X146904761Y-114952380D02*
X147000000Y-114952380D01*
X147095238Y-115000000D01*
X147142857Y-115047619D01*
X147190476Y-115142857D01*
X147238095Y-115333333D01*
X147238095Y-115571428D01*
X147190476Y-115761904D01*
X147142857Y-115857142D01*
X147095238Y-115904761D01*
X147000000Y-115952380D01*
X146904761Y-115952380D01*
X146809523Y-115904761D01*
X146761904Y-115857142D01*
X146714285Y-115761904D01*
X146666666Y-115571428D01*
X146666666Y-115333333D01*
X146714285Y-115142857D01*
X146761904Y-115047619D01*
X146809523Y-115000000D01*
X146904761Y-114952380D01*
X149000000Y-115857142D02*
X148952380Y-115904761D01*
X148809523Y-115952380D01*
X148714285Y-115952380D01*
X148571428Y-115904761D01*
X148476190Y-115809523D01*
X148428571Y-115714285D01*
X148380952Y-115523809D01*
X148380952Y-115380952D01*
X148428571Y-115190476D01*
X148476190Y-115095238D01*
X148571428Y-115000000D01*
X148714285Y-114952380D01*
X148809523Y-114952380D01*
X148952380Y-115000000D01*
X149000000Y-115047619D01*
X149857142Y-115285714D02*
X149857142Y-115952380D01*
X149428571Y-115285714D02*
X149428571Y-115809523D01*
X149476190Y-115904761D01*
X149571428Y-115952380D01*
X149714285Y-115952380D01*
X149809523Y-115904761D01*
X149857142Y-115857142D01*
X150333333Y-115952380D02*
X150333333Y-115285714D01*
X150333333Y-115476190D02*
X150380952Y-115380952D01*
X150428571Y-115333333D01*
X150523809Y-115285714D01*
X150619047Y-115285714D01*
X150952380Y-115952380D02*
X150952380Y-115285714D01*
X150952380Y-115476190D02*
X151000000Y-115380952D01*
X151047619Y-115333333D01*
X151142857Y-115285714D01*
X151238095Y-115285714D01*
X151952380Y-115904761D02*
X151857142Y-115952380D01*
X151666666Y-115952380D01*
X151571428Y-115904761D01*
X151523809Y-115809523D01*
X151523809Y-115428571D01*
X151571428Y-115333333D01*
X151666666Y-115285714D01*
X151857142Y-115285714D01*
X151952380Y-115333333D01*
X152000000Y-115428571D01*
X152000000Y-115523809D01*
X151523809Y-115619047D01*
X152428571Y-115285714D02*
X152428571Y-115952380D01*
X152428571Y-115380952D02*
X152476190Y-115333333D01*
X152571428Y-115285714D01*
X152714285Y-115285714D01*
X152809523Y-115333333D01*
X152857142Y-115428571D01*
X152857142Y-115952380D01*
X153190476Y-115285714D02*
X153571428Y-115285714D01*
X153333333Y-114952380D02*
X153333333Y-115809523D01*
X153380952Y-115904761D01*
X153476190Y-115952380D01*
X153571428Y-115952380D01*
X154619047Y-115904761D02*
X154761904Y-115952380D01*
X155000000Y-115952380D01*
X155095238Y-115904761D01*
X155142857Y-115857142D01*
X155190476Y-115761904D01*
X155190476Y-115666666D01*
X155142857Y-115571428D01*
X155095238Y-115523809D01*
X155000000Y-115476190D01*
X154809523Y-115428571D01*
X154714285Y-115380952D01*
X154666666Y-115333333D01*
X154619047Y-115238095D01*
X154619047Y-115142857D01*
X154666666Y-115047619D01*
X154714285Y-115000000D01*
X154809523Y-114952380D01*
X155047619Y-114952380D01*
X155190476Y-115000000D01*
X156000000Y-115904761D02*
X155904761Y-115952380D01*
X155714285Y-115952380D01*
X155619047Y-115904761D01*
X155571428Y-115809523D01*
X155571428Y-115428571D01*
X155619047Y-115333333D01*
X155714285Y-115285714D01*
X155904761Y-115285714D01*
X156000000Y-115333333D01*
X156047619Y-115428571D01*
X156047619Y-115523809D01*
X155571428Y-115619047D01*
X156476190Y-115285714D02*
X156476190Y-115952380D01*
X156476190Y-115380952D02*
X156523809Y-115333333D01*
X156619047Y-115285714D01*
X156761904Y-115285714D01*
X156857142Y-115333333D01*
X156904761Y-115428571D01*
X156904761Y-115952380D01*
X157333333Y-115904761D02*
X157428571Y-115952380D01*
X157619047Y-115952380D01*
X157714285Y-115904761D01*
X157761904Y-115809523D01*
X157761904Y-115761904D01*
X157714285Y-115666666D01*
X157619047Y-115619047D01*
X157476190Y-115619047D01*
X157380952Y-115571428D01*
X157333333Y-115476190D01*
X157333333Y-115428571D01*
X157380952Y-115333333D01*
X157476190Y-115285714D01*
X157619047Y-115285714D01*
X157714285Y-115333333D01*
X158571428Y-115904761D02*
X158476190Y-115952380D01*
X158285714Y-115952380D01*
X158190476Y-115904761D01*
X158142857Y-115809523D01*
X158142857Y-115428571D01*
X158190476Y-115333333D01*
X158285714Y-115285714D01*
X158476190Y-115285714D01*
X158571428Y-115333333D01*
X158619047Y-115428571D01*
X158619047Y-115523809D01*
X158142857Y-115619047D01*
X163988095Y-114000000D02*
X163892857Y-113952380D01*
X163750000Y-113952380D01*
X163607142Y-114000000D01*
X163511904Y-114095238D01*
X163464285Y-114190476D01*
X163416666Y-114380952D01*
X163416666Y-114523809D01*
X163464285Y-114714285D01*
X163511904Y-114809523D01*
X163607142Y-114904761D01*
X163750000Y-114952380D01*
X163845238Y-114952380D01*
X163988095Y-114904761D01*
X164035714Y-114857142D01*
X164035714Y-114523809D01*
X163845238Y-114523809D01*
X164464285Y-114952380D02*
X164464285Y-113952380D01*
X165035714Y-114952380D01*
X165035714Y-113952380D01*
X165511904Y-114952380D02*
X165511904Y-113952380D01*
X165750000Y-113952380D01*
X165892857Y-114000000D01*
X165988095Y-114095238D01*
X166035714Y-114190476D01*
X166083333Y-114380952D01*
X166083333Y-114523809D01*
X166035714Y-114714285D01*
X165988095Y-114809523D01*
X165892857Y-114904761D01*
X165750000Y-114952380D01*
X165511904Y-114952380D01*
X162976190Y-111916666D02*
X163452380Y-111916666D01*
X162880952Y-112202380D02*
X163214285Y-111202380D01*
X163547619Y-112202380D01*
X164023809Y-112202380D02*
X163928571Y-112154761D01*
X163880952Y-112059523D01*
X163880952Y-111202380D01*
X164785714Y-112154761D02*
X164690476Y-112202380D01*
X164500000Y-112202380D01*
X164404761Y-112154761D01*
X164357142Y-112059523D01*
X164357142Y-111678571D01*
X164404761Y-111583333D01*
X164500000Y-111535714D01*
X164690476Y-111535714D01*
X164785714Y-111583333D01*
X164833333Y-111678571D01*
X164833333Y-111773809D01*
X164357142Y-111869047D01*
X165261904Y-112202380D02*
X165261904Y-111535714D01*
X165261904Y-111726190D02*
X165309523Y-111630952D01*
X165357142Y-111583333D01*
X165452380Y-111535714D01*
X165547619Y-111535714D01*
X165738095Y-111535714D02*
X166119047Y-111535714D01*
X165880952Y-111202380D02*
X165880952Y-112059523D01*
X165928571Y-112154761D01*
X166023809Y-112202380D01*
X166119047Y-112202380D01*
X163559523Y-109654761D02*
X163702380Y-109702380D01*
X163940476Y-109702380D01*
X164035714Y-109654761D01*
X164083333Y-109607142D01*
X164130952Y-109511904D01*
X164130952Y-109416666D01*
X164083333Y-109321428D01*
X164035714Y-109273809D01*
X163940476Y-109226190D01*
X163750000Y-109178571D01*
X163654761Y-109130952D01*
X163607142Y-109083333D01*
X163559523Y-108988095D01*
X163559523Y-108892857D01*
X163607142Y-108797619D01*
X163654761Y-108750000D01*
X163750000Y-108702380D01*
X163988095Y-108702380D01*
X164130952Y-108750000D01*
X165130952Y-109607142D02*
X165083333Y-109654761D01*
X164940476Y-109702380D01*
X164845238Y-109702380D01*
X164702380Y-109654761D01*
X164607142Y-109559523D01*
X164559523Y-109464285D01*
X164511904Y-109273809D01*
X164511904Y-109130952D01*
X164559523Y-108940476D01*
X164607142Y-108845238D01*
X164702380Y-108750000D01*
X164845238Y-108702380D01*
X164940476Y-108702380D01*
X165083333Y-108750000D01*
X165130952Y-108797619D01*
X166035714Y-109702380D02*
X165559523Y-109702380D01*
X165559523Y-108702380D01*
X163535714Y-107154761D02*
X163678571Y-107202380D01*
X163916666Y-107202380D01*
X164011904Y-107154761D01*
X164059523Y-107107142D01*
X164107142Y-107011904D01*
X164107142Y-106916666D01*
X164059523Y-106821428D01*
X164011904Y-106773809D01*
X163916666Y-106726190D01*
X163726190Y-106678571D01*
X163630952Y-106630952D01*
X163583333Y-106583333D01*
X163535714Y-106488095D01*
X163535714Y-106392857D01*
X163583333Y-106297619D01*
X163630952Y-106250000D01*
X163726190Y-106202380D01*
X163964285Y-106202380D01*
X164107142Y-106250000D01*
X164535714Y-107202380D02*
X164535714Y-106202380D01*
X164773809Y-106202380D01*
X164916666Y-106250000D01*
X165011904Y-106345238D01*
X165059523Y-106440476D01*
X165107142Y-106630952D01*
X165107142Y-106773809D01*
X165059523Y-106964285D01*
X165011904Y-107059523D01*
X164916666Y-107154761D01*
X164773809Y-107202380D01*
X164535714Y-107202380D01*
X165488095Y-106916666D02*
X165964285Y-106916666D01*
X165392857Y-107202380D02*
X165726190Y-106202380D01*
X166059523Y-107202380D01*
X164297619Y-103702380D02*
X164630952Y-104702380D01*
X164964285Y-103702380D01*
X165297619Y-104321428D02*
X166059523Y-104321428D01*
X165678571Y-104702380D02*
X165678571Y-103940476D01*
D12*
X137792857Y-115335714D02*
X138707142Y-115335714D01*
X137542857Y-103085714D02*
X138457142Y-103085714D01*
X138000000Y-103542857D02*
X138000000Y-102628571D01*
D11*
X105700000Y-117361904D02*
X105433333Y-116980952D01*
X105242857Y-117361904D02*
X105242857Y-116561904D01*
X105547619Y-116561904D01*
X105623809Y-116600000D01*
X105661904Y-116638095D01*
X105700000Y-116714285D01*
X105700000Y-116828571D01*
X105661904Y-116904761D01*
X105623809Y-116942857D01*
X105547619Y-116980952D01*
X105242857Y-116980952D01*
X106347619Y-117323809D02*
X106271428Y-117361904D01*
X106119047Y-117361904D01*
X106042857Y-117323809D01*
X106004761Y-117247619D01*
X106004761Y-116942857D01*
X106042857Y-116866666D01*
X106119047Y-116828571D01*
X106271428Y-116828571D01*
X106347619Y-116866666D01*
X106385714Y-116942857D01*
X106385714Y-117019047D01*
X106004761Y-117095238D01*
X106652380Y-116828571D02*
X106842857Y-117361904D01*
X107033333Y-116828571D01*
X107604761Y-116942857D02*
X107719047Y-116980952D01*
X107757142Y-117019047D01*
X107795238Y-117095238D01*
X107795238Y-117209523D01*
X107757142Y-117285714D01*
X107719047Y-117323809D01*
X107642857Y-117361904D01*
X107338095Y-117361904D01*
X107338095Y-116561904D01*
X107604761Y-116561904D01*
X107680952Y-116600000D01*
X107719047Y-116638095D01*
X107757142Y-116714285D01*
X107757142Y-116790476D01*
X107719047Y-116866666D01*
X107680952Y-116904761D01*
X107604761Y-116942857D01*
X107338095Y-116942857D01*
D10*
X114964285Y-116502380D02*
X115059523Y-116502380D01*
X115154761Y-116550000D01*
X115202380Y-116597619D01*
X115250000Y-116692857D01*
X115297619Y-116883333D01*
X115297619Y-117121428D01*
X115250000Y-117311904D01*
X115202380Y-117407142D01*
X115154761Y-117454761D01*
X115059523Y-117502380D01*
X114964285Y-117502380D01*
X114869047Y-117454761D01*
X114821428Y-117407142D01*
X114773809Y-117311904D01*
X114726190Y-117121428D01*
X114726190Y-116883333D01*
X114773809Y-116692857D01*
X114821428Y-116597619D01*
X114869047Y-116550000D01*
X114964285Y-116502380D01*
X115726190Y-117121428D02*
X116488095Y-117121428D01*
X117488095Y-117502380D02*
X116916666Y-117502380D01*
X117202380Y-117502380D02*
X117202380Y-116502380D01*
X117107142Y-116645238D01*
X117011904Y-116740476D01*
X116916666Y-116788095D01*
X118107142Y-116502380D02*
X118202380Y-116502380D01*
X118297619Y-116550000D01*
X118345238Y-116597619D01*
X118392857Y-116692857D01*
X118440476Y-116883333D01*
X118440476Y-117121428D01*
X118392857Y-117311904D01*
X118345238Y-117407142D01*
X118297619Y-117454761D01*
X118202380Y-117502380D01*
X118107142Y-117502380D01*
X118011904Y-117454761D01*
X117964285Y-117407142D01*
X117916666Y-117311904D01*
X117869047Y-117121428D01*
X117869047Y-116883333D01*
X117916666Y-116692857D01*
X117964285Y-116597619D01*
X118011904Y-116550000D01*
X118107142Y-116502380D01*
X118821428Y-117216666D02*
X119297619Y-117216666D01*
X118726190Y-117502380D02*
X119059523Y-116502380D01*
X119392857Y-117502380D01*
X120678571Y-116502380D02*
X120773809Y-116502380D01*
X120869047Y-116550000D01*
X120916666Y-116597619D01*
X120964285Y-116692857D01*
X121011904Y-116883333D01*
X121011904Y-117121428D01*
X120964285Y-117311904D01*
X120916666Y-117407142D01*
X120869047Y-117454761D01*
X120773809Y-117502380D01*
X120678571Y-117502380D01*
X120583333Y-117454761D01*
X120535714Y-117407142D01*
X120488095Y-117311904D01*
X120440476Y-117121428D01*
X120440476Y-116883333D01*
X120488095Y-116692857D01*
X120535714Y-116597619D01*
X120583333Y-116550000D01*
X120678571Y-116502380D01*
X121440476Y-117121428D02*
X122202380Y-117121428D01*
X122630952Y-116597619D02*
X122678571Y-116550000D01*
X122773809Y-116502380D01*
X123011904Y-116502380D01*
X123107142Y-116550000D01*
X123154761Y-116597619D01*
X123202380Y-116692857D01*
X123202380Y-116788095D01*
X123154761Y-116930952D01*
X122583333Y-117502380D01*
X123202380Y-117502380D01*
X124059523Y-116502380D02*
X123869047Y-116502380D01*
X123773809Y-116550000D01*
X123726190Y-116597619D01*
X123630952Y-116740476D01*
X123583333Y-116930952D01*
X123583333Y-117311904D01*
X123630952Y-117407142D01*
X123678571Y-117454761D01*
X123773809Y-117502380D01*
X123964285Y-117502380D01*
X124059523Y-117454761D01*
X124107142Y-117407142D01*
X124154761Y-117311904D01*
X124154761Y-117073809D01*
X124107142Y-116978571D01*
X124059523Y-116930952D01*
X123964285Y-116883333D01*
X123773809Y-116883333D01*
X123678571Y-116930952D01*
X123630952Y-116978571D01*
X123583333Y-117073809D01*
X124440476Y-116502380D02*
X124773809Y-117502380D01*
X125107142Y-116502380D01*
X126202380Y-117502380D02*
X126202380Y-116502380D01*
X126440476Y-116502380D01*
X126583333Y-116550000D01*
X126678571Y-116645238D01*
X126726190Y-116740476D01*
X126773809Y-116930952D01*
X126773809Y-117073809D01*
X126726190Y-117264285D01*
X126678571Y-117359523D01*
X126583333Y-117454761D01*
X126440476Y-117502380D01*
X126202380Y-117502380D01*
X127773809Y-117407142D02*
X127726190Y-117454761D01*
X127583333Y-117502380D01*
X127488095Y-117502380D01*
X127345238Y-117454761D01*
X127250000Y-117359523D01*
X127202380Y-117264285D01*
X127154761Y-117073809D01*
X127154761Y-116930952D01*
X127202380Y-116740476D01*
X127250000Y-116645238D01*
X127345238Y-116550000D01*
X127488095Y-116502380D01*
X127583333Y-116502380D01*
X127726190Y-116550000D01*
X127773809Y-116597619D01*
X106428571Y-129952380D02*
X106428571Y-128952380D01*
X106904761Y-129952380D02*
X106904761Y-128952380D01*
X107476190Y-129952380D01*
X107476190Y-128952380D01*
X107904761Y-129666666D02*
X108380952Y-129666666D01*
X107809523Y-129952380D02*
X108142857Y-128952380D01*
X108476190Y-129952380D01*
X108761904Y-129047619D02*
X108809523Y-129000000D01*
X108904761Y-128952380D01*
X109142857Y-128952380D01*
X109238095Y-129000000D01*
X109285714Y-129047619D01*
X109333333Y-129142857D01*
X109333333Y-129238095D01*
X109285714Y-129380952D01*
X108714285Y-129952380D01*
X109333333Y-129952380D01*
X109714285Y-129047619D02*
X109761904Y-129000000D01*
X109857142Y-128952380D01*
X110095238Y-128952380D01*
X110190476Y-129000000D01*
X110238095Y-129047619D01*
X110285714Y-129142857D01*
X110285714Y-129238095D01*
X110238095Y-129380952D01*
X109666666Y-129952380D01*
X110285714Y-129952380D01*
X110904761Y-128952380D02*
X111000000Y-128952380D01*
X111095238Y-129000000D01*
X111142857Y-129047619D01*
X111190476Y-129142857D01*
X111238095Y-129333333D01*
X111238095Y-129571428D01*
X111190476Y-129761904D01*
X111142857Y-129857142D01*
X111095238Y-129904761D01*
X111000000Y-129952380D01*
X110904761Y-129952380D01*
X110809523Y-129904761D01*
X110761904Y-129857142D01*
X110714285Y-129761904D01*
X110666666Y-129571428D01*
X110666666Y-129333333D01*
X110714285Y-129142857D01*
X110761904Y-129047619D01*
X110809523Y-129000000D01*
X110904761Y-128952380D01*
X113000000Y-129857142D02*
X112952380Y-129904761D01*
X112809523Y-129952380D01*
X112714285Y-129952380D01*
X112571428Y-129904761D01*
X112476190Y-129809523D01*
X112428571Y-129714285D01*
X112380952Y-129523809D01*
X112380952Y-129380952D01*
X112428571Y-129190476D01*
X112476190Y-129095238D01*
X112571428Y-129000000D01*
X112714285Y-128952380D01*
X112809523Y-128952380D01*
X112952380Y-129000000D01*
X113000000Y-129047619D01*
X113857142Y-129285714D02*
X113857142Y-129952380D01*
X113428571Y-129285714D02*
X113428571Y-129809523D01*
X113476190Y-129904761D01*
X113571428Y-129952380D01*
X113714285Y-129952380D01*
X113809523Y-129904761D01*
X113857142Y-129857142D01*
X114333333Y-129952380D02*
X114333333Y-129285714D01*
X114333333Y-129476190D02*
X114380952Y-129380952D01*
X114428571Y-129333333D01*
X114523809Y-129285714D01*
X114619047Y-129285714D01*
X114952380Y-129952380D02*
X114952380Y-129285714D01*
X114952380Y-129476190D02*
X115000000Y-129380952D01*
X115047619Y-129333333D01*
X115142857Y-129285714D01*
X115238095Y-129285714D01*
X115952380Y-129904761D02*
X115857142Y-129952380D01*
X115666666Y-129952380D01*
X115571428Y-129904761D01*
X115523809Y-129809523D01*
X115523809Y-129428571D01*
X115571428Y-129333333D01*
X115666666Y-129285714D01*
X115857142Y-129285714D01*
X115952380Y-129333333D01*
X116000000Y-129428571D01*
X116000000Y-129523809D01*
X115523809Y-129619047D01*
X116428571Y-129285714D02*
X116428571Y-129952380D01*
X116428571Y-129380952D02*
X116476190Y-129333333D01*
X116571428Y-129285714D01*
X116714285Y-129285714D01*
X116809523Y-129333333D01*
X116857142Y-129428571D01*
X116857142Y-129952380D01*
X117190476Y-129285714D02*
X117571428Y-129285714D01*
X117333333Y-128952380D02*
X117333333Y-129809523D01*
X117380952Y-129904761D01*
X117476190Y-129952380D01*
X117571428Y-129952380D01*
X118619047Y-129904761D02*
X118761904Y-129952380D01*
X119000000Y-129952380D01*
X119095238Y-129904761D01*
X119142857Y-129857142D01*
X119190476Y-129761904D01*
X119190476Y-129666666D01*
X119142857Y-129571428D01*
X119095238Y-129523809D01*
X119000000Y-129476190D01*
X118809523Y-129428571D01*
X118714285Y-129380952D01*
X118666666Y-129333333D01*
X118619047Y-129238095D01*
X118619047Y-129142857D01*
X118666666Y-129047619D01*
X118714285Y-129000000D01*
X118809523Y-128952380D01*
X119047619Y-128952380D01*
X119190476Y-129000000D01*
X120000000Y-129904761D02*
X119904761Y-129952380D01*
X119714285Y-129952380D01*
X119619047Y-129904761D01*
X119571428Y-129809523D01*
X119571428Y-129428571D01*
X119619047Y-129333333D01*
X119714285Y-129285714D01*
X119904761Y-129285714D01*
X120000000Y-129333333D01*
X120047619Y-129428571D01*
X120047619Y-129523809D01*
X119571428Y-129619047D01*
X120476190Y-129285714D02*
X120476190Y-129952380D01*
X120476190Y-129380952D02*
X120523809Y-129333333D01*
X120619047Y-129285714D01*
X120761904Y-129285714D01*
X120857142Y-129333333D01*
X120904761Y-129428571D01*
X120904761Y-129952380D01*
X121333333Y-129904761D02*
X121428571Y-129952380D01*
X121619047Y-129952380D01*
X121714285Y-129904761D01*
X121761904Y-129809523D01*
X121761904Y-129761904D01*
X121714285Y-129666666D01*
X121619047Y-129619047D01*
X121476190Y-129619047D01*
X121380952Y-129571428D01*
X121333333Y-129476190D01*
X121333333Y-129428571D01*
X121380952Y-129333333D01*
X121476190Y-129285714D01*
X121619047Y-129285714D01*
X121714285Y-129333333D01*
X122571428Y-129904761D02*
X122476190Y-129952380D01*
X122285714Y-129952380D01*
X122190476Y-129904761D01*
X122142857Y-129809523D01*
X122142857Y-129428571D01*
X122190476Y-129333333D01*
X122285714Y-129285714D01*
X122476190Y-129285714D01*
X122571428Y-129333333D01*
X122619047Y-129428571D01*
X122619047Y-129523809D01*
X122142857Y-129619047D01*
X127988095Y-128000000D02*
X127892857Y-127952380D01*
X127750000Y-127952380D01*
X127607142Y-128000000D01*
X127511904Y-128095238D01*
X127464285Y-128190476D01*
X127416666Y-128380952D01*
X127416666Y-128523809D01*
X127464285Y-128714285D01*
X127511904Y-128809523D01*
X127607142Y-128904761D01*
X127750000Y-128952380D01*
X127845238Y-128952380D01*
X127988095Y-128904761D01*
X128035714Y-128857142D01*
X128035714Y-128523809D01*
X127845238Y-128523809D01*
X128464285Y-128952380D02*
X128464285Y-127952380D01*
X129035714Y-128952380D01*
X129035714Y-127952380D01*
X129511904Y-128952380D02*
X129511904Y-127952380D01*
X129750000Y-127952380D01*
X129892857Y-128000000D01*
X129988095Y-128095238D01*
X130035714Y-128190476D01*
X130083333Y-128380952D01*
X130083333Y-128523809D01*
X130035714Y-128714285D01*
X129988095Y-128809523D01*
X129892857Y-128904761D01*
X129750000Y-128952380D01*
X129511904Y-128952380D01*
X126976190Y-125916666D02*
X127452380Y-125916666D01*
X126880952Y-126202380D02*
X127214285Y-125202380D01*
X127547619Y-126202380D01*
X128023809Y-126202380D02*
X127928571Y-126154761D01*
X127880952Y-126059523D01*
X127880952Y-125202380D01*
X128785714Y-126154761D02*
X128690476Y-126202380D01*
X128500000Y-126202380D01*
X128404761Y-126154761D01*
X128357142Y-126059523D01*
X128357142Y-125678571D01*
X128404761Y-125583333D01*
X128500000Y-125535714D01*
X128690476Y-125535714D01*
X128785714Y-125583333D01*
X128833333Y-125678571D01*
X128833333Y-125773809D01*
X128357142Y-125869047D01*
X129261904Y-126202380D02*
X129261904Y-125535714D01*
X129261904Y-125726190D02*
X129309523Y-125630952D01*
X129357142Y-125583333D01*
X129452380Y-125535714D01*
X129547619Y-125535714D01*
X129738095Y-125535714D02*
X130119047Y-125535714D01*
X129880952Y-125202380D02*
X129880952Y-126059523D01*
X129928571Y-126154761D01*
X130023809Y-126202380D01*
X130119047Y-126202380D01*
X127559523Y-123654761D02*
X127702380Y-123702380D01*
X127940476Y-123702380D01*
X128035714Y-123654761D01*
X128083333Y-123607142D01*
X128130952Y-123511904D01*
X128130952Y-123416666D01*
X128083333Y-123321428D01*
X128035714Y-123273809D01*
X127940476Y-123226190D01*
X127750000Y-123178571D01*
X127654761Y-123130952D01*
X127607142Y-123083333D01*
X127559523Y-122988095D01*
X127559523Y-122892857D01*
X127607142Y-122797619D01*
X127654761Y-122750000D01*
X127750000Y-122702380D01*
X127988095Y-122702380D01*
X128130952Y-122750000D01*
X129130952Y-123607142D02*
X129083333Y-123654761D01*
X128940476Y-123702380D01*
X128845238Y-123702380D01*
X128702380Y-123654761D01*
X128607142Y-123559523D01*
X128559523Y-123464285D01*
X128511904Y-123273809D01*
X128511904Y-123130952D01*
X128559523Y-122940476D01*
X128607142Y-122845238D01*
X128702380Y-122750000D01*
X128845238Y-122702380D01*
X128940476Y-122702380D01*
X129083333Y-122750000D01*
X129130952Y-122797619D01*
X130035714Y-123702380D02*
X129559523Y-123702380D01*
X129559523Y-122702380D01*
X127535714Y-121154761D02*
X127678571Y-121202380D01*
X127916666Y-121202380D01*
X128011904Y-121154761D01*
X128059523Y-121107142D01*
X128107142Y-121011904D01*
X128107142Y-120916666D01*
X128059523Y-120821428D01*
X128011904Y-120773809D01*
X127916666Y-120726190D01*
X127726190Y-120678571D01*
X127630952Y-120630952D01*
X127583333Y-120583333D01*
X127535714Y-120488095D01*
X127535714Y-120392857D01*
X127583333Y-120297619D01*
X127630952Y-120250000D01*
X127726190Y-120202380D01*
X127964285Y-120202380D01*
X128107142Y-120250000D01*
X128535714Y-121202380D02*
X128535714Y-120202380D01*
X128773809Y-120202380D01*
X128916666Y-120250000D01*
X129011904Y-120345238D01*
X129059523Y-120440476D01*
X129107142Y-120630952D01*
X129107142Y-120773809D01*
X129059523Y-120964285D01*
X129011904Y-121059523D01*
X128916666Y-121154761D01*
X128773809Y-121202380D01*
X128535714Y-121202380D01*
X129488095Y-120916666D02*
X129964285Y-120916666D01*
X129392857Y-121202380D02*
X129726190Y-120202380D01*
X130059523Y-121202380D01*
X128297619Y-117702380D02*
X128630952Y-118702380D01*
X128964285Y-117702380D01*
X129297619Y-118321428D02*
X130059523Y-118321428D01*
X129678571Y-118702380D02*
X129678571Y-117940476D01*
D12*
X101792857Y-129335714D02*
X102707142Y-129335714D01*
X101542857Y-117085714D02*
X102457142Y-117085714D01*
X102000000Y-117542857D02*
X102000000Y-116628571D01*
D11*
X141700000Y-117361904D02*
X141433333Y-116980952D01*
X141242857Y-117361904D02*
X141242857Y-116561904D01*
X141547619Y-116561904D01*
X141623809Y-116600000D01*
X141661904Y-116638095D01*
X141700000Y-116714285D01*
X141700000Y-116828571D01*
X141661904Y-116904761D01*
X141623809Y-116942857D01*
X141547619Y-116980952D01*
X141242857Y-116980952D01*
X142347619Y-117323809D02*
X142271428Y-117361904D01*
X142119047Y-117361904D01*
X142042857Y-117323809D01*
X142004761Y-117247619D01*
X142004761Y-116942857D01*
X142042857Y-116866666D01*
X142119047Y-116828571D01*
X142271428Y-116828571D01*
X142347619Y-116866666D01*
X142385714Y-116942857D01*
X142385714Y-117019047D01*
X142004761Y-117095238D01*
X142652380Y-116828571D02*
X142842857Y-117361904D01*
X143033333Y-116828571D01*
X143604761Y-116942857D02*
X143719047Y-116980952D01*
X143757142Y-117019047D01*
X143795238Y-117095238D01*
X143795238Y-117209523D01*
X143757142Y-117285714D01*
X143719047Y-117323809D01*
X143642857Y-117361904D01*
X143338095Y-117361904D01*
X143338095Y-116561904D01*
X143604761Y-116561904D01*
X143680952Y-116600000D01*
X143719047Y-116638095D01*
X143757142Y-116714285D01*
X143757142Y-116790476D01*
X143719047Y-116866666D01*
X143680952Y-116904761D01*
X143604761Y-116942857D01*
X143338095Y-116942857D01*
D10*
X150964285Y-116502380D02*
X151059523Y-116502380D01*
X151154761Y-116550000D01*
X151202380Y-116597619D01*
X151250000Y-116692857D01*
X151297619Y-116883333D01*
X151297619Y-117121428D01*
X151250000Y-117311904D01*
X151202380Y-117407142D01*
X151154761Y-117454761D01*
X151059523Y-117502380D01*
X150964285Y-117502380D01*
X150869047Y-117454761D01*
X150821428Y-117407142D01*
X150773809Y-117311904D01*
X150726190Y-117121428D01*
X150726190Y-116883333D01*
X150773809Y-116692857D01*
X150821428Y-116597619D01*
X150869047Y-116550000D01*
X150964285Y-116502380D01*
X151726190Y-117121428D02*
X152488095Y-117121428D01*
X153488095Y-117502380D02*
X152916666Y-117502380D01*
X153202380Y-117502380D02*
X153202380Y-116502380D01*
X153107142Y-116645238D01*
X153011904Y-116740476D01*
X152916666Y-116788095D01*
X154107142Y-116502380D02*
X154202380Y-116502380D01*
X154297619Y-116550000D01*
X154345238Y-116597619D01*
X154392857Y-116692857D01*
X154440476Y-116883333D01*
X154440476Y-117121428D01*
X154392857Y-117311904D01*
X154345238Y-117407142D01*
X154297619Y-117454761D01*
X154202380Y-117502380D01*
X154107142Y-117502380D01*
X154011904Y-117454761D01*
X153964285Y-117407142D01*
X153916666Y-117311904D01*
X153869047Y-117121428D01*
X153869047Y-116883333D01*
X153916666Y-116692857D01*
X153964285Y-116597619D01*
X154011904Y-116550000D01*
X154107142Y-116502380D01*
X154821428Y-117216666D02*
X155297619Y-117216666D01*
X154726190Y-117502380D02*
X155059523Y-116502380D01*
X155392857Y-117502380D01*
X156678571Y-116502380D02*
X156773809Y-116502380D01*
X156869047Y-116550000D01*
X156916666Y-116597619D01*
X156964285Y-116692857D01*
X157011904Y-116883333D01*
X157011904Y-117121428D01*
X156964285Y-117311904D01*
X156916666Y-117407142D01*
X156869047Y-117454761D01*
X156773809Y-117502380D01*
X156678571Y-117502380D01*
X156583333Y-117454761D01*
X156535714Y-117407142D01*
X156488095Y-117311904D01*
X156440476Y-117121428D01*
X156440476Y-116883333D01*
X156488095Y-116692857D01*
X156535714Y-116597619D01*
X156583333Y-116550000D01*
X156678571Y-116502380D01*
X157440476Y-117121428D02*
X158202380Y-117121428D01*
X158630952Y-116597619D02*
X158678571Y-116550000D01*
X158773809Y-116502380D01*
X159011904Y-116502380D01*
X159107142Y-116550000D01*
X159154761Y-116597619D01*
X159202380Y-116692857D01*
X159202380Y-116788095D01*
X159154761Y-116930952D01*
X158583333Y-117502380D01*
X159202380Y-117502380D01*
X160059523Y-116502380D02*
X159869047Y-116502380D01*
X159773809Y-116550000D01*
X159726190Y-116597619D01*
X159630952Y-116740476D01*
X159583333Y-116930952D01*
X159583333Y-117311904D01*
X159630952Y-117407142D01*
X159678571Y-117454761D01*
X159773809Y-117502380D01*
X159964285Y-117502380D01*
X160059523Y-117454761D01*
X160107142Y-117407142D01*
X160154761Y-117311904D01*
X160154761Y-117073809D01*
X160107142Y-116978571D01*
X160059523Y-116930952D01*
X159964285Y-116883333D01*
X159773809Y-116883333D01*
X159678571Y-116930952D01*
X159630952Y-116978571D01*
X159583333Y-117073809D01*
X160440476Y-116502380D02*
X160773809Y-117502380D01*
X161107142Y-116502380D01*
X162202380Y-117502380D02*
X162202380Y-116502380D01*
X162440476Y-116502380D01*
X162583333Y-116550000D01*
X162678571Y-116645238D01*
X162726190Y-116740476D01*
X162773809Y-116930952D01*
X162773809Y-117073809D01*
X162726190Y-117264285D01*
X162678571Y-117359523D01*
X162583333Y-117454761D01*
X162440476Y-117502380D01*
X162202380Y-117502380D01*
X163773809Y-117407142D02*
X163726190Y-117454761D01*
X163583333Y-117502380D01*
X163488095Y-117502380D01*
X163345238Y-117454761D01*
X163250000Y-117359523D01*
X163202380Y-117264285D01*
X163154761Y-117073809D01*
X163154761Y-116930952D01*
X163202380Y-116740476D01*
X163250000Y-116645238D01*
X163345238Y-116550000D01*
X163488095Y-116502380D01*
X163583333Y-116502380D01*
X163726190Y-116550000D01*
X163773809Y-116597619D01*
X142428571Y-129952380D02*
X142428571Y-128952380D01*
X142904761Y-129952380D02*
X142904761Y-128952380D01*
X143476190Y-129952380D01*
X143476190Y-128952380D01*
X143904761Y-129666666D02*
X144380952Y-129666666D01*
X143809523Y-129952380D02*
X144142857Y-128952380D01*
X144476190Y-129952380D01*
X144761904Y-129047619D02*
X144809523Y-129000000D01*
X144904761Y-128952380D01*
X145142857Y-128952380D01*
X145238095Y-129000000D01*
X145285714Y-129047619D01*
X145333333Y-129142857D01*
X145333333Y-129238095D01*
X145285714Y-129380952D01*
X144714285Y-129952380D01*
X145333333Y-129952380D01*
X145714285Y-129047619D02*
X145761904Y-129000000D01*
X145857142Y-128952380D01*
X146095238Y-128952380D01*
X146190476Y-129000000D01*
X146238095Y-129047619D01*
X146285714Y-129142857D01*
X146285714Y-129238095D01*
X146238095Y-129380952D01*
X145666666Y-129952380D01*
X146285714Y-129952380D01*
X146904761Y-128952380D02*
X147000000Y-128952380D01*
X147095238Y-129000000D01*
X147142857Y-129047619D01*
X147190476Y-129142857D01*
X147238095Y-129333333D01*
X147238095Y-129571428D01*
X147190476Y-129761904D01*
X147142857Y-129857142D01*
X147095238Y-129904761D01*
X147000000Y-129952380D01*
X146904761Y-129952380D01*
X146809523Y-129904761D01*
X146761904Y-129857142D01*
X146714285Y-129761904D01*
X146666666Y-129571428D01*
X146666666Y-129333333D01*
X146714285Y-129142857D01*
X146761904Y-129047619D01*
X146809523Y-129000000D01*
X146904761Y-128952380D01*
X149000000Y-129857142D02*
X148952380Y-129904761D01*
X148809523Y-129952380D01*
X148714285Y-129952380D01*
X148571428Y-129904761D01*
X148476190Y-129809523D01*
X148428571Y-129714285D01*
X148380952Y-129523809D01*
X148380952Y-129380952D01*
X148428571Y-129190476D01*
X148476190Y-129095238D01*
X148571428Y-129000000D01*
X148714285Y-128952380D01*
X148809523Y-128952380D01*
X148952380Y-129000000D01*
X149000000Y-129047619D01*
X149857142Y-129285714D02*
X149857142Y-129952380D01*
X149428571Y-129285714D02*
X149428571Y-129809523D01*
X149476190Y-129904761D01*
X149571428Y-129952380D01*
X149714285Y-129952380D01*
X149809523Y-129904761D01*
X149857142Y-129857142D01*
X150333333Y-129952380D02*
X150333333Y-129285714D01*
X150333333Y-129476190D02*
X150380952Y-129380952D01*
X150428571Y-129333333D01*
X150523809Y-129285714D01*
X150619047Y-129285714D01*
X150952380Y-129952380D02*
X150952380Y-129285714D01*
X150952380Y-129476190D02*
X151000000Y-129380952D01*
X151047619Y-129333333D01*
X151142857Y-129285714D01*
X151238095Y-129285714D01*
X151952380Y-129904761D02*
X151857142Y-129952380D01*
X151666666Y-129952380D01*
X151571428Y-129904761D01*
X151523809Y-129809523D01*
X151523809Y-129428571D01*
X151571428Y-129333333D01*
X151666666Y-129285714D01*
X151857142Y-129285714D01*
X151952380Y-129333333D01*
X152000000Y-129428571D01*
X152000000Y-129523809D01*
X151523809Y-129619047D01*
X152428571Y-129285714D02*
X152428571Y-129952380D01*
X152428571Y-129380952D02*
X152476190Y-129333333D01*
X152571428Y-129285714D01*
X152714285Y-129285714D01*
X152809523Y-129333333D01*
X152857142Y-129428571D01*
X152857142Y-129952380D01*
X153190476Y-129285714D02*
X153571428Y-129285714D01*
X153333333Y-128952380D02*
X153333333Y-129809523D01*
X153380952Y-129904761D01*
X153476190Y-129952380D01*
X153571428Y-129952380D01*
X154619047Y-129904761D02*
X154761904Y-129952380D01*
X155000000Y-129952380D01*
X155095238Y-129904761D01*
X155142857Y-129857142D01*
X155190476Y-129761904D01*
X155190476Y-129666666D01*
X155142857Y-129571428D01*
X155095238Y-129523809D01*
X155000000Y-129476190D01*
X154809523Y-129428571D01*
X154714285Y-129380952D01*
X154666666Y-129333333D01*
X154619047Y-129238095D01*
X154619047Y-129142857D01*
X154666666Y-129047619D01*
X154714285Y-129000000D01*
X154809523Y-128952380D01*
X155047619Y-128952380D01*
X155190476Y-129000000D01*
X156000000Y-129904761D02*
X155904761Y-129952380D01*
X155714285Y-129952380D01*
X155619047Y-129904761D01*
X155571428Y-129809523D01*
X155571428Y-129428571D01*
X155619047Y-129333333D01*
X155714285Y-129285714D01*
X155904761Y-129285714D01*
X156000000Y-129333333D01*
X156047619Y-129428571D01*
X156047619Y-129523809D01*
X155571428Y-129619047D01*
X156476190Y-129285714D02*
X156476190Y-129952380D01*
X156476190Y-129380952D02*
X156523809Y-129333333D01*
X156619047Y-129285714D01*
X156761904Y-129285714D01*
X156857142Y-129333333D01*
X156904761Y-129428571D01*
X156904761Y-129952380D01*
X157333333Y-129904761D02*
X157428571Y-129952380D01*
X157619047Y-129952380D01*
X157714285Y-129904761D01*
X157761904Y-129809523D01*
X157761904Y-129761904D01*
X157714285Y-129666666D01*
X157619047Y-129619047D01*
X157476190Y-129619047D01*
X157380952Y-129571428D01*
X157333333Y-129476190D01*
X157333333Y-129428571D01*
X157380952Y-129333333D01*
X157476190Y-129285714D01*
X157619047Y-129285714D01*
X157714285Y-129333333D01*
X158571428Y-129904761D02*
X158476190Y-129952380D01*
X158285714Y-129952380D01*
X158190476Y-129904761D01*
X158142857Y-129809523D01*
X158142857Y-129428571D01*
X158190476Y-129333333D01*
X158285714Y-129285714D01*
X158476190Y-129285714D01*
X158571428Y-129333333D01*
X158619047Y-129428571D01*
X158619047Y-129523809D01*
X158142857Y-129619047D01*
X163988095Y-128000000D02*
X163892857Y-127952380D01*
X163750000Y-127952380D01*
X163607142Y-128000000D01*
X163511904Y-128095238D01*
X163464285Y-128190476D01*
X163416666Y-128380952D01*
X163416666Y-128523809D01*
X163464285Y-128714285D01*
X163511904Y-128809523D01*
X163607142Y-128904761D01*
X163750000Y-128952380D01*
X163845238Y-128952380D01*
X163988095Y-128904761D01*
X164035714Y-128857142D01*
X164035714Y-128523809D01*
X163845238Y-128523809D01*
X164464285Y-128952380D02*
X164464285Y-127952380D01*
X165035714Y-128952380D01*
X165035714Y-127952380D01*
X165511904Y-128952380D02*
X165511904Y-127952380D01*
X165750000Y-127952380D01*
X165892857Y-128000000D01*
X165988095Y-128095238D01*
X166035714Y-128190476D01*
X166083333Y-128380952D01*
X166083333Y-128523809D01*
X166035714Y-128714285D01*
X165988095Y-128809523D01*
X165892857Y-128904761D01*
X165750000Y-128952380D01*
X165511904Y-128952380D01*
X162976190Y-125916666D02*
X163452380Y-125916666D01*
X162880952Y-126202380D02*
X163214285Y-125202380D01*
X163547619Y-126202380D01*
X164023809Y-126202380D02*
X163928571Y-126154761D01*
X163880952Y-126059523D01*
X163880952Y-125202380D01*
X164785714Y-126154761D02*
X164690476Y-126202380D01*
X164500000Y-126202380D01*
X164404761Y-126154761D01*
X164357142Y-126059523D01*
X164357142Y-125678571D01*
X164404761Y-125583333D01*
X164500000Y-125535714D01*
X164690476Y-125535714D01*
X164785714Y-125583333D01*
X164833333Y-125678571D01*
X164833333Y-125773809D01*
X164357142Y-125869047D01*
X165261904Y-126202380D02*
X165261904Y-125535714D01*
X165261904Y-125726190D02*
X165309523Y-125630952D01*
X165357142Y-125583333D01*
X165452380Y-125535714D01*
X165547619Y-125535714D01*
X165738095Y-125535714D02*
X166119047Y-125535714D01*
X165880952Y-125202380D02*
X165880952Y-126059523D01*
X165928571Y-126154761D01*
X166023809Y-126202380D01*
X166119047Y-126202380D01*
X163559523Y-123654761D02*
X163702380Y-123702380D01*
X163940476Y-123702380D01*
X164035714Y-123654761D01*
X164083333Y-123607142D01*
X164130952Y-123511904D01*
X164130952Y-123416666D01*
X164083333Y-123321428D01*
X164035714Y-123273809D01*
X163940476Y-123226190D01*
X163750000Y-123178571D01*
X163654761Y-123130952D01*
X163607142Y-123083333D01*
X163559523Y-122988095D01*
X163559523Y-122892857D01*
X163607142Y-122797619D01*
X163654761Y-122750000D01*
X163750000Y-122702380D01*
X163988095Y-122702380D01*
X164130952Y-122750000D01*
X165130952Y-123607142D02*
X165083333Y-123654761D01*
X164940476Y-123702380D01*
X164845238Y-123702380D01*
X164702380Y-123654761D01*
X164607142Y-123559523D01*
X164559523Y-123464285D01*
X164511904Y-123273809D01*
X164511904Y-123130952D01*
X164559523Y-122940476D01*
X164607142Y-122845238D01*
X164702380Y-122750000D01*
X164845238Y-122702380D01*
X164940476Y-122702380D01*
X165083333Y-122750000D01*
X165130952Y-122797619D01*
X166035714Y-123702380D02*
X165559523Y-123702380D01*
X165559523Y-122702380D01*
X163535714Y-121154761D02*
X163678571Y-121202380D01*
X163916666Y-121202380D01*
X164011904Y-121154761D01*
X164059523Y-121107142D01*
X164107142Y-121011904D01*
X164107142Y-120916666D01*
X164059523Y-120821428D01*
X164011904Y-120773809D01*
X163916666Y-120726190D01*
X163726190Y-120678571D01*
X163630952Y-120630952D01*
X163583333Y-120583333D01*
X163535714Y-120488095D01*
X163535714Y-120392857D01*
X163583333Y-120297619D01*
X163630952Y-120250000D01*
X163726190Y-120202380D01*
X163964285Y-120202380D01*
X164107142Y-120250000D01*
X164535714Y-121202380D02*
X164535714Y-120202380D01*
X164773809Y-120202380D01*
X164916666Y-120250000D01*
X165011904Y-120345238D01*
X165059523Y-120440476D01*
X165107142Y-120630952D01*
X165107142Y-120773809D01*
X165059523Y-120964285D01*
X165011904Y-121059523D01*
X164916666Y-121154761D01*
X164773809Y-121202380D01*
X164535714Y-121202380D01*
X165488095Y-120916666D02*
X165964285Y-120916666D01*
X165392857Y-121202380D02*
X165726190Y-120202380D01*
X166059523Y-121202380D01*
X164297619Y-117702380D02*
X164630952Y-118702380D01*
X164964285Y-117702380D01*
X165297619Y-118321428D02*
X166059523Y-118321428D01*
X165678571Y-118702380D02*
X165678571Y-117940476D01*
D12*
X137792857Y-129335714D02*
X138707142Y-129335714D01*
X137542857Y-117085714D02*
X138457142Y-117085714D01*
X138000000Y-117542857D02*
X138000000Y-116628571D01*
D10*
%TO.C,U1*%
X121425000Y-68425000D02*
X121425000Y-68200000D01*
X118075000Y-68425000D02*
X118075000Y-68125000D01*
X118075000Y-65075000D02*
X118075000Y-65375000D01*
X121425000Y-65075000D02*
X121425000Y-65375000D01*
X121425000Y-68425000D02*
X118075000Y-68425000D01*
X121425000Y-65075000D02*
X118075000Y-65075000D01*
X121425000Y-68200000D02*
X122650000Y-68200000D01*
D13*
%TO.C,R3*%
X125985000Y-64022936D02*
X125985000Y-64477064D01*
X124515000Y-64022936D02*
X124515000Y-64477064D01*
%TO.C,R2*%
X124515000Y-68727064D02*
X124515000Y-68272936D01*
X125985000Y-68727064D02*
X125985000Y-68272936D01*
%TO.C,R1*%
X111660000Y-66560436D02*
X111660000Y-68014564D01*
X109840000Y-66560436D02*
X109840000Y-68014564D01*
D14*
%TO.C,J2*%
X100900000Y-72350000D02*
X100900000Y-71850000D01*
X100900000Y-72350000D02*
X101400000Y-72350000D01*
X100900000Y-62150000D02*
X101400000Y-62150000D01*
X100900000Y-62150000D02*
X100900000Y-62650000D01*
X108600000Y-62150000D02*
X108600000Y-62650000D01*
X108600000Y-62150000D02*
X108150000Y-62150000D01*
X108600000Y-72350000D02*
X108150000Y-72350000D01*
X108600000Y-72350000D02*
X108600000Y-71850000D01*
D13*
%TO.C,J1*%
X131520000Y-73740000D02*
X134180000Y-73740000D01*
X131520000Y-63520000D02*
X131520000Y-73740000D01*
X134180000Y-63520000D02*
X134180000Y-73740000D01*
X131520000Y-63520000D02*
X134180000Y-63520000D01*
X131520000Y-62250000D02*
X131520000Y-60920000D01*
X131520000Y-60920000D02*
X132850000Y-60920000D01*
%TO.C,C1*%
X119288748Y-62515000D02*
X119811252Y-62515000D01*
X119288748Y-63985000D02*
X119811252Y-63985000D01*
D10*
%TO.C,U1*%
X121425000Y-82425000D02*
X121425000Y-82200000D01*
X118075000Y-82425000D02*
X118075000Y-82125000D01*
X118075000Y-79075000D02*
X118075000Y-79375000D01*
X121425000Y-79075000D02*
X121425000Y-79375000D01*
X121425000Y-82425000D02*
X118075000Y-82425000D01*
X121425000Y-79075000D02*
X118075000Y-79075000D01*
X121425000Y-82200000D02*
X122650000Y-82200000D01*
D13*
%TO.C,R3*%
X125985000Y-78022936D02*
X125985000Y-78477064D01*
X124515000Y-78022936D02*
X124515000Y-78477064D01*
%TO.C,R2*%
X124515000Y-82727064D02*
X124515000Y-82272936D01*
X125985000Y-82727064D02*
X125985000Y-82272936D01*
%TO.C,R1*%
X111660000Y-80560436D02*
X111660000Y-82014564D01*
X109840000Y-80560436D02*
X109840000Y-82014564D01*
D14*
%TO.C,J2*%
X100900000Y-86350000D02*
X100900000Y-85850000D01*
X100900000Y-86350000D02*
X101400000Y-86350000D01*
X100900000Y-76150000D02*
X101400000Y-76150000D01*
X100900000Y-76150000D02*
X100900000Y-76650000D01*
X108600000Y-76150000D02*
X108600000Y-76650000D01*
X108600000Y-76150000D02*
X108150000Y-76150000D01*
X108600000Y-86350000D02*
X108150000Y-86350000D01*
X108600000Y-86350000D02*
X108600000Y-85850000D01*
D13*
%TO.C,J1*%
X131520000Y-87740000D02*
X134180000Y-87740000D01*
X131520000Y-77520000D02*
X131520000Y-87740000D01*
X134180000Y-77520000D02*
X134180000Y-87740000D01*
X131520000Y-77520000D02*
X134180000Y-77520000D01*
X131520000Y-76250000D02*
X131520000Y-74920000D01*
X131520000Y-74920000D02*
X132850000Y-74920000D01*
%TO.C,C1*%
X119288748Y-76515000D02*
X119811252Y-76515000D01*
X119288748Y-77985000D02*
X119811252Y-77985000D01*
D10*
%TO.C,U1*%
X157425000Y-68425000D02*
X157425000Y-68200000D01*
X154075000Y-68425000D02*
X154075000Y-68125000D01*
X154075000Y-65075000D02*
X154075000Y-65375000D01*
X157425000Y-65075000D02*
X157425000Y-65375000D01*
X157425000Y-68425000D02*
X154075000Y-68425000D01*
X157425000Y-65075000D02*
X154075000Y-65075000D01*
X157425000Y-68200000D02*
X158650000Y-68200000D01*
D13*
%TO.C,R3*%
X161985000Y-64022936D02*
X161985000Y-64477064D01*
X160515000Y-64022936D02*
X160515000Y-64477064D01*
%TO.C,R2*%
X160515000Y-68727064D02*
X160515000Y-68272936D01*
X161985000Y-68727064D02*
X161985000Y-68272936D01*
%TO.C,R1*%
X147660000Y-66560436D02*
X147660000Y-68014564D01*
X145840000Y-66560436D02*
X145840000Y-68014564D01*
D14*
%TO.C,J2*%
X136900000Y-72350000D02*
X136900000Y-71850000D01*
X136900000Y-72350000D02*
X137400000Y-72350000D01*
X136900000Y-62150000D02*
X137400000Y-62150000D01*
X136900000Y-62150000D02*
X136900000Y-62650000D01*
X144600000Y-62150000D02*
X144600000Y-62650000D01*
X144600000Y-62150000D02*
X144150000Y-62150000D01*
X144600000Y-72350000D02*
X144150000Y-72350000D01*
X144600000Y-72350000D02*
X144600000Y-71850000D01*
D13*
%TO.C,J1*%
X167520000Y-73740000D02*
X170180000Y-73740000D01*
X167520000Y-63520000D02*
X167520000Y-73740000D01*
X170180000Y-63520000D02*
X170180000Y-73740000D01*
X167520000Y-63520000D02*
X170180000Y-63520000D01*
X167520000Y-62250000D02*
X167520000Y-60920000D01*
X167520000Y-60920000D02*
X168850000Y-60920000D01*
%TO.C,C1*%
X155288748Y-62515000D02*
X155811252Y-62515000D01*
X155288748Y-63985000D02*
X155811252Y-63985000D01*
D10*
%TO.C,U1*%
X157425000Y-82425000D02*
X157425000Y-82200000D01*
X154075000Y-82425000D02*
X154075000Y-82125000D01*
X154075000Y-79075000D02*
X154075000Y-79375000D01*
X157425000Y-79075000D02*
X157425000Y-79375000D01*
X157425000Y-82425000D02*
X154075000Y-82425000D01*
X157425000Y-79075000D02*
X154075000Y-79075000D01*
X157425000Y-82200000D02*
X158650000Y-82200000D01*
D13*
%TO.C,R3*%
X161985000Y-78022936D02*
X161985000Y-78477064D01*
X160515000Y-78022936D02*
X160515000Y-78477064D01*
%TO.C,R2*%
X160515000Y-82727064D02*
X160515000Y-82272936D01*
X161985000Y-82727064D02*
X161985000Y-82272936D01*
%TO.C,R1*%
X147660000Y-80560436D02*
X147660000Y-82014564D01*
X145840000Y-80560436D02*
X145840000Y-82014564D01*
D14*
%TO.C,J2*%
X136900000Y-86350000D02*
X136900000Y-85850000D01*
X136900000Y-86350000D02*
X137400000Y-86350000D01*
X136900000Y-76150000D02*
X137400000Y-76150000D01*
X136900000Y-76150000D02*
X136900000Y-76650000D01*
X144600000Y-76150000D02*
X144600000Y-76650000D01*
X144600000Y-76150000D02*
X144150000Y-76150000D01*
X144600000Y-86350000D02*
X144150000Y-86350000D01*
X144600000Y-86350000D02*
X144600000Y-85850000D01*
D13*
%TO.C,J1*%
X167520000Y-87740000D02*
X170180000Y-87740000D01*
X167520000Y-77520000D02*
X167520000Y-87740000D01*
X170180000Y-77520000D02*
X170180000Y-87740000D01*
X167520000Y-77520000D02*
X170180000Y-77520000D01*
X167520000Y-76250000D02*
X167520000Y-74920000D01*
X167520000Y-74920000D02*
X168850000Y-74920000D01*
%TO.C,C1*%
X155288748Y-76515000D02*
X155811252Y-76515000D01*
X155288748Y-77985000D02*
X155811252Y-77985000D01*
D10*
%TO.C,U1*%
X121425000Y-96425000D02*
X121425000Y-96200000D01*
X118075000Y-96425000D02*
X118075000Y-96125000D01*
X118075000Y-93075000D02*
X118075000Y-93375000D01*
X121425000Y-93075000D02*
X121425000Y-93375000D01*
X121425000Y-96425000D02*
X118075000Y-96425000D01*
X121425000Y-93075000D02*
X118075000Y-93075000D01*
X121425000Y-96200000D02*
X122650000Y-96200000D01*
D13*
%TO.C,R3*%
X125985000Y-92022936D02*
X125985000Y-92477064D01*
X124515000Y-92022936D02*
X124515000Y-92477064D01*
%TO.C,R2*%
X124515000Y-96727064D02*
X124515000Y-96272936D01*
X125985000Y-96727064D02*
X125985000Y-96272936D01*
%TO.C,R1*%
X111660000Y-94560436D02*
X111660000Y-96014564D01*
X109840000Y-94560436D02*
X109840000Y-96014564D01*
D14*
%TO.C,J2*%
X100900000Y-100350000D02*
X100900000Y-99850000D01*
X100900000Y-100350000D02*
X101400000Y-100350000D01*
X100900000Y-90150000D02*
X101400000Y-90150000D01*
X100900000Y-90150000D02*
X100900000Y-90650000D01*
X108600000Y-90150000D02*
X108600000Y-90650000D01*
X108600000Y-90150000D02*
X108150000Y-90150000D01*
X108600000Y-100350000D02*
X108150000Y-100350000D01*
X108600000Y-100350000D02*
X108600000Y-99850000D01*
D13*
%TO.C,J1*%
X131520000Y-101740000D02*
X134180000Y-101740000D01*
X131520000Y-91520000D02*
X131520000Y-101740000D01*
X134180000Y-91520000D02*
X134180000Y-101740000D01*
X131520000Y-91520000D02*
X134180000Y-91520000D01*
X131520000Y-90250000D02*
X131520000Y-88920000D01*
X131520000Y-88920000D02*
X132850000Y-88920000D01*
%TO.C,C1*%
X119288748Y-90515000D02*
X119811252Y-90515000D01*
X119288748Y-91985000D02*
X119811252Y-91985000D01*
D10*
%TO.C,U1*%
X157425000Y-96425000D02*
X157425000Y-96200000D01*
X154075000Y-96425000D02*
X154075000Y-96125000D01*
X154075000Y-93075000D02*
X154075000Y-93375000D01*
X157425000Y-93075000D02*
X157425000Y-93375000D01*
X157425000Y-96425000D02*
X154075000Y-96425000D01*
X157425000Y-93075000D02*
X154075000Y-93075000D01*
X157425000Y-96200000D02*
X158650000Y-96200000D01*
D13*
%TO.C,R3*%
X161985000Y-92022936D02*
X161985000Y-92477064D01*
X160515000Y-92022936D02*
X160515000Y-92477064D01*
%TO.C,R2*%
X160515000Y-96727064D02*
X160515000Y-96272936D01*
X161985000Y-96727064D02*
X161985000Y-96272936D01*
%TO.C,R1*%
X147660000Y-94560436D02*
X147660000Y-96014564D01*
X145840000Y-94560436D02*
X145840000Y-96014564D01*
D14*
%TO.C,J2*%
X136900000Y-100350000D02*
X136900000Y-99850000D01*
X136900000Y-100350000D02*
X137400000Y-100350000D01*
X136900000Y-90150000D02*
X137400000Y-90150000D01*
X136900000Y-90150000D02*
X136900000Y-90650000D01*
X144600000Y-90150000D02*
X144600000Y-90650000D01*
X144600000Y-90150000D02*
X144150000Y-90150000D01*
X144600000Y-100350000D02*
X144150000Y-100350000D01*
X144600000Y-100350000D02*
X144600000Y-99850000D01*
D13*
%TO.C,J1*%
X167520000Y-101740000D02*
X170180000Y-101740000D01*
X167520000Y-91520000D02*
X167520000Y-101740000D01*
X170180000Y-91520000D02*
X170180000Y-101740000D01*
X167520000Y-91520000D02*
X170180000Y-91520000D01*
X167520000Y-90250000D02*
X167520000Y-88920000D01*
X167520000Y-88920000D02*
X168850000Y-88920000D01*
%TO.C,C1*%
X155288748Y-90515000D02*
X155811252Y-90515000D01*
X155288748Y-91985000D02*
X155811252Y-91985000D01*
D10*
%TO.C,U1*%
X121425000Y-110425000D02*
X121425000Y-110200000D01*
X118075000Y-110425000D02*
X118075000Y-110125000D01*
X118075000Y-107075000D02*
X118075000Y-107375000D01*
X121425000Y-107075000D02*
X121425000Y-107375000D01*
X121425000Y-110425000D02*
X118075000Y-110425000D01*
X121425000Y-107075000D02*
X118075000Y-107075000D01*
X121425000Y-110200000D02*
X122650000Y-110200000D01*
D13*
%TO.C,R3*%
X125985000Y-106022936D02*
X125985000Y-106477064D01*
X124515000Y-106022936D02*
X124515000Y-106477064D01*
%TO.C,R2*%
X124515000Y-110727064D02*
X124515000Y-110272936D01*
X125985000Y-110727064D02*
X125985000Y-110272936D01*
%TO.C,R1*%
X111660000Y-108560436D02*
X111660000Y-110014564D01*
X109840000Y-108560436D02*
X109840000Y-110014564D01*
D14*
%TO.C,J2*%
X100900000Y-114350000D02*
X100900000Y-113850000D01*
X100900000Y-114350000D02*
X101400000Y-114350000D01*
X100900000Y-104150000D02*
X101400000Y-104150000D01*
X100900000Y-104150000D02*
X100900000Y-104650000D01*
X108600000Y-104150000D02*
X108600000Y-104650000D01*
X108600000Y-104150000D02*
X108150000Y-104150000D01*
X108600000Y-114350000D02*
X108150000Y-114350000D01*
X108600000Y-114350000D02*
X108600000Y-113850000D01*
D13*
%TO.C,J1*%
X131520000Y-115740000D02*
X134180000Y-115740000D01*
X131520000Y-105520000D02*
X131520000Y-115740000D01*
X134180000Y-105520000D02*
X134180000Y-115740000D01*
X131520000Y-105520000D02*
X134180000Y-105520000D01*
X131520000Y-104250000D02*
X131520000Y-102920000D01*
X131520000Y-102920000D02*
X132850000Y-102920000D01*
%TO.C,C1*%
X119288748Y-104515000D02*
X119811252Y-104515000D01*
X119288748Y-105985000D02*
X119811252Y-105985000D01*
D10*
%TO.C,U1*%
X157425000Y-110425000D02*
X157425000Y-110200000D01*
X154075000Y-110425000D02*
X154075000Y-110125000D01*
X154075000Y-107075000D02*
X154075000Y-107375000D01*
X157425000Y-107075000D02*
X157425000Y-107375000D01*
X157425000Y-110425000D02*
X154075000Y-110425000D01*
X157425000Y-107075000D02*
X154075000Y-107075000D01*
X157425000Y-110200000D02*
X158650000Y-110200000D01*
D13*
%TO.C,R3*%
X161985000Y-106022936D02*
X161985000Y-106477064D01*
X160515000Y-106022936D02*
X160515000Y-106477064D01*
%TO.C,R2*%
X160515000Y-110727064D02*
X160515000Y-110272936D01*
X161985000Y-110727064D02*
X161985000Y-110272936D01*
%TO.C,R1*%
X147660000Y-108560436D02*
X147660000Y-110014564D01*
X145840000Y-108560436D02*
X145840000Y-110014564D01*
D14*
%TO.C,J2*%
X136900000Y-114350000D02*
X136900000Y-113850000D01*
X136900000Y-114350000D02*
X137400000Y-114350000D01*
X136900000Y-104150000D02*
X137400000Y-104150000D01*
X136900000Y-104150000D02*
X136900000Y-104650000D01*
X144600000Y-104150000D02*
X144600000Y-104650000D01*
X144600000Y-104150000D02*
X144150000Y-104150000D01*
X144600000Y-114350000D02*
X144150000Y-114350000D01*
X144600000Y-114350000D02*
X144600000Y-113850000D01*
D13*
%TO.C,J1*%
X167520000Y-115740000D02*
X170180000Y-115740000D01*
X167520000Y-105520000D02*
X167520000Y-115740000D01*
X170180000Y-105520000D02*
X170180000Y-115740000D01*
X167520000Y-105520000D02*
X170180000Y-105520000D01*
X167520000Y-104250000D02*
X167520000Y-102920000D01*
X167520000Y-102920000D02*
X168850000Y-102920000D01*
%TO.C,C1*%
X155288748Y-104515000D02*
X155811252Y-104515000D01*
X155288748Y-105985000D02*
X155811252Y-105985000D01*
D10*
%TO.C,U1*%
X121425000Y-124425000D02*
X121425000Y-124200000D01*
X118075000Y-124425000D02*
X118075000Y-124125000D01*
X118075000Y-121075000D02*
X118075000Y-121375000D01*
X121425000Y-121075000D02*
X121425000Y-121375000D01*
X121425000Y-124425000D02*
X118075000Y-124425000D01*
X121425000Y-121075000D02*
X118075000Y-121075000D01*
X121425000Y-124200000D02*
X122650000Y-124200000D01*
D13*
%TO.C,R3*%
X125985000Y-120022936D02*
X125985000Y-120477064D01*
X124515000Y-120022936D02*
X124515000Y-120477064D01*
%TO.C,R2*%
X124515000Y-124727064D02*
X124515000Y-124272936D01*
X125985000Y-124727064D02*
X125985000Y-124272936D01*
%TO.C,R1*%
X111660000Y-122560436D02*
X111660000Y-124014564D01*
X109840000Y-122560436D02*
X109840000Y-124014564D01*
D14*
%TO.C,J2*%
X100900000Y-128350000D02*
X100900000Y-127850000D01*
X100900000Y-128350000D02*
X101400000Y-128350000D01*
X100900000Y-118150000D02*
X101400000Y-118150000D01*
X100900000Y-118150000D02*
X100900000Y-118650000D01*
X108600000Y-118150000D02*
X108600000Y-118650000D01*
X108600000Y-118150000D02*
X108150000Y-118150000D01*
X108600000Y-128350000D02*
X108150000Y-128350000D01*
X108600000Y-128350000D02*
X108600000Y-127850000D01*
D13*
%TO.C,J1*%
X131520000Y-129740000D02*
X134180000Y-129740000D01*
X131520000Y-119520000D02*
X131520000Y-129740000D01*
X134180000Y-119520000D02*
X134180000Y-129740000D01*
X131520000Y-119520000D02*
X134180000Y-119520000D01*
X131520000Y-118250000D02*
X131520000Y-116920000D01*
X131520000Y-116920000D02*
X132850000Y-116920000D01*
%TO.C,C1*%
X119288748Y-118515000D02*
X119811252Y-118515000D01*
X119288748Y-119985000D02*
X119811252Y-119985000D01*
D10*
%TO.C,U1*%
X157425000Y-124425000D02*
X157425000Y-124200000D01*
X154075000Y-124425000D02*
X154075000Y-124125000D01*
X154075000Y-121075000D02*
X154075000Y-121375000D01*
X157425000Y-121075000D02*
X157425000Y-121375000D01*
X157425000Y-124425000D02*
X154075000Y-124425000D01*
X157425000Y-121075000D02*
X154075000Y-121075000D01*
X157425000Y-124200000D02*
X158650000Y-124200000D01*
D13*
%TO.C,R3*%
X161985000Y-120022936D02*
X161985000Y-120477064D01*
X160515000Y-120022936D02*
X160515000Y-120477064D01*
%TO.C,R2*%
X160515000Y-124727064D02*
X160515000Y-124272936D01*
X161985000Y-124727064D02*
X161985000Y-124272936D01*
%TO.C,R1*%
X147660000Y-122560436D02*
X147660000Y-124014564D01*
X145840000Y-122560436D02*
X145840000Y-124014564D01*
D14*
%TO.C,J2*%
X136900000Y-128350000D02*
X136900000Y-127850000D01*
X136900000Y-128350000D02*
X137400000Y-128350000D01*
X136900000Y-118150000D02*
X137400000Y-118150000D01*
X136900000Y-118150000D02*
X136900000Y-118650000D01*
X144600000Y-118150000D02*
X144600000Y-118650000D01*
X144600000Y-118150000D02*
X144150000Y-118150000D01*
X144600000Y-128350000D02*
X144150000Y-128350000D01*
X144600000Y-128350000D02*
X144600000Y-127850000D01*
D13*
%TO.C,J1*%
X167520000Y-129740000D02*
X170180000Y-129740000D01*
X167520000Y-119520000D02*
X167520000Y-129740000D01*
X170180000Y-119520000D02*
X170180000Y-129740000D01*
X167520000Y-119520000D02*
X170180000Y-119520000D01*
X167520000Y-118250000D02*
X167520000Y-116920000D01*
X167520000Y-116920000D02*
X168850000Y-116920000D01*
%TO.C,C1*%
X155288748Y-118515000D02*
X155811252Y-118515000D01*
X155288748Y-119985000D02*
X155811252Y-119985000D01*
%TD*%
M02*
