M48
; DRILL file {KiCad 5.1.10} date Sun Nov  7 07:50:48 2021
; FORMAT={-:-/ absolute / inch / decimal}
; #@! TF.CreationDate,2021-11-07T07:50:48-05:00
; #@! TF.GenerationSoftware,Kicad,Pcbnew,5.1.10
; #@! TF.FileFunction,Plated,1,2,PTH
FMAT,2
INCH
T1C0.0157
T2C0.0394
T3C0.0512
%
G90
G05
T1
X4.5472Y-2.5984
X4.5472Y-3.1496
X4.5472Y-3.7008
X4.5472Y-4.252
X4.5472Y-4.8031
X4.6654Y-2.7854
X4.6654Y-3.3366
X4.6654Y-3.8878
X4.6654Y-4.439
X4.6654Y-4.9902
X4.7146Y-2.5591
X4.7146Y-3.1102
X4.7146Y-3.6614
X4.7146Y-4.2126
X4.7146Y-4.7638
X4.7736Y-2.7264
X4.7736Y-3.2776
X4.7736Y-3.8287
X4.7736Y-4.3799
X4.7736Y-4.9311
X4.7933Y-2.5295
X4.7933Y-3.0807
X4.7933Y-3.6319
X4.7933Y-4.1831
X4.7933Y-4.7343
X4.8031Y-2.4705
X4.8031Y-3.0217
X4.8031Y-3.5728
X4.8031Y-4.124
X4.8031Y-4.6752
X5.9646Y-2.5984
X5.9646Y-3.1496
X5.9646Y-3.7008
X5.9646Y-4.252
X5.9646Y-4.8031
X6.0827Y-2.7854
X6.0827Y-3.3366
X6.0827Y-3.8878
X6.0827Y-4.439
X6.0827Y-4.9902
X6.1319Y-2.5591
X6.1319Y-3.1102
X6.1319Y-3.6614
X6.1319Y-4.2126
X6.1319Y-4.7638
X6.1909Y-2.7264
X6.1909Y-3.2776
X6.1909Y-3.8287
X6.1909Y-4.3799
X6.1909Y-4.9311
X6.2106Y-2.5295
X6.2106Y-3.0807
X6.2106Y-3.6319
X6.2106Y-4.1831
X6.2106Y-4.7343
X6.2205Y-2.4705
X6.2205Y-3.0217
X6.2205Y-3.5728
X6.2205Y-4.124
X6.2205Y-4.6752
T2
X5.2303Y-2.4508
X5.2303Y-2.5508
X5.2303Y-2.6508
X5.2303Y-2.7508
X5.2303Y-2.8508
X5.2303Y-3.002
X5.2303Y-3.102
X5.2303Y-3.202
X5.2303Y-3.302
X5.2303Y-3.402
X5.2303Y-3.5531
X5.2303Y-3.6531
X5.2303Y-3.7531
X5.2303Y-3.8531
X5.2303Y-3.9531
X5.2303Y-4.1043
X5.2303Y-4.2043
X5.2303Y-4.3043
X5.2303Y-4.4043
X5.2303Y-4.5043
X5.2303Y-4.6555
X5.2303Y-4.7555
X5.2303Y-4.8555
X5.2303Y-4.9555
X5.2303Y-5.0555
X6.6476Y-2.4508
X6.6476Y-2.5508
X6.6476Y-2.6508
X6.6476Y-2.7508
X6.6476Y-2.8508
X6.6476Y-3.002
X6.6476Y-3.102
X6.6476Y-3.202
X6.6476Y-3.302
X6.6476Y-3.402
X6.6476Y-3.5531
X6.6476Y-3.6531
X6.6476Y-3.7531
X6.6476Y-3.8531
X6.6476Y-3.9531
X6.6476Y-4.1043
X6.6476Y-4.2043
X6.6476Y-4.3043
X6.6476Y-4.4043
X6.6476Y-4.5043
X6.6476Y-4.6555
X6.6476Y-4.7555
X6.6476Y-4.8555
X6.6476Y-4.9555
X6.6476Y-5.0555
T3
X4.124Y-2.5492
X4.124Y-2.7461
X4.124Y-3.1004
X4.124Y-3.2972
X4.124Y-3.6516
X4.124Y-3.8484
X4.124Y-4.2028
X4.124Y-4.3996
X4.124Y-4.7539
X4.124Y-4.9508
X5.5413Y-2.5492
X5.5413Y-2.7461
X5.5413Y-3.1004
X5.5413Y-3.2972
X5.5413Y-3.6516
X5.5413Y-3.8484
X5.5413Y-4.2028
X5.5413Y-4.3996
X5.5413Y-4.7539
X5.5413Y-4.9508
T0
M30
