%TF.GenerationSoftware,KiCad,Pcbnew,5.1.10*%
%TF.CreationDate,2021-11-07T07:50:52-05:00*%
%TF.ProjectId,CurrentSenseModule-RevB-10p,43757272-656e-4745-9365-6e73654d6f64,rev?*%
%TF.SameCoordinates,Original*%
%TF.FileFunction,Profile,NP*%
%FSLAX46Y46*%
G04 Gerber Fmt 4.6, Leading zero omitted, Abs format (unit mm)*
G04 Created by KiCad (PCBNEW 5.1.10) date 2021-11-07 07:50:52*
%MOMM*%
%LPD*%
G01*
G04 APERTURE LIST*
%TA.AperFunction,Profile*%
%ADD10C,0.050000*%
%TD*%
G04 APERTURE END LIST*
D10*
X99750000Y-74250000D02*
X99750000Y-60250000D01*
X135750000Y-74250000D02*
X99750000Y-74250000D01*
X135750000Y-60250000D02*
X135750000Y-74250000D01*
X99750000Y-60250000D02*
X135750000Y-60250000D01*
X99750000Y-88250000D02*
X99750000Y-74250000D01*
X135750000Y-88250000D02*
X99750000Y-88250000D01*
X135750000Y-74250000D02*
X135750000Y-88250000D01*
X99750000Y-74250000D02*
X135750000Y-74250000D01*
X135750000Y-74250000D02*
X135750000Y-60250000D01*
X171750000Y-74250000D02*
X135750000Y-74250000D01*
X171750000Y-60250000D02*
X171750000Y-74250000D01*
X135750000Y-60250000D02*
X171750000Y-60250000D01*
X135750000Y-88250000D02*
X135750000Y-74250000D01*
X171750000Y-88250000D02*
X135750000Y-88250000D01*
X171750000Y-74250000D02*
X171750000Y-88250000D01*
X135750000Y-74250000D02*
X171750000Y-74250000D01*
X99750000Y-102250000D02*
X99750000Y-88250000D01*
X135750000Y-102250000D02*
X99750000Y-102250000D01*
X135750000Y-88250000D02*
X135750000Y-102250000D01*
X99750000Y-88250000D02*
X135750000Y-88250000D01*
X135750000Y-102250000D02*
X135750000Y-88250000D01*
X171750000Y-102250000D02*
X135750000Y-102250000D01*
X171750000Y-88250000D02*
X171750000Y-102250000D01*
X135750000Y-88250000D02*
X171750000Y-88250000D01*
X99750000Y-116250000D02*
X99750000Y-102250000D01*
X135750000Y-116250000D02*
X99750000Y-116250000D01*
X135750000Y-102250000D02*
X135750000Y-116250000D01*
X99750000Y-102250000D02*
X135750000Y-102250000D01*
X135750000Y-116250000D02*
X135750000Y-102250000D01*
X171750000Y-116250000D02*
X135750000Y-116250000D01*
X171750000Y-102250000D02*
X171750000Y-116250000D01*
X135750000Y-102250000D02*
X171750000Y-102250000D01*
X99750000Y-130250000D02*
X99750000Y-116250000D01*
X135750000Y-130250000D02*
X99750000Y-130250000D01*
X135750000Y-116250000D02*
X135750000Y-130250000D01*
X99750000Y-116250000D02*
X135750000Y-116250000D01*
X135750000Y-130250000D02*
X135750000Y-116250000D01*
X171750000Y-130250000D02*
X135750000Y-130250000D01*
X171750000Y-116250000D02*
X171750000Y-130250000D01*
X135750000Y-116250000D02*
X171750000Y-116250000D01*
M02*
