%TF.GenerationSoftware,KiCad,Pcbnew,5.1.10*%
%TF.CreationDate,2021-11-07T07:50:52-05:00*%
%TF.ProjectId,CurrentSenseModule-RevB-10p,43757272-656e-4745-9365-6e73654d6f64,rev?*%
%TF.SameCoordinates,Original*%
%TF.FileFunction,Soldermask,Bot*%
%TF.FilePolarity,Negative*%
%FSLAX46Y46*%
G04 Gerber Fmt 4.6, Leading zero omitted, Abs format (unit mm)*
G04 Created by KiCad (PCBNEW 5.1.10) date 2021-11-07 07:50:52*
%MOMM*%
%LPD*%
G01*
G04 APERTURE LIST*
%ADD10C,3.200000*%
%ADD11C,0.100000*%
%ADD12R,1.000000X1.500000*%
%ADD13C,2.500000*%
%ADD14R,2.500000X2.500000*%
%ADD15O,1.700000X1.700000*%
%ADD16R,1.700000X1.700000*%
G04 APERTURE END LIST*
D10*
%TO.C,REF\u002A\u002A*%
X114750000Y-63250000D03*
%TD*%
%TO.C,REF\u002A\u002A*%
X114750000Y-71250000D03*
%TD*%
D11*
%TO.C,JP2*%
G36*
X122200000Y-70000000D02*
G01*
X122750000Y-70000000D01*
X122750000Y-70000602D01*
X122774534Y-70000602D01*
X122823365Y-70005412D01*
X122871490Y-70014984D01*
X122918445Y-70029228D01*
X122963778Y-70048005D01*
X123007051Y-70071136D01*
X123047850Y-70098396D01*
X123085779Y-70129524D01*
X123120476Y-70164221D01*
X123151604Y-70202150D01*
X123178864Y-70242949D01*
X123201995Y-70286222D01*
X123220772Y-70331555D01*
X123235016Y-70378510D01*
X123244588Y-70426635D01*
X123249398Y-70475466D01*
X123249398Y-70500000D01*
X123250000Y-70500000D01*
X123250000Y-71000000D01*
X123249398Y-71000000D01*
X123249398Y-71024534D01*
X123244588Y-71073365D01*
X123235016Y-71121490D01*
X123220772Y-71168445D01*
X123201995Y-71213778D01*
X123178864Y-71257051D01*
X123151604Y-71297850D01*
X123120476Y-71335779D01*
X123085779Y-71370476D01*
X123047850Y-71401604D01*
X123007051Y-71428864D01*
X122963778Y-71451995D01*
X122918445Y-71470772D01*
X122871490Y-71485016D01*
X122823365Y-71494588D01*
X122774534Y-71499398D01*
X122750000Y-71499398D01*
X122750000Y-71500000D01*
X122200000Y-71500000D01*
X122200000Y-70000000D01*
G37*
D12*
X121450000Y-70750000D03*
D11*
G36*
X120150000Y-71499398D02*
G01*
X120125466Y-71499398D01*
X120076635Y-71494588D01*
X120028510Y-71485016D01*
X119981555Y-71470772D01*
X119936222Y-71451995D01*
X119892949Y-71428864D01*
X119852150Y-71401604D01*
X119814221Y-71370476D01*
X119779524Y-71335779D01*
X119748396Y-71297850D01*
X119721136Y-71257051D01*
X119698005Y-71213778D01*
X119679228Y-71168445D01*
X119664984Y-71121490D01*
X119655412Y-71073365D01*
X119650602Y-71024534D01*
X119650602Y-71000000D01*
X119650000Y-71000000D01*
X119650000Y-70500000D01*
X119650602Y-70500000D01*
X119650602Y-70475466D01*
X119655412Y-70426635D01*
X119664984Y-70378510D01*
X119679228Y-70331555D01*
X119698005Y-70286222D01*
X119721136Y-70242949D01*
X119748396Y-70202150D01*
X119779524Y-70164221D01*
X119814221Y-70129524D01*
X119852150Y-70098396D01*
X119892949Y-70071136D01*
X119936222Y-70048005D01*
X119981555Y-70029228D01*
X120028510Y-70014984D01*
X120076635Y-70005412D01*
X120125466Y-70000602D01*
X120150000Y-70000602D01*
X120150000Y-70000000D01*
X120700000Y-70000000D01*
X120700000Y-71500000D01*
X120150000Y-71500000D01*
X120150000Y-71499398D01*
G37*
%TD*%
%TO.C,JP1*%
G36*
X122200000Y-65500000D02*
G01*
X122750000Y-65500000D01*
X122750000Y-65500602D01*
X122774534Y-65500602D01*
X122823365Y-65505412D01*
X122871490Y-65514984D01*
X122918445Y-65529228D01*
X122963778Y-65548005D01*
X123007051Y-65571136D01*
X123047850Y-65598396D01*
X123085779Y-65629524D01*
X123120476Y-65664221D01*
X123151604Y-65702150D01*
X123178864Y-65742949D01*
X123201995Y-65786222D01*
X123220772Y-65831555D01*
X123235016Y-65878510D01*
X123244588Y-65926635D01*
X123249398Y-65975466D01*
X123249398Y-66000000D01*
X123250000Y-66000000D01*
X123250000Y-66500000D01*
X123249398Y-66500000D01*
X123249398Y-66524534D01*
X123244588Y-66573365D01*
X123235016Y-66621490D01*
X123220772Y-66668445D01*
X123201995Y-66713778D01*
X123178864Y-66757051D01*
X123151604Y-66797850D01*
X123120476Y-66835779D01*
X123085779Y-66870476D01*
X123047850Y-66901604D01*
X123007051Y-66928864D01*
X122963778Y-66951995D01*
X122918445Y-66970772D01*
X122871490Y-66985016D01*
X122823365Y-66994588D01*
X122774534Y-66999398D01*
X122750000Y-66999398D01*
X122750000Y-67000000D01*
X122200000Y-67000000D01*
X122200000Y-65500000D01*
G37*
D12*
X121450000Y-66250000D03*
D11*
G36*
X120150000Y-66999398D02*
G01*
X120125466Y-66999398D01*
X120076635Y-66994588D01*
X120028510Y-66985016D01*
X119981555Y-66970772D01*
X119936222Y-66951995D01*
X119892949Y-66928864D01*
X119852150Y-66901604D01*
X119814221Y-66870476D01*
X119779524Y-66835779D01*
X119748396Y-66797850D01*
X119721136Y-66757051D01*
X119698005Y-66713778D01*
X119679228Y-66668445D01*
X119664984Y-66621490D01*
X119655412Y-66573365D01*
X119650602Y-66524534D01*
X119650602Y-66500000D01*
X119650000Y-66500000D01*
X119650000Y-66000000D01*
X119650602Y-66000000D01*
X119650602Y-65975466D01*
X119655412Y-65926635D01*
X119664984Y-65878510D01*
X119679228Y-65831555D01*
X119698005Y-65786222D01*
X119721136Y-65742949D01*
X119748396Y-65702150D01*
X119779524Y-65664221D01*
X119814221Y-65629524D01*
X119852150Y-65598396D01*
X119892949Y-65571136D01*
X119936222Y-65548005D01*
X119981555Y-65529228D01*
X120028510Y-65514984D01*
X120076635Y-65505412D01*
X120125466Y-65500602D01*
X120150000Y-65500602D01*
X120150000Y-65500000D01*
X120700000Y-65500000D01*
X120700000Y-67000000D01*
X120150000Y-67000000D01*
X120150000Y-66999398D01*
G37*
%TD*%
D13*
%TO.C,J2*%
X104750000Y-69750000D03*
D14*
X104750000Y-64750000D03*
%TD*%
D15*
%TO.C,J1*%
X132850000Y-72410000D03*
X132850000Y-69870000D03*
X132850000Y-67330000D03*
X132850000Y-64790000D03*
D16*
X132850000Y-62250000D03*
%TD*%
D10*
%TO.C,REF\u002A\u002A*%
X114750000Y-77250000D03*
%TD*%
%TO.C,REF\u002A\u002A*%
X114750000Y-85250000D03*
%TD*%
D11*
%TO.C,JP2*%
G36*
X122200000Y-84000000D02*
G01*
X122750000Y-84000000D01*
X122750000Y-84000602D01*
X122774534Y-84000602D01*
X122823365Y-84005412D01*
X122871490Y-84014984D01*
X122918445Y-84029228D01*
X122963778Y-84048005D01*
X123007051Y-84071136D01*
X123047850Y-84098396D01*
X123085779Y-84129524D01*
X123120476Y-84164221D01*
X123151604Y-84202150D01*
X123178864Y-84242949D01*
X123201995Y-84286222D01*
X123220772Y-84331555D01*
X123235016Y-84378510D01*
X123244588Y-84426635D01*
X123249398Y-84475466D01*
X123249398Y-84500000D01*
X123250000Y-84500000D01*
X123250000Y-85000000D01*
X123249398Y-85000000D01*
X123249398Y-85024534D01*
X123244588Y-85073365D01*
X123235016Y-85121490D01*
X123220772Y-85168445D01*
X123201995Y-85213778D01*
X123178864Y-85257051D01*
X123151604Y-85297850D01*
X123120476Y-85335779D01*
X123085779Y-85370476D01*
X123047850Y-85401604D01*
X123007051Y-85428864D01*
X122963778Y-85451995D01*
X122918445Y-85470772D01*
X122871490Y-85485016D01*
X122823365Y-85494588D01*
X122774534Y-85499398D01*
X122750000Y-85499398D01*
X122750000Y-85500000D01*
X122200000Y-85500000D01*
X122200000Y-84000000D01*
G37*
D12*
X121450000Y-84750000D03*
D11*
G36*
X120150000Y-85499398D02*
G01*
X120125466Y-85499398D01*
X120076635Y-85494588D01*
X120028510Y-85485016D01*
X119981555Y-85470772D01*
X119936222Y-85451995D01*
X119892949Y-85428864D01*
X119852150Y-85401604D01*
X119814221Y-85370476D01*
X119779524Y-85335779D01*
X119748396Y-85297850D01*
X119721136Y-85257051D01*
X119698005Y-85213778D01*
X119679228Y-85168445D01*
X119664984Y-85121490D01*
X119655412Y-85073365D01*
X119650602Y-85024534D01*
X119650602Y-85000000D01*
X119650000Y-85000000D01*
X119650000Y-84500000D01*
X119650602Y-84500000D01*
X119650602Y-84475466D01*
X119655412Y-84426635D01*
X119664984Y-84378510D01*
X119679228Y-84331555D01*
X119698005Y-84286222D01*
X119721136Y-84242949D01*
X119748396Y-84202150D01*
X119779524Y-84164221D01*
X119814221Y-84129524D01*
X119852150Y-84098396D01*
X119892949Y-84071136D01*
X119936222Y-84048005D01*
X119981555Y-84029228D01*
X120028510Y-84014984D01*
X120076635Y-84005412D01*
X120125466Y-84000602D01*
X120150000Y-84000602D01*
X120150000Y-84000000D01*
X120700000Y-84000000D01*
X120700000Y-85500000D01*
X120150000Y-85500000D01*
X120150000Y-85499398D01*
G37*
%TD*%
%TO.C,JP1*%
G36*
X122200000Y-79500000D02*
G01*
X122750000Y-79500000D01*
X122750000Y-79500602D01*
X122774534Y-79500602D01*
X122823365Y-79505412D01*
X122871490Y-79514984D01*
X122918445Y-79529228D01*
X122963778Y-79548005D01*
X123007051Y-79571136D01*
X123047850Y-79598396D01*
X123085779Y-79629524D01*
X123120476Y-79664221D01*
X123151604Y-79702150D01*
X123178864Y-79742949D01*
X123201995Y-79786222D01*
X123220772Y-79831555D01*
X123235016Y-79878510D01*
X123244588Y-79926635D01*
X123249398Y-79975466D01*
X123249398Y-80000000D01*
X123250000Y-80000000D01*
X123250000Y-80500000D01*
X123249398Y-80500000D01*
X123249398Y-80524534D01*
X123244588Y-80573365D01*
X123235016Y-80621490D01*
X123220772Y-80668445D01*
X123201995Y-80713778D01*
X123178864Y-80757051D01*
X123151604Y-80797850D01*
X123120476Y-80835779D01*
X123085779Y-80870476D01*
X123047850Y-80901604D01*
X123007051Y-80928864D01*
X122963778Y-80951995D01*
X122918445Y-80970772D01*
X122871490Y-80985016D01*
X122823365Y-80994588D01*
X122774534Y-80999398D01*
X122750000Y-80999398D01*
X122750000Y-81000000D01*
X122200000Y-81000000D01*
X122200000Y-79500000D01*
G37*
D12*
X121450000Y-80250000D03*
D11*
G36*
X120150000Y-80999398D02*
G01*
X120125466Y-80999398D01*
X120076635Y-80994588D01*
X120028510Y-80985016D01*
X119981555Y-80970772D01*
X119936222Y-80951995D01*
X119892949Y-80928864D01*
X119852150Y-80901604D01*
X119814221Y-80870476D01*
X119779524Y-80835779D01*
X119748396Y-80797850D01*
X119721136Y-80757051D01*
X119698005Y-80713778D01*
X119679228Y-80668445D01*
X119664984Y-80621490D01*
X119655412Y-80573365D01*
X119650602Y-80524534D01*
X119650602Y-80500000D01*
X119650000Y-80500000D01*
X119650000Y-80000000D01*
X119650602Y-80000000D01*
X119650602Y-79975466D01*
X119655412Y-79926635D01*
X119664984Y-79878510D01*
X119679228Y-79831555D01*
X119698005Y-79786222D01*
X119721136Y-79742949D01*
X119748396Y-79702150D01*
X119779524Y-79664221D01*
X119814221Y-79629524D01*
X119852150Y-79598396D01*
X119892949Y-79571136D01*
X119936222Y-79548005D01*
X119981555Y-79529228D01*
X120028510Y-79514984D01*
X120076635Y-79505412D01*
X120125466Y-79500602D01*
X120150000Y-79500602D01*
X120150000Y-79500000D01*
X120700000Y-79500000D01*
X120700000Y-81000000D01*
X120150000Y-81000000D01*
X120150000Y-80999398D01*
G37*
%TD*%
D13*
%TO.C,J2*%
X104750000Y-83750000D03*
D14*
X104750000Y-78750000D03*
%TD*%
D15*
%TO.C,J1*%
X132850000Y-86410000D03*
X132850000Y-83870000D03*
X132850000Y-81330000D03*
X132850000Y-78790000D03*
D16*
X132850000Y-76250000D03*
%TD*%
D10*
%TO.C,REF\u002A\u002A*%
X150750000Y-63250000D03*
%TD*%
%TO.C,REF\u002A\u002A*%
X150750000Y-71250000D03*
%TD*%
D11*
%TO.C,JP2*%
G36*
X158200000Y-70000000D02*
G01*
X158750000Y-70000000D01*
X158750000Y-70000602D01*
X158774534Y-70000602D01*
X158823365Y-70005412D01*
X158871490Y-70014984D01*
X158918445Y-70029228D01*
X158963778Y-70048005D01*
X159007051Y-70071136D01*
X159047850Y-70098396D01*
X159085779Y-70129524D01*
X159120476Y-70164221D01*
X159151604Y-70202150D01*
X159178864Y-70242949D01*
X159201995Y-70286222D01*
X159220772Y-70331555D01*
X159235016Y-70378510D01*
X159244588Y-70426635D01*
X159249398Y-70475466D01*
X159249398Y-70500000D01*
X159250000Y-70500000D01*
X159250000Y-71000000D01*
X159249398Y-71000000D01*
X159249398Y-71024534D01*
X159244588Y-71073365D01*
X159235016Y-71121490D01*
X159220772Y-71168445D01*
X159201995Y-71213778D01*
X159178864Y-71257051D01*
X159151604Y-71297850D01*
X159120476Y-71335779D01*
X159085779Y-71370476D01*
X159047850Y-71401604D01*
X159007051Y-71428864D01*
X158963778Y-71451995D01*
X158918445Y-71470772D01*
X158871490Y-71485016D01*
X158823365Y-71494588D01*
X158774534Y-71499398D01*
X158750000Y-71499398D01*
X158750000Y-71500000D01*
X158200000Y-71500000D01*
X158200000Y-70000000D01*
G37*
D12*
X157450000Y-70750000D03*
D11*
G36*
X156150000Y-71499398D02*
G01*
X156125466Y-71499398D01*
X156076635Y-71494588D01*
X156028510Y-71485016D01*
X155981555Y-71470772D01*
X155936222Y-71451995D01*
X155892949Y-71428864D01*
X155852150Y-71401604D01*
X155814221Y-71370476D01*
X155779524Y-71335779D01*
X155748396Y-71297850D01*
X155721136Y-71257051D01*
X155698005Y-71213778D01*
X155679228Y-71168445D01*
X155664984Y-71121490D01*
X155655412Y-71073365D01*
X155650602Y-71024534D01*
X155650602Y-71000000D01*
X155650000Y-71000000D01*
X155650000Y-70500000D01*
X155650602Y-70500000D01*
X155650602Y-70475466D01*
X155655412Y-70426635D01*
X155664984Y-70378510D01*
X155679228Y-70331555D01*
X155698005Y-70286222D01*
X155721136Y-70242949D01*
X155748396Y-70202150D01*
X155779524Y-70164221D01*
X155814221Y-70129524D01*
X155852150Y-70098396D01*
X155892949Y-70071136D01*
X155936222Y-70048005D01*
X155981555Y-70029228D01*
X156028510Y-70014984D01*
X156076635Y-70005412D01*
X156125466Y-70000602D01*
X156150000Y-70000602D01*
X156150000Y-70000000D01*
X156700000Y-70000000D01*
X156700000Y-71500000D01*
X156150000Y-71500000D01*
X156150000Y-71499398D01*
G37*
%TD*%
%TO.C,JP1*%
G36*
X158200000Y-65500000D02*
G01*
X158750000Y-65500000D01*
X158750000Y-65500602D01*
X158774534Y-65500602D01*
X158823365Y-65505412D01*
X158871490Y-65514984D01*
X158918445Y-65529228D01*
X158963778Y-65548005D01*
X159007051Y-65571136D01*
X159047850Y-65598396D01*
X159085779Y-65629524D01*
X159120476Y-65664221D01*
X159151604Y-65702150D01*
X159178864Y-65742949D01*
X159201995Y-65786222D01*
X159220772Y-65831555D01*
X159235016Y-65878510D01*
X159244588Y-65926635D01*
X159249398Y-65975466D01*
X159249398Y-66000000D01*
X159250000Y-66000000D01*
X159250000Y-66500000D01*
X159249398Y-66500000D01*
X159249398Y-66524534D01*
X159244588Y-66573365D01*
X159235016Y-66621490D01*
X159220772Y-66668445D01*
X159201995Y-66713778D01*
X159178864Y-66757051D01*
X159151604Y-66797850D01*
X159120476Y-66835779D01*
X159085779Y-66870476D01*
X159047850Y-66901604D01*
X159007051Y-66928864D01*
X158963778Y-66951995D01*
X158918445Y-66970772D01*
X158871490Y-66985016D01*
X158823365Y-66994588D01*
X158774534Y-66999398D01*
X158750000Y-66999398D01*
X158750000Y-67000000D01*
X158200000Y-67000000D01*
X158200000Y-65500000D01*
G37*
D12*
X157450000Y-66250000D03*
D11*
G36*
X156150000Y-66999398D02*
G01*
X156125466Y-66999398D01*
X156076635Y-66994588D01*
X156028510Y-66985016D01*
X155981555Y-66970772D01*
X155936222Y-66951995D01*
X155892949Y-66928864D01*
X155852150Y-66901604D01*
X155814221Y-66870476D01*
X155779524Y-66835779D01*
X155748396Y-66797850D01*
X155721136Y-66757051D01*
X155698005Y-66713778D01*
X155679228Y-66668445D01*
X155664984Y-66621490D01*
X155655412Y-66573365D01*
X155650602Y-66524534D01*
X155650602Y-66500000D01*
X155650000Y-66500000D01*
X155650000Y-66000000D01*
X155650602Y-66000000D01*
X155650602Y-65975466D01*
X155655412Y-65926635D01*
X155664984Y-65878510D01*
X155679228Y-65831555D01*
X155698005Y-65786222D01*
X155721136Y-65742949D01*
X155748396Y-65702150D01*
X155779524Y-65664221D01*
X155814221Y-65629524D01*
X155852150Y-65598396D01*
X155892949Y-65571136D01*
X155936222Y-65548005D01*
X155981555Y-65529228D01*
X156028510Y-65514984D01*
X156076635Y-65505412D01*
X156125466Y-65500602D01*
X156150000Y-65500602D01*
X156150000Y-65500000D01*
X156700000Y-65500000D01*
X156700000Y-67000000D01*
X156150000Y-67000000D01*
X156150000Y-66999398D01*
G37*
%TD*%
D13*
%TO.C,J2*%
X140750000Y-69750000D03*
D14*
X140750000Y-64750000D03*
%TD*%
D15*
%TO.C,J1*%
X168850000Y-72410000D03*
X168850000Y-69870000D03*
X168850000Y-67330000D03*
X168850000Y-64790000D03*
D16*
X168850000Y-62250000D03*
%TD*%
D10*
%TO.C,REF\u002A\u002A*%
X150750000Y-77250000D03*
%TD*%
%TO.C,REF\u002A\u002A*%
X150750000Y-85250000D03*
%TD*%
D11*
%TO.C,JP2*%
G36*
X158200000Y-84000000D02*
G01*
X158750000Y-84000000D01*
X158750000Y-84000602D01*
X158774534Y-84000602D01*
X158823365Y-84005412D01*
X158871490Y-84014984D01*
X158918445Y-84029228D01*
X158963778Y-84048005D01*
X159007051Y-84071136D01*
X159047850Y-84098396D01*
X159085779Y-84129524D01*
X159120476Y-84164221D01*
X159151604Y-84202150D01*
X159178864Y-84242949D01*
X159201995Y-84286222D01*
X159220772Y-84331555D01*
X159235016Y-84378510D01*
X159244588Y-84426635D01*
X159249398Y-84475466D01*
X159249398Y-84500000D01*
X159250000Y-84500000D01*
X159250000Y-85000000D01*
X159249398Y-85000000D01*
X159249398Y-85024534D01*
X159244588Y-85073365D01*
X159235016Y-85121490D01*
X159220772Y-85168445D01*
X159201995Y-85213778D01*
X159178864Y-85257051D01*
X159151604Y-85297850D01*
X159120476Y-85335779D01*
X159085779Y-85370476D01*
X159047850Y-85401604D01*
X159007051Y-85428864D01*
X158963778Y-85451995D01*
X158918445Y-85470772D01*
X158871490Y-85485016D01*
X158823365Y-85494588D01*
X158774534Y-85499398D01*
X158750000Y-85499398D01*
X158750000Y-85500000D01*
X158200000Y-85500000D01*
X158200000Y-84000000D01*
G37*
D12*
X157450000Y-84750000D03*
D11*
G36*
X156150000Y-85499398D02*
G01*
X156125466Y-85499398D01*
X156076635Y-85494588D01*
X156028510Y-85485016D01*
X155981555Y-85470772D01*
X155936222Y-85451995D01*
X155892949Y-85428864D01*
X155852150Y-85401604D01*
X155814221Y-85370476D01*
X155779524Y-85335779D01*
X155748396Y-85297850D01*
X155721136Y-85257051D01*
X155698005Y-85213778D01*
X155679228Y-85168445D01*
X155664984Y-85121490D01*
X155655412Y-85073365D01*
X155650602Y-85024534D01*
X155650602Y-85000000D01*
X155650000Y-85000000D01*
X155650000Y-84500000D01*
X155650602Y-84500000D01*
X155650602Y-84475466D01*
X155655412Y-84426635D01*
X155664984Y-84378510D01*
X155679228Y-84331555D01*
X155698005Y-84286222D01*
X155721136Y-84242949D01*
X155748396Y-84202150D01*
X155779524Y-84164221D01*
X155814221Y-84129524D01*
X155852150Y-84098396D01*
X155892949Y-84071136D01*
X155936222Y-84048005D01*
X155981555Y-84029228D01*
X156028510Y-84014984D01*
X156076635Y-84005412D01*
X156125466Y-84000602D01*
X156150000Y-84000602D01*
X156150000Y-84000000D01*
X156700000Y-84000000D01*
X156700000Y-85500000D01*
X156150000Y-85500000D01*
X156150000Y-85499398D01*
G37*
%TD*%
%TO.C,JP1*%
G36*
X158200000Y-79500000D02*
G01*
X158750000Y-79500000D01*
X158750000Y-79500602D01*
X158774534Y-79500602D01*
X158823365Y-79505412D01*
X158871490Y-79514984D01*
X158918445Y-79529228D01*
X158963778Y-79548005D01*
X159007051Y-79571136D01*
X159047850Y-79598396D01*
X159085779Y-79629524D01*
X159120476Y-79664221D01*
X159151604Y-79702150D01*
X159178864Y-79742949D01*
X159201995Y-79786222D01*
X159220772Y-79831555D01*
X159235016Y-79878510D01*
X159244588Y-79926635D01*
X159249398Y-79975466D01*
X159249398Y-80000000D01*
X159250000Y-80000000D01*
X159250000Y-80500000D01*
X159249398Y-80500000D01*
X159249398Y-80524534D01*
X159244588Y-80573365D01*
X159235016Y-80621490D01*
X159220772Y-80668445D01*
X159201995Y-80713778D01*
X159178864Y-80757051D01*
X159151604Y-80797850D01*
X159120476Y-80835779D01*
X159085779Y-80870476D01*
X159047850Y-80901604D01*
X159007051Y-80928864D01*
X158963778Y-80951995D01*
X158918445Y-80970772D01*
X158871490Y-80985016D01*
X158823365Y-80994588D01*
X158774534Y-80999398D01*
X158750000Y-80999398D01*
X158750000Y-81000000D01*
X158200000Y-81000000D01*
X158200000Y-79500000D01*
G37*
D12*
X157450000Y-80250000D03*
D11*
G36*
X156150000Y-80999398D02*
G01*
X156125466Y-80999398D01*
X156076635Y-80994588D01*
X156028510Y-80985016D01*
X155981555Y-80970772D01*
X155936222Y-80951995D01*
X155892949Y-80928864D01*
X155852150Y-80901604D01*
X155814221Y-80870476D01*
X155779524Y-80835779D01*
X155748396Y-80797850D01*
X155721136Y-80757051D01*
X155698005Y-80713778D01*
X155679228Y-80668445D01*
X155664984Y-80621490D01*
X155655412Y-80573365D01*
X155650602Y-80524534D01*
X155650602Y-80500000D01*
X155650000Y-80500000D01*
X155650000Y-80000000D01*
X155650602Y-80000000D01*
X155650602Y-79975466D01*
X155655412Y-79926635D01*
X155664984Y-79878510D01*
X155679228Y-79831555D01*
X155698005Y-79786222D01*
X155721136Y-79742949D01*
X155748396Y-79702150D01*
X155779524Y-79664221D01*
X155814221Y-79629524D01*
X155852150Y-79598396D01*
X155892949Y-79571136D01*
X155936222Y-79548005D01*
X155981555Y-79529228D01*
X156028510Y-79514984D01*
X156076635Y-79505412D01*
X156125466Y-79500602D01*
X156150000Y-79500602D01*
X156150000Y-79500000D01*
X156700000Y-79500000D01*
X156700000Y-81000000D01*
X156150000Y-81000000D01*
X156150000Y-80999398D01*
G37*
%TD*%
D13*
%TO.C,J2*%
X140750000Y-83750000D03*
D14*
X140750000Y-78750000D03*
%TD*%
D15*
%TO.C,J1*%
X168850000Y-86410000D03*
X168850000Y-83870000D03*
X168850000Y-81330000D03*
X168850000Y-78790000D03*
D16*
X168850000Y-76250000D03*
%TD*%
D10*
%TO.C,REF\u002A\u002A*%
X114750000Y-91250000D03*
%TD*%
%TO.C,REF\u002A\u002A*%
X114750000Y-99250000D03*
%TD*%
D11*
%TO.C,JP2*%
G36*
X122200000Y-98000000D02*
G01*
X122750000Y-98000000D01*
X122750000Y-98000602D01*
X122774534Y-98000602D01*
X122823365Y-98005412D01*
X122871490Y-98014984D01*
X122918445Y-98029228D01*
X122963778Y-98048005D01*
X123007051Y-98071136D01*
X123047850Y-98098396D01*
X123085779Y-98129524D01*
X123120476Y-98164221D01*
X123151604Y-98202150D01*
X123178864Y-98242949D01*
X123201995Y-98286222D01*
X123220772Y-98331555D01*
X123235016Y-98378510D01*
X123244588Y-98426635D01*
X123249398Y-98475466D01*
X123249398Y-98500000D01*
X123250000Y-98500000D01*
X123250000Y-99000000D01*
X123249398Y-99000000D01*
X123249398Y-99024534D01*
X123244588Y-99073365D01*
X123235016Y-99121490D01*
X123220772Y-99168445D01*
X123201995Y-99213778D01*
X123178864Y-99257051D01*
X123151604Y-99297850D01*
X123120476Y-99335779D01*
X123085779Y-99370476D01*
X123047850Y-99401604D01*
X123007051Y-99428864D01*
X122963778Y-99451995D01*
X122918445Y-99470772D01*
X122871490Y-99485016D01*
X122823365Y-99494588D01*
X122774534Y-99499398D01*
X122750000Y-99499398D01*
X122750000Y-99500000D01*
X122200000Y-99500000D01*
X122200000Y-98000000D01*
G37*
D12*
X121450000Y-98750000D03*
D11*
G36*
X120150000Y-99499398D02*
G01*
X120125466Y-99499398D01*
X120076635Y-99494588D01*
X120028510Y-99485016D01*
X119981555Y-99470772D01*
X119936222Y-99451995D01*
X119892949Y-99428864D01*
X119852150Y-99401604D01*
X119814221Y-99370476D01*
X119779524Y-99335779D01*
X119748396Y-99297850D01*
X119721136Y-99257051D01*
X119698005Y-99213778D01*
X119679228Y-99168445D01*
X119664984Y-99121490D01*
X119655412Y-99073365D01*
X119650602Y-99024534D01*
X119650602Y-99000000D01*
X119650000Y-99000000D01*
X119650000Y-98500000D01*
X119650602Y-98500000D01*
X119650602Y-98475466D01*
X119655412Y-98426635D01*
X119664984Y-98378510D01*
X119679228Y-98331555D01*
X119698005Y-98286222D01*
X119721136Y-98242949D01*
X119748396Y-98202150D01*
X119779524Y-98164221D01*
X119814221Y-98129524D01*
X119852150Y-98098396D01*
X119892949Y-98071136D01*
X119936222Y-98048005D01*
X119981555Y-98029228D01*
X120028510Y-98014984D01*
X120076635Y-98005412D01*
X120125466Y-98000602D01*
X120150000Y-98000602D01*
X120150000Y-98000000D01*
X120700000Y-98000000D01*
X120700000Y-99500000D01*
X120150000Y-99500000D01*
X120150000Y-99499398D01*
G37*
%TD*%
%TO.C,JP1*%
G36*
X122200000Y-93500000D02*
G01*
X122750000Y-93500000D01*
X122750000Y-93500602D01*
X122774534Y-93500602D01*
X122823365Y-93505412D01*
X122871490Y-93514984D01*
X122918445Y-93529228D01*
X122963778Y-93548005D01*
X123007051Y-93571136D01*
X123047850Y-93598396D01*
X123085779Y-93629524D01*
X123120476Y-93664221D01*
X123151604Y-93702150D01*
X123178864Y-93742949D01*
X123201995Y-93786222D01*
X123220772Y-93831555D01*
X123235016Y-93878510D01*
X123244588Y-93926635D01*
X123249398Y-93975466D01*
X123249398Y-94000000D01*
X123250000Y-94000000D01*
X123250000Y-94500000D01*
X123249398Y-94500000D01*
X123249398Y-94524534D01*
X123244588Y-94573365D01*
X123235016Y-94621490D01*
X123220772Y-94668445D01*
X123201995Y-94713778D01*
X123178864Y-94757051D01*
X123151604Y-94797850D01*
X123120476Y-94835779D01*
X123085779Y-94870476D01*
X123047850Y-94901604D01*
X123007051Y-94928864D01*
X122963778Y-94951995D01*
X122918445Y-94970772D01*
X122871490Y-94985016D01*
X122823365Y-94994588D01*
X122774534Y-94999398D01*
X122750000Y-94999398D01*
X122750000Y-95000000D01*
X122200000Y-95000000D01*
X122200000Y-93500000D01*
G37*
D12*
X121450000Y-94250000D03*
D11*
G36*
X120150000Y-94999398D02*
G01*
X120125466Y-94999398D01*
X120076635Y-94994588D01*
X120028510Y-94985016D01*
X119981555Y-94970772D01*
X119936222Y-94951995D01*
X119892949Y-94928864D01*
X119852150Y-94901604D01*
X119814221Y-94870476D01*
X119779524Y-94835779D01*
X119748396Y-94797850D01*
X119721136Y-94757051D01*
X119698005Y-94713778D01*
X119679228Y-94668445D01*
X119664984Y-94621490D01*
X119655412Y-94573365D01*
X119650602Y-94524534D01*
X119650602Y-94500000D01*
X119650000Y-94500000D01*
X119650000Y-94000000D01*
X119650602Y-94000000D01*
X119650602Y-93975466D01*
X119655412Y-93926635D01*
X119664984Y-93878510D01*
X119679228Y-93831555D01*
X119698005Y-93786222D01*
X119721136Y-93742949D01*
X119748396Y-93702150D01*
X119779524Y-93664221D01*
X119814221Y-93629524D01*
X119852150Y-93598396D01*
X119892949Y-93571136D01*
X119936222Y-93548005D01*
X119981555Y-93529228D01*
X120028510Y-93514984D01*
X120076635Y-93505412D01*
X120125466Y-93500602D01*
X120150000Y-93500602D01*
X120150000Y-93500000D01*
X120700000Y-93500000D01*
X120700000Y-95000000D01*
X120150000Y-95000000D01*
X120150000Y-94999398D01*
G37*
%TD*%
D13*
%TO.C,J2*%
X104750000Y-97750000D03*
D14*
X104750000Y-92750000D03*
%TD*%
D15*
%TO.C,J1*%
X132850000Y-100410000D03*
X132850000Y-97870000D03*
X132850000Y-95330000D03*
X132850000Y-92790000D03*
D16*
X132850000Y-90250000D03*
%TD*%
D10*
%TO.C,REF\u002A\u002A*%
X150750000Y-91250000D03*
%TD*%
%TO.C,REF\u002A\u002A*%
X150750000Y-99250000D03*
%TD*%
D11*
%TO.C,JP2*%
G36*
X158200000Y-98000000D02*
G01*
X158750000Y-98000000D01*
X158750000Y-98000602D01*
X158774534Y-98000602D01*
X158823365Y-98005412D01*
X158871490Y-98014984D01*
X158918445Y-98029228D01*
X158963778Y-98048005D01*
X159007051Y-98071136D01*
X159047850Y-98098396D01*
X159085779Y-98129524D01*
X159120476Y-98164221D01*
X159151604Y-98202150D01*
X159178864Y-98242949D01*
X159201995Y-98286222D01*
X159220772Y-98331555D01*
X159235016Y-98378510D01*
X159244588Y-98426635D01*
X159249398Y-98475466D01*
X159249398Y-98500000D01*
X159250000Y-98500000D01*
X159250000Y-99000000D01*
X159249398Y-99000000D01*
X159249398Y-99024534D01*
X159244588Y-99073365D01*
X159235016Y-99121490D01*
X159220772Y-99168445D01*
X159201995Y-99213778D01*
X159178864Y-99257051D01*
X159151604Y-99297850D01*
X159120476Y-99335779D01*
X159085779Y-99370476D01*
X159047850Y-99401604D01*
X159007051Y-99428864D01*
X158963778Y-99451995D01*
X158918445Y-99470772D01*
X158871490Y-99485016D01*
X158823365Y-99494588D01*
X158774534Y-99499398D01*
X158750000Y-99499398D01*
X158750000Y-99500000D01*
X158200000Y-99500000D01*
X158200000Y-98000000D01*
G37*
D12*
X157450000Y-98750000D03*
D11*
G36*
X156150000Y-99499398D02*
G01*
X156125466Y-99499398D01*
X156076635Y-99494588D01*
X156028510Y-99485016D01*
X155981555Y-99470772D01*
X155936222Y-99451995D01*
X155892949Y-99428864D01*
X155852150Y-99401604D01*
X155814221Y-99370476D01*
X155779524Y-99335779D01*
X155748396Y-99297850D01*
X155721136Y-99257051D01*
X155698005Y-99213778D01*
X155679228Y-99168445D01*
X155664984Y-99121490D01*
X155655412Y-99073365D01*
X155650602Y-99024534D01*
X155650602Y-99000000D01*
X155650000Y-99000000D01*
X155650000Y-98500000D01*
X155650602Y-98500000D01*
X155650602Y-98475466D01*
X155655412Y-98426635D01*
X155664984Y-98378510D01*
X155679228Y-98331555D01*
X155698005Y-98286222D01*
X155721136Y-98242949D01*
X155748396Y-98202150D01*
X155779524Y-98164221D01*
X155814221Y-98129524D01*
X155852150Y-98098396D01*
X155892949Y-98071136D01*
X155936222Y-98048005D01*
X155981555Y-98029228D01*
X156028510Y-98014984D01*
X156076635Y-98005412D01*
X156125466Y-98000602D01*
X156150000Y-98000602D01*
X156150000Y-98000000D01*
X156700000Y-98000000D01*
X156700000Y-99500000D01*
X156150000Y-99500000D01*
X156150000Y-99499398D01*
G37*
%TD*%
%TO.C,JP1*%
G36*
X158200000Y-93500000D02*
G01*
X158750000Y-93500000D01*
X158750000Y-93500602D01*
X158774534Y-93500602D01*
X158823365Y-93505412D01*
X158871490Y-93514984D01*
X158918445Y-93529228D01*
X158963778Y-93548005D01*
X159007051Y-93571136D01*
X159047850Y-93598396D01*
X159085779Y-93629524D01*
X159120476Y-93664221D01*
X159151604Y-93702150D01*
X159178864Y-93742949D01*
X159201995Y-93786222D01*
X159220772Y-93831555D01*
X159235016Y-93878510D01*
X159244588Y-93926635D01*
X159249398Y-93975466D01*
X159249398Y-94000000D01*
X159250000Y-94000000D01*
X159250000Y-94500000D01*
X159249398Y-94500000D01*
X159249398Y-94524534D01*
X159244588Y-94573365D01*
X159235016Y-94621490D01*
X159220772Y-94668445D01*
X159201995Y-94713778D01*
X159178864Y-94757051D01*
X159151604Y-94797850D01*
X159120476Y-94835779D01*
X159085779Y-94870476D01*
X159047850Y-94901604D01*
X159007051Y-94928864D01*
X158963778Y-94951995D01*
X158918445Y-94970772D01*
X158871490Y-94985016D01*
X158823365Y-94994588D01*
X158774534Y-94999398D01*
X158750000Y-94999398D01*
X158750000Y-95000000D01*
X158200000Y-95000000D01*
X158200000Y-93500000D01*
G37*
D12*
X157450000Y-94250000D03*
D11*
G36*
X156150000Y-94999398D02*
G01*
X156125466Y-94999398D01*
X156076635Y-94994588D01*
X156028510Y-94985016D01*
X155981555Y-94970772D01*
X155936222Y-94951995D01*
X155892949Y-94928864D01*
X155852150Y-94901604D01*
X155814221Y-94870476D01*
X155779524Y-94835779D01*
X155748396Y-94797850D01*
X155721136Y-94757051D01*
X155698005Y-94713778D01*
X155679228Y-94668445D01*
X155664984Y-94621490D01*
X155655412Y-94573365D01*
X155650602Y-94524534D01*
X155650602Y-94500000D01*
X155650000Y-94500000D01*
X155650000Y-94000000D01*
X155650602Y-94000000D01*
X155650602Y-93975466D01*
X155655412Y-93926635D01*
X155664984Y-93878510D01*
X155679228Y-93831555D01*
X155698005Y-93786222D01*
X155721136Y-93742949D01*
X155748396Y-93702150D01*
X155779524Y-93664221D01*
X155814221Y-93629524D01*
X155852150Y-93598396D01*
X155892949Y-93571136D01*
X155936222Y-93548005D01*
X155981555Y-93529228D01*
X156028510Y-93514984D01*
X156076635Y-93505412D01*
X156125466Y-93500602D01*
X156150000Y-93500602D01*
X156150000Y-93500000D01*
X156700000Y-93500000D01*
X156700000Y-95000000D01*
X156150000Y-95000000D01*
X156150000Y-94999398D01*
G37*
%TD*%
D13*
%TO.C,J2*%
X140750000Y-97750000D03*
D14*
X140750000Y-92750000D03*
%TD*%
D15*
%TO.C,J1*%
X168850000Y-100410000D03*
X168850000Y-97870000D03*
X168850000Y-95330000D03*
X168850000Y-92790000D03*
D16*
X168850000Y-90250000D03*
%TD*%
D10*
%TO.C,REF\u002A\u002A*%
X114750000Y-105250000D03*
%TD*%
%TO.C,REF\u002A\u002A*%
X114750000Y-113250000D03*
%TD*%
D11*
%TO.C,JP2*%
G36*
X122200000Y-112000000D02*
G01*
X122750000Y-112000000D01*
X122750000Y-112000602D01*
X122774534Y-112000602D01*
X122823365Y-112005412D01*
X122871490Y-112014984D01*
X122918445Y-112029228D01*
X122963778Y-112048005D01*
X123007051Y-112071136D01*
X123047850Y-112098396D01*
X123085779Y-112129524D01*
X123120476Y-112164221D01*
X123151604Y-112202150D01*
X123178864Y-112242949D01*
X123201995Y-112286222D01*
X123220772Y-112331555D01*
X123235016Y-112378510D01*
X123244588Y-112426635D01*
X123249398Y-112475466D01*
X123249398Y-112500000D01*
X123250000Y-112500000D01*
X123250000Y-113000000D01*
X123249398Y-113000000D01*
X123249398Y-113024534D01*
X123244588Y-113073365D01*
X123235016Y-113121490D01*
X123220772Y-113168445D01*
X123201995Y-113213778D01*
X123178864Y-113257051D01*
X123151604Y-113297850D01*
X123120476Y-113335779D01*
X123085779Y-113370476D01*
X123047850Y-113401604D01*
X123007051Y-113428864D01*
X122963778Y-113451995D01*
X122918445Y-113470772D01*
X122871490Y-113485016D01*
X122823365Y-113494588D01*
X122774534Y-113499398D01*
X122750000Y-113499398D01*
X122750000Y-113500000D01*
X122200000Y-113500000D01*
X122200000Y-112000000D01*
G37*
D12*
X121450000Y-112750000D03*
D11*
G36*
X120150000Y-113499398D02*
G01*
X120125466Y-113499398D01*
X120076635Y-113494588D01*
X120028510Y-113485016D01*
X119981555Y-113470772D01*
X119936222Y-113451995D01*
X119892949Y-113428864D01*
X119852150Y-113401604D01*
X119814221Y-113370476D01*
X119779524Y-113335779D01*
X119748396Y-113297850D01*
X119721136Y-113257051D01*
X119698005Y-113213778D01*
X119679228Y-113168445D01*
X119664984Y-113121490D01*
X119655412Y-113073365D01*
X119650602Y-113024534D01*
X119650602Y-113000000D01*
X119650000Y-113000000D01*
X119650000Y-112500000D01*
X119650602Y-112500000D01*
X119650602Y-112475466D01*
X119655412Y-112426635D01*
X119664984Y-112378510D01*
X119679228Y-112331555D01*
X119698005Y-112286222D01*
X119721136Y-112242949D01*
X119748396Y-112202150D01*
X119779524Y-112164221D01*
X119814221Y-112129524D01*
X119852150Y-112098396D01*
X119892949Y-112071136D01*
X119936222Y-112048005D01*
X119981555Y-112029228D01*
X120028510Y-112014984D01*
X120076635Y-112005412D01*
X120125466Y-112000602D01*
X120150000Y-112000602D01*
X120150000Y-112000000D01*
X120700000Y-112000000D01*
X120700000Y-113500000D01*
X120150000Y-113500000D01*
X120150000Y-113499398D01*
G37*
%TD*%
%TO.C,JP1*%
G36*
X122200000Y-107500000D02*
G01*
X122750000Y-107500000D01*
X122750000Y-107500602D01*
X122774534Y-107500602D01*
X122823365Y-107505412D01*
X122871490Y-107514984D01*
X122918445Y-107529228D01*
X122963778Y-107548005D01*
X123007051Y-107571136D01*
X123047850Y-107598396D01*
X123085779Y-107629524D01*
X123120476Y-107664221D01*
X123151604Y-107702150D01*
X123178864Y-107742949D01*
X123201995Y-107786222D01*
X123220772Y-107831555D01*
X123235016Y-107878510D01*
X123244588Y-107926635D01*
X123249398Y-107975466D01*
X123249398Y-108000000D01*
X123250000Y-108000000D01*
X123250000Y-108500000D01*
X123249398Y-108500000D01*
X123249398Y-108524534D01*
X123244588Y-108573365D01*
X123235016Y-108621490D01*
X123220772Y-108668445D01*
X123201995Y-108713778D01*
X123178864Y-108757051D01*
X123151604Y-108797850D01*
X123120476Y-108835779D01*
X123085779Y-108870476D01*
X123047850Y-108901604D01*
X123007051Y-108928864D01*
X122963778Y-108951995D01*
X122918445Y-108970772D01*
X122871490Y-108985016D01*
X122823365Y-108994588D01*
X122774534Y-108999398D01*
X122750000Y-108999398D01*
X122750000Y-109000000D01*
X122200000Y-109000000D01*
X122200000Y-107500000D01*
G37*
D12*
X121450000Y-108250000D03*
D11*
G36*
X120150000Y-108999398D02*
G01*
X120125466Y-108999398D01*
X120076635Y-108994588D01*
X120028510Y-108985016D01*
X119981555Y-108970772D01*
X119936222Y-108951995D01*
X119892949Y-108928864D01*
X119852150Y-108901604D01*
X119814221Y-108870476D01*
X119779524Y-108835779D01*
X119748396Y-108797850D01*
X119721136Y-108757051D01*
X119698005Y-108713778D01*
X119679228Y-108668445D01*
X119664984Y-108621490D01*
X119655412Y-108573365D01*
X119650602Y-108524534D01*
X119650602Y-108500000D01*
X119650000Y-108500000D01*
X119650000Y-108000000D01*
X119650602Y-108000000D01*
X119650602Y-107975466D01*
X119655412Y-107926635D01*
X119664984Y-107878510D01*
X119679228Y-107831555D01*
X119698005Y-107786222D01*
X119721136Y-107742949D01*
X119748396Y-107702150D01*
X119779524Y-107664221D01*
X119814221Y-107629524D01*
X119852150Y-107598396D01*
X119892949Y-107571136D01*
X119936222Y-107548005D01*
X119981555Y-107529228D01*
X120028510Y-107514984D01*
X120076635Y-107505412D01*
X120125466Y-107500602D01*
X120150000Y-107500602D01*
X120150000Y-107500000D01*
X120700000Y-107500000D01*
X120700000Y-109000000D01*
X120150000Y-109000000D01*
X120150000Y-108999398D01*
G37*
%TD*%
D13*
%TO.C,J2*%
X104750000Y-111750000D03*
D14*
X104750000Y-106750000D03*
%TD*%
D15*
%TO.C,J1*%
X132850000Y-114410000D03*
X132850000Y-111870000D03*
X132850000Y-109330000D03*
X132850000Y-106790000D03*
D16*
X132850000Y-104250000D03*
%TD*%
D10*
%TO.C,REF\u002A\u002A*%
X150750000Y-105250000D03*
%TD*%
%TO.C,REF\u002A\u002A*%
X150750000Y-113250000D03*
%TD*%
D11*
%TO.C,JP2*%
G36*
X158200000Y-112000000D02*
G01*
X158750000Y-112000000D01*
X158750000Y-112000602D01*
X158774534Y-112000602D01*
X158823365Y-112005412D01*
X158871490Y-112014984D01*
X158918445Y-112029228D01*
X158963778Y-112048005D01*
X159007051Y-112071136D01*
X159047850Y-112098396D01*
X159085779Y-112129524D01*
X159120476Y-112164221D01*
X159151604Y-112202150D01*
X159178864Y-112242949D01*
X159201995Y-112286222D01*
X159220772Y-112331555D01*
X159235016Y-112378510D01*
X159244588Y-112426635D01*
X159249398Y-112475466D01*
X159249398Y-112500000D01*
X159250000Y-112500000D01*
X159250000Y-113000000D01*
X159249398Y-113000000D01*
X159249398Y-113024534D01*
X159244588Y-113073365D01*
X159235016Y-113121490D01*
X159220772Y-113168445D01*
X159201995Y-113213778D01*
X159178864Y-113257051D01*
X159151604Y-113297850D01*
X159120476Y-113335779D01*
X159085779Y-113370476D01*
X159047850Y-113401604D01*
X159007051Y-113428864D01*
X158963778Y-113451995D01*
X158918445Y-113470772D01*
X158871490Y-113485016D01*
X158823365Y-113494588D01*
X158774534Y-113499398D01*
X158750000Y-113499398D01*
X158750000Y-113500000D01*
X158200000Y-113500000D01*
X158200000Y-112000000D01*
G37*
D12*
X157450000Y-112750000D03*
D11*
G36*
X156150000Y-113499398D02*
G01*
X156125466Y-113499398D01*
X156076635Y-113494588D01*
X156028510Y-113485016D01*
X155981555Y-113470772D01*
X155936222Y-113451995D01*
X155892949Y-113428864D01*
X155852150Y-113401604D01*
X155814221Y-113370476D01*
X155779524Y-113335779D01*
X155748396Y-113297850D01*
X155721136Y-113257051D01*
X155698005Y-113213778D01*
X155679228Y-113168445D01*
X155664984Y-113121490D01*
X155655412Y-113073365D01*
X155650602Y-113024534D01*
X155650602Y-113000000D01*
X155650000Y-113000000D01*
X155650000Y-112500000D01*
X155650602Y-112500000D01*
X155650602Y-112475466D01*
X155655412Y-112426635D01*
X155664984Y-112378510D01*
X155679228Y-112331555D01*
X155698005Y-112286222D01*
X155721136Y-112242949D01*
X155748396Y-112202150D01*
X155779524Y-112164221D01*
X155814221Y-112129524D01*
X155852150Y-112098396D01*
X155892949Y-112071136D01*
X155936222Y-112048005D01*
X155981555Y-112029228D01*
X156028510Y-112014984D01*
X156076635Y-112005412D01*
X156125466Y-112000602D01*
X156150000Y-112000602D01*
X156150000Y-112000000D01*
X156700000Y-112000000D01*
X156700000Y-113500000D01*
X156150000Y-113500000D01*
X156150000Y-113499398D01*
G37*
%TD*%
%TO.C,JP1*%
G36*
X158200000Y-107500000D02*
G01*
X158750000Y-107500000D01*
X158750000Y-107500602D01*
X158774534Y-107500602D01*
X158823365Y-107505412D01*
X158871490Y-107514984D01*
X158918445Y-107529228D01*
X158963778Y-107548005D01*
X159007051Y-107571136D01*
X159047850Y-107598396D01*
X159085779Y-107629524D01*
X159120476Y-107664221D01*
X159151604Y-107702150D01*
X159178864Y-107742949D01*
X159201995Y-107786222D01*
X159220772Y-107831555D01*
X159235016Y-107878510D01*
X159244588Y-107926635D01*
X159249398Y-107975466D01*
X159249398Y-108000000D01*
X159250000Y-108000000D01*
X159250000Y-108500000D01*
X159249398Y-108500000D01*
X159249398Y-108524534D01*
X159244588Y-108573365D01*
X159235016Y-108621490D01*
X159220772Y-108668445D01*
X159201995Y-108713778D01*
X159178864Y-108757051D01*
X159151604Y-108797850D01*
X159120476Y-108835779D01*
X159085779Y-108870476D01*
X159047850Y-108901604D01*
X159007051Y-108928864D01*
X158963778Y-108951995D01*
X158918445Y-108970772D01*
X158871490Y-108985016D01*
X158823365Y-108994588D01*
X158774534Y-108999398D01*
X158750000Y-108999398D01*
X158750000Y-109000000D01*
X158200000Y-109000000D01*
X158200000Y-107500000D01*
G37*
D12*
X157450000Y-108250000D03*
D11*
G36*
X156150000Y-108999398D02*
G01*
X156125466Y-108999398D01*
X156076635Y-108994588D01*
X156028510Y-108985016D01*
X155981555Y-108970772D01*
X155936222Y-108951995D01*
X155892949Y-108928864D01*
X155852150Y-108901604D01*
X155814221Y-108870476D01*
X155779524Y-108835779D01*
X155748396Y-108797850D01*
X155721136Y-108757051D01*
X155698005Y-108713778D01*
X155679228Y-108668445D01*
X155664984Y-108621490D01*
X155655412Y-108573365D01*
X155650602Y-108524534D01*
X155650602Y-108500000D01*
X155650000Y-108500000D01*
X155650000Y-108000000D01*
X155650602Y-108000000D01*
X155650602Y-107975466D01*
X155655412Y-107926635D01*
X155664984Y-107878510D01*
X155679228Y-107831555D01*
X155698005Y-107786222D01*
X155721136Y-107742949D01*
X155748396Y-107702150D01*
X155779524Y-107664221D01*
X155814221Y-107629524D01*
X155852150Y-107598396D01*
X155892949Y-107571136D01*
X155936222Y-107548005D01*
X155981555Y-107529228D01*
X156028510Y-107514984D01*
X156076635Y-107505412D01*
X156125466Y-107500602D01*
X156150000Y-107500602D01*
X156150000Y-107500000D01*
X156700000Y-107500000D01*
X156700000Y-109000000D01*
X156150000Y-109000000D01*
X156150000Y-108999398D01*
G37*
%TD*%
D13*
%TO.C,J2*%
X140750000Y-111750000D03*
D14*
X140750000Y-106750000D03*
%TD*%
D15*
%TO.C,J1*%
X168850000Y-114410000D03*
X168850000Y-111870000D03*
X168850000Y-109330000D03*
X168850000Y-106790000D03*
D16*
X168850000Y-104250000D03*
%TD*%
D10*
%TO.C,REF\u002A\u002A*%
X114750000Y-119250000D03*
%TD*%
%TO.C,REF\u002A\u002A*%
X114750000Y-127250000D03*
%TD*%
D11*
%TO.C,JP2*%
G36*
X122200000Y-126000000D02*
G01*
X122750000Y-126000000D01*
X122750000Y-126000602D01*
X122774534Y-126000602D01*
X122823365Y-126005412D01*
X122871490Y-126014984D01*
X122918445Y-126029228D01*
X122963778Y-126048005D01*
X123007051Y-126071136D01*
X123047850Y-126098396D01*
X123085779Y-126129524D01*
X123120476Y-126164221D01*
X123151604Y-126202150D01*
X123178864Y-126242949D01*
X123201995Y-126286222D01*
X123220772Y-126331555D01*
X123235016Y-126378510D01*
X123244588Y-126426635D01*
X123249398Y-126475466D01*
X123249398Y-126500000D01*
X123250000Y-126500000D01*
X123250000Y-127000000D01*
X123249398Y-127000000D01*
X123249398Y-127024534D01*
X123244588Y-127073365D01*
X123235016Y-127121490D01*
X123220772Y-127168445D01*
X123201995Y-127213778D01*
X123178864Y-127257051D01*
X123151604Y-127297850D01*
X123120476Y-127335779D01*
X123085779Y-127370476D01*
X123047850Y-127401604D01*
X123007051Y-127428864D01*
X122963778Y-127451995D01*
X122918445Y-127470772D01*
X122871490Y-127485016D01*
X122823365Y-127494588D01*
X122774534Y-127499398D01*
X122750000Y-127499398D01*
X122750000Y-127500000D01*
X122200000Y-127500000D01*
X122200000Y-126000000D01*
G37*
D12*
X121450000Y-126750000D03*
D11*
G36*
X120150000Y-127499398D02*
G01*
X120125466Y-127499398D01*
X120076635Y-127494588D01*
X120028510Y-127485016D01*
X119981555Y-127470772D01*
X119936222Y-127451995D01*
X119892949Y-127428864D01*
X119852150Y-127401604D01*
X119814221Y-127370476D01*
X119779524Y-127335779D01*
X119748396Y-127297850D01*
X119721136Y-127257051D01*
X119698005Y-127213778D01*
X119679228Y-127168445D01*
X119664984Y-127121490D01*
X119655412Y-127073365D01*
X119650602Y-127024534D01*
X119650602Y-127000000D01*
X119650000Y-127000000D01*
X119650000Y-126500000D01*
X119650602Y-126500000D01*
X119650602Y-126475466D01*
X119655412Y-126426635D01*
X119664984Y-126378510D01*
X119679228Y-126331555D01*
X119698005Y-126286222D01*
X119721136Y-126242949D01*
X119748396Y-126202150D01*
X119779524Y-126164221D01*
X119814221Y-126129524D01*
X119852150Y-126098396D01*
X119892949Y-126071136D01*
X119936222Y-126048005D01*
X119981555Y-126029228D01*
X120028510Y-126014984D01*
X120076635Y-126005412D01*
X120125466Y-126000602D01*
X120150000Y-126000602D01*
X120150000Y-126000000D01*
X120700000Y-126000000D01*
X120700000Y-127500000D01*
X120150000Y-127500000D01*
X120150000Y-127499398D01*
G37*
%TD*%
%TO.C,JP1*%
G36*
X122200000Y-121500000D02*
G01*
X122750000Y-121500000D01*
X122750000Y-121500602D01*
X122774534Y-121500602D01*
X122823365Y-121505412D01*
X122871490Y-121514984D01*
X122918445Y-121529228D01*
X122963778Y-121548005D01*
X123007051Y-121571136D01*
X123047850Y-121598396D01*
X123085779Y-121629524D01*
X123120476Y-121664221D01*
X123151604Y-121702150D01*
X123178864Y-121742949D01*
X123201995Y-121786222D01*
X123220772Y-121831555D01*
X123235016Y-121878510D01*
X123244588Y-121926635D01*
X123249398Y-121975466D01*
X123249398Y-122000000D01*
X123250000Y-122000000D01*
X123250000Y-122500000D01*
X123249398Y-122500000D01*
X123249398Y-122524534D01*
X123244588Y-122573365D01*
X123235016Y-122621490D01*
X123220772Y-122668445D01*
X123201995Y-122713778D01*
X123178864Y-122757051D01*
X123151604Y-122797850D01*
X123120476Y-122835779D01*
X123085779Y-122870476D01*
X123047850Y-122901604D01*
X123007051Y-122928864D01*
X122963778Y-122951995D01*
X122918445Y-122970772D01*
X122871490Y-122985016D01*
X122823365Y-122994588D01*
X122774534Y-122999398D01*
X122750000Y-122999398D01*
X122750000Y-123000000D01*
X122200000Y-123000000D01*
X122200000Y-121500000D01*
G37*
D12*
X121450000Y-122250000D03*
D11*
G36*
X120150000Y-122999398D02*
G01*
X120125466Y-122999398D01*
X120076635Y-122994588D01*
X120028510Y-122985016D01*
X119981555Y-122970772D01*
X119936222Y-122951995D01*
X119892949Y-122928864D01*
X119852150Y-122901604D01*
X119814221Y-122870476D01*
X119779524Y-122835779D01*
X119748396Y-122797850D01*
X119721136Y-122757051D01*
X119698005Y-122713778D01*
X119679228Y-122668445D01*
X119664984Y-122621490D01*
X119655412Y-122573365D01*
X119650602Y-122524534D01*
X119650602Y-122500000D01*
X119650000Y-122500000D01*
X119650000Y-122000000D01*
X119650602Y-122000000D01*
X119650602Y-121975466D01*
X119655412Y-121926635D01*
X119664984Y-121878510D01*
X119679228Y-121831555D01*
X119698005Y-121786222D01*
X119721136Y-121742949D01*
X119748396Y-121702150D01*
X119779524Y-121664221D01*
X119814221Y-121629524D01*
X119852150Y-121598396D01*
X119892949Y-121571136D01*
X119936222Y-121548005D01*
X119981555Y-121529228D01*
X120028510Y-121514984D01*
X120076635Y-121505412D01*
X120125466Y-121500602D01*
X120150000Y-121500602D01*
X120150000Y-121500000D01*
X120700000Y-121500000D01*
X120700000Y-123000000D01*
X120150000Y-123000000D01*
X120150000Y-122999398D01*
G37*
%TD*%
D13*
%TO.C,J2*%
X104750000Y-125750000D03*
D14*
X104750000Y-120750000D03*
%TD*%
D15*
%TO.C,J1*%
X132850000Y-128410000D03*
X132850000Y-125870000D03*
X132850000Y-123330000D03*
X132850000Y-120790000D03*
D16*
X132850000Y-118250000D03*
%TD*%
D10*
%TO.C,REF\u002A\u002A*%
X150750000Y-119250000D03*
%TD*%
%TO.C,REF\u002A\u002A*%
X150750000Y-127250000D03*
%TD*%
D11*
%TO.C,JP2*%
G36*
X158200000Y-126000000D02*
G01*
X158750000Y-126000000D01*
X158750000Y-126000602D01*
X158774534Y-126000602D01*
X158823365Y-126005412D01*
X158871490Y-126014984D01*
X158918445Y-126029228D01*
X158963778Y-126048005D01*
X159007051Y-126071136D01*
X159047850Y-126098396D01*
X159085779Y-126129524D01*
X159120476Y-126164221D01*
X159151604Y-126202150D01*
X159178864Y-126242949D01*
X159201995Y-126286222D01*
X159220772Y-126331555D01*
X159235016Y-126378510D01*
X159244588Y-126426635D01*
X159249398Y-126475466D01*
X159249398Y-126500000D01*
X159250000Y-126500000D01*
X159250000Y-127000000D01*
X159249398Y-127000000D01*
X159249398Y-127024534D01*
X159244588Y-127073365D01*
X159235016Y-127121490D01*
X159220772Y-127168445D01*
X159201995Y-127213778D01*
X159178864Y-127257051D01*
X159151604Y-127297850D01*
X159120476Y-127335779D01*
X159085779Y-127370476D01*
X159047850Y-127401604D01*
X159007051Y-127428864D01*
X158963778Y-127451995D01*
X158918445Y-127470772D01*
X158871490Y-127485016D01*
X158823365Y-127494588D01*
X158774534Y-127499398D01*
X158750000Y-127499398D01*
X158750000Y-127500000D01*
X158200000Y-127500000D01*
X158200000Y-126000000D01*
G37*
D12*
X157450000Y-126750000D03*
D11*
G36*
X156150000Y-127499398D02*
G01*
X156125466Y-127499398D01*
X156076635Y-127494588D01*
X156028510Y-127485016D01*
X155981555Y-127470772D01*
X155936222Y-127451995D01*
X155892949Y-127428864D01*
X155852150Y-127401604D01*
X155814221Y-127370476D01*
X155779524Y-127335779D01*
X155748396Y-127297850D01*
X155721136Y-127257051D01*
X155698005Y-127213778D01*
X155679228Y-127168445D01*
X155664984Y-127121490D01*
X155655412Y-127073365D01*
X155650602Y-127024534D01*
X155650602Y-127000000D01*
X155650000Y-127000000D01*
X155650000Y-126500000D01*
X155650602Y-126500000D01*
X155650602Y-126475466D01*
X155655412Y-126426635D01*
X155664984Y-126378510D01*
X155679228Y-126331555D01*
X155698005Y-126286222D01*
X155721136Y-126242949D01*
X155748396Y-126202150D01*
X155779524Y-126164221D01*
X155814221Y-126129524D01*
X155852150Y-126098396D01*
X155892949Y-126071136D01*
X155936222Y-126048005D01*
X155981555Y-126029228D01*
X156028510Y-126014984D01*
X156076635Y-126005412D01*
X156125466Y-126000602D01*
X156150000Y-126000602D01*
X156150000Y-126000000D01*
X156700000Y-126000000D01*
X156700000Y-127500000D01*
X156150000Y-127500000D01*
X156150000Y-127499398D01*
G37*
%TD*%
%TO.C,JP1*%
G36*
X158200000Y-121500000D02*
G01*
X158750000Y-121500000D01*
X158750000Y-121500602D01*
X158774534Y-121500602D01*
X158823365Y-121505412D01*
X158871490Y-121514984D01*
X158918445Y-121529228D01*
X158963778Y-121548005D01*
X159007051Y-121571136D01*
X159047850Y-121598396D01*
X159085779Y-121629524D01*
X159120476Y-121664221D01*
X159151604Y-121702150D01*
X159178864Y-121742949D01*
X159201995Y-121786222D01*
X159220772Y-121831555D01*
X159235016Y-121878510D01*
X159244588Y-121926635D01*
X159249398Y-121975466D01*
X159249398Y-122000000D01*
X159250000Y-122000000D01*
X159250000Y-122500000D01*
X159249398Y-122500000D01*
X159249398Y-122524534D01*
X159244588Y-122573365D01*
X159235016Y-122621490D01*
X159220772Y-122668445D01*
X159201995Y-122713778D01*
X159178864Y-122757051D01*
X159151604Y-122797850D01*
X159120476Y-122835779D01*
X159085779Y-122870476D01*
X159047850Y-122901604D01*
X159007051Y-122928864D01*
X158963778Y-122951995D01*
X158918445Y-122970772D01*
X158871490Y-122985016D01*
X158823365Y-122994588D01*
X158774534Y-122999398D01*
X158750000Y-122999398D01*
X158750000Y-123000000D01*
X158200000Y-123000000D01*
X158200000Y-121500000D01*
G37*
D12*
X157450000Y-122250000D03*
D11*
G36*
X156150000Y-122999398D02*
G01*
X156125466Y-122999398D01*
X156076635Y-122994588D01*
X156028510Y-122985016D01*
X155981555Y-122970772D01*
X155936222Y-122951995D01*
X155892949Y-122928864D01*
X155852150Y-122901604D01*
X155814221Y-122870476D01*
X155779524Y-122835779D01*
X155748396Y-122797850D01*
X155721136Y-122757051D01*
X155698005Y-122713778D01*
X155679228Y-122668445D01*
X155664984Y-122621490D01*
X155655412Y-122573365D01*
X155650602Y-122524534D01*
X155650602Y-122500000D01*
X155650000Y-122500000D01*
X155650000Y-122000000D01*
X155650602Y-122000000D01*
X155650602Y-121975466D01*
X155655412Y-121926635D01*
X155664984Y-121878510D01*
X155679228Y-121831555D01*
X155698005Y-121786222D01*
X155721136Y-121742949D01*
X155748396Y-121702150D01*
X155779524Y-121664221D01*
X155814221Y-121629524D01*
X155852150Y-121598396D01*
X155892949Y-121571136D01*
X155936222Y-121548005D01*
X155981555Y-121529228D01*
X156028510Y-121514984D01*
X156076635Y-121505412D01*
X156125466Y-121500602D01*
X156150000Y-121500602D01*
X156150000Y-121500000D01*
X156700000Y-121500000D01*
X156700000Y-123000000D01*
X156150000Y-123000000D01*
X156150000Y-122999398D01*
G37*
%TD*%
D13*
%TO.C,J2*%
X140750000Y-125750000D03*
D14*
X140750000Y-120750000D03*
%TD*%
D15*
%TO.C,J1*%
X168850000Y-128410000D03*
X168850000Y-125870000D03*
X168850000Y-123330000D03*
X168850000Y-120790000D03*
D16*
X168850000Y-118250000D03*
%TD*%
M02*
